<?xml version="1.0" encoding="utf-8" ?>
<svg baseProfile="full" height="200mm" version="1.1" viewBox="0,0,200,200" width="200mm" xmlns="http://www.w3.org/2000/svg" xmlns:ev="http://www.w3.org/2001/xml-events" xmlns:xlink="http://www.w3.org/1999/xlink"><defs /><rect fill="#1a1a1a" height="200" width="200" x="0" y="0" /><text alignment-baseline="middle" fill="#e1ed5e" style="dominant-baseline: central; font-size:9.0px; font-family:Arial;" text-anchor="middle" x="100.0" y="100.0">2025</text><line stroke="#e1ed5e" stroke-width="0.3" x1="100.0" x2="100.0" y1="15.0" y2="10.0" /><path d="M 100.0 14.0 a86.0,86.0 0 0,1 42.46469731375804,11.215312516191453" fill="none" id="id97" stroke="none" /><text fill="#e1ed5e" style="font-size:6.75px; font-family:Arial;" text-anchor="middle"><textPath startOffset="22.20632615414155" xlink:href="#id97">January</textPath></text><path d="M 100.0 79.0 l 0.0 -60.10600190806525 a81.10600190806525,81.10600190806525 0 0,0 1.3961064972193347,0.012016729388118343 l -1.0346260179468063 60.097096555285695" fill="#47fcff" stroke="none" /><path d="M 100.36148047927253 79.00311137660856 l 0.3980976414745403 -23.123826371198984 a44.127252923283066,44.127252923283066 0 0,0 0.7593530413568528,0.019611848748555663 l -0.7960773180262608 23.11354773030807" fill="#ff0701" stroke="none" /><path d="M 100.72285384407766 79.0124445844662 l 1.0506810988900408 -30.50579030280371 a51.5238787307609,51.5238787307609 0 0,0 0.8861105311654587,0.038157783455000864 l -1.575632462444831 30.483184792824513" fill="#ffa40f" stroke="none" /><path d="M 101.08401301168833 79.027996857942 l 3.2520390350649873 -62.916009426173986 a84.0,84.0 0 0,0 1.4433518046415523,0.08706692247878367 l -4.334552888546152 62.8507092343149" fill="#4dd2ff" stroke="none" /><path d="M 101.44485096284872 79.0497635885617 l 2.7611066787236953 -40.03585086894486 a61.13094896575068,61.13094896575068 0 0,0 1.0491520828974565,0.08143439378510625 l -3.449848950983493 39.982391212971294" fill="#a6ff21" stroke="none" /><path d="M 101.80526077348638 79.07773832637324 l 1.977339576466693 -22.91658725656495 a44.001735658171896,44.001735658171896 0 0,0 0.7540532870377753,0.07160644554786147 l -2.3715179905947124 22.87915526650191" fill="#ff0400" stroke="none" /><path d="M 102.16513564639614 79.11191278185805 l 2.672731374102061 -25.78510318549063 a46.923252868506076,46.923252868506076 0 0,0 0.8026854671428656,0.09019106486167346 l -3.1161835447546515 25.735276167158354" fill="#ff4406" stroke="none" /><path d="M 102.88285421437855 79.19881850522331 l 3.4052744956971144 -24.570695414023568 a45.80554308052464,45.80554308052464 0 0,0 0.7800706225670075,0.11496213220695288 l -3.827714098692778 24.508438797655646" fill="#ff2c04" stroke="none" /><path d="M 103.2404852339499 79.25152402106235 l 3.659040888541372 -23.428442501900005 a44.712454497349114,44.712454497349114 0 0,0 0.7594107924309014,0.12530928763385626 l -4.061780887111149 23.361986951326525" fill="#ff1402" stroke="none" /><path d="M 103.59715602781102 79.31037775812273 l 7.756530504625244 -44.612934442532485 a66.28220053224979,66.28220053224979 0 0,0 1.1223939949192345,0.20511032840962262 l -8.52331962064738 44.47280863277212" fill="#52ff2b" stroke="none" /><path d="M 103.95276090670814 79.375362276772 l 8.735463766411629 -45.5797301630033 a67.40926770534612,67.40926770534612 0 0,0 1.1377194660951229,0.22821582178964336 l -9.518749641973878 45.422610385136444" fill="#40ff2d" stroke="none" /><path d="M 105.01212808612495 79.60689891045804 l 5.73400972141987 -23.330257704514814 a45.02456642781323,45.02456642781323 0 0,0 0.7510335909749337,0.19145518479997628 l -6.134752201079829 23.22809952354597" fill="#ff1b02" stroke="none" /><path d="M 105.36241919743992 79.69619591428918 l 5.830101537323487 -22.074596381821504 a43.831510886400594,43.831510886400594 0 0,0 0.7278162078381801,0.19893966301870522 l -6.2092156343853775 21.970970177976508" fill="#ff0000" stroke="none" /><path d="M 106.0581310904928 79.89281104454417 l 11.908562621011749 -39.525014436272954 a62.280027009271,62.280027009271 0 0,0 1.0238083957891377,0.3181022522155897 l -12.587156389511604 39.31417204917484" fill="#93ff23" stroke="none" /><path d="M 106.40334571778207 80.00007090966166 l 18.94931750443473 -59.185466957775155 a83.14496063957054,83.14496063957054 0 0,0 1.359290153882983,0.4481365924478754 l -19.96529048056013 58.85051664106805" fill="#4bdeff" stroke="none" /><path d="M 107.08798089147638 80.2323363322302 l 9.381223429314478 -26.163285762507687 a48.79433170488825,48.79433170488825 0 0,0 0.7881857007816013,0.29029544537061824 l -9.830191455868654 25.997927049330745" fill="#ff6c0a" stroke="none" /><path d="M 107.4271985657038 80.35727306442388 l 8.575638954041237 -22.680009532821657 a45.24715273756799,45.24715273756799 0 0,0 0.7261453432567531,0.2817331118388492 l -8.964767462297658 22.52903371709226" fill="#ff2003" stroke="none" /><path d="M 108.09893153111575 80.62456947434976 l 9.047042331939513 -21.643637743034716 a44.4583893246664,44.4583893246664 0 0,0 0.7035354702413478,0.3012171723394074 l -9.418261559971176 21.484701042732517" fill="#ff0e01" stroke="none" /><path d="M 108.43124777332544 80.76684994638697 l 24.431144652930158 -55.731711808772914 a81.85149571036456,81.85149571036456 0 0,0 1.2855279483579936,0.576778918187967 l -25.386854719754933 55.302912560068414" fill="#49f1ff" stroke="none" /><path d="M 108.76106565485865 80.91482961587045 l 20.586366712824237 -44.845493891092474 a70.3448762970472,70.3448762970472 0 0,0 1.0961131546584904,0.5146398233849377 l -21.355258078782327 44.48448908506753" fill="#33ff51" stroke="none" /><path d="M 109.08828744355905 81.06846463323043 l 26.903888397791558 -56.042672271262724 a83.1659096790595,83.1659096790595 0 0,0 1.2852251093366687,0.630654379480136 l -27.86458477413866 55.57126273164776" fill="#4bdeff" stroke="none" /><path d="M 109.41281617654863 81.2277094730956 l 15.87677062002893 -31.663568598179722 a56.421087246055095,56.421087246055095 0 0,0 0.8644234809646689,0.44279128134025825 l -16.419454588582354 31.385584791526966" fill="#faff18" stroke="none" /><path d="M 109.73455568895987 81.39251694778311 l 23.20669940647224 -44.35931949041669 a71.06296158833615,71.06296158833615 0 0,0 1.0789893957528256,0.5763587674420163 l -23.966833848753375 43.95328199647292" fill="#34ff5e" stroke="none" /><line stroke="#e1ed5e" stroke-width="0.3" x1="143.23703022742887" x2="145.7803849466894" y1="26.81831364943548" y2="22.513508569990506" /><path d="M 143.74570117128098 25.957352633546492 a86.0,86.0 0 0,1 28.547481713284135,27.462654790039103" fill="none" id="id98" stroke="none" /><text fill="#e1ed5e" style="font-size:6.75px; font-family:Arial;" text-anchor="middle"><textPath startOffset="19.985693538727396" xlink:href="#id98">February</textPath></text><line stroke="#e1ed5e" stroke-width="0.3" x1="172.23445277983987" x2="176.4835382374775" y1="55.19839476539836" y2="52.563006222186495" /><path d="M 173.08426987136738 54.67131705675599 a86.0,86.0 0 0,1 12.851231095245387,41.99856678651699" fill="none" id="id99" stroke="none" /><text fill="#e1ed5e" style="font-size:6.75px; font-family:Arial;" text-anchor="middle"><textPath startOffset="22.20632615414155" xlink:href="#id99">March</textPath></text><line stroke="#e1ed5e" stroke-width="0.3" x1="184.98032266829074" x2="189.97916517819016" y1="98.17113171792111" y2="98.06355123074" /><path d="M 185.9800911702706 98.14961562048488 a86.0,86.0 0 0,1 -9.607161424134198,41.387399972396054" fill="none" id="id100" stroke="none" /><text fill="#e1ed5e" style="font-size:6.75px; font-family:Arial;" text-anchor="middle"><textPath startOffset="21.466115282336823" xlink:href="#id100">April</textPath></text><line stroke="#e1ed5e" stroke-width="0.3" x1="174.80103733775053" x2="179.2010983576182" y1="140.37084112569926" y2="142.7455964860345" /><path d="M 175.68104954172406 140.8457921977663 a86.0,86.0 0 0,1 -30.038265399797805,32.042727171017184" fill="none" id="id101" stroke="none" /><text fill="#e1ed5e" style="font-size:6.75px; font-family:Arial;" text-anchor="middle"><textPath startOffset="22.206326154141568" xlink:href="#id101">May</textPath></text><line stroke="#e1ed5e" stroke-width="0.3" x1="143.8653032363475" x2="146.44561519142675" y1="172.8068346515853" y2="177.08958963109032" /><path d="M 144.38136562736335 173.6633856474863 a86.0,86.0 0 0,1 -40.68145358897372,12.25698825130547" fill="none" id="id102" stroke="none" /><text fill="#e1ed5e" style="font-size:6.75px; font-family:Arial;" text-anchor="middle"><textPath startOffset="21.466115282336833" xlink:href="#id102">June</textPath></text><line stroke="#e1ed5e" stroke-width="0.3" x1="102.19456741930631" x2="102.32365962044197" y1="184.97166512339345" y2="189.96999836594603" /><path d="M 102.22038585953345 185.97133177190398 a86.0,86.0 0 0,1 -42.740103519485714,-10.115201625700543" fill="none" id="id103" stroke="none" /><text fill="#e1ed5e" style="font-size:6.75px; font-family:Arial;" text-anchor="middle"><textPath startOffset="22.20632615414155" xlink:href="#id103">July</textPath></text><line stroke="#e1ed5e" stroke-width="0.3" x1="58.666819895761336" x2="56.23545636021788" y1="174.27360380694188" y2="178.64263932499728" /><path d="M 58.180547188652646 175.14741091055294 a86.0,86.0 0 0,1 -31.652253787137756,-30.449443065178592" fill="none" id="id104" stroke="none" /><text fill="#e1ed5e" style="font-size:6.75px; font-family:Arial;" text-anchor="middle"><textPath startOffset="22.20632615414155" xlink:href="#id104">August</textPath></text><line stroke="#e1ed5e" stroke-width="0.3" x1="26.63291911575756" x2="22.317208475507996" y1="142.92168965132927" y2="145.44649492493687" /><path d="M 25.769776987707644 143.4266507060508 a86.0,86.0 0 0,1 -11.730757126820373,-40.83630448921669" fill="none" id="id105" stroke="none" /><text fill="#e1ed5e" style="font-size:6.75px; font-family:Arial;" text-anchor="middle"><textPath startOffset="21.46611528233685" xlink:href="#id105">September</textPath></text><line stroke="#e1ed5e" stroke-width="0.3" x1="15.007084014347285" x2="10.007500721073583" y1="101.09737516637583" y2="101.16192664675087" /><path d="M 14.007167355692545 101.11028546245083 a86.0,86.0 0 0,1 10.666146001902534,-42.60595125391555" fill="none" id="id106" stroke="none" /><text fill="#e1ed5e" style="font-size:6.75px; font-family:Arial;" text-anchor="middle"><textPath startOffset="22.20632615414155" xlink:href="#id106">October</textPath></text><line stroke="#e1ed5e" stroke-width="0.3" x1="26.266209847984243" x2="21.928928074336255" y1="57.711370442889674" y2="55.22380399835377" /><path d="M 25.398753493254645 57.213857153982495 a86.0,86.0 0 0,1 29.58750427330803,-30.492523968695096" fill="none" id="id107" stroke="none" /><text fill="#e1ed5e" style="font-size:6.75px; font-family:Arial;" text-anchor="middle"><textPath startOffset="21.46611528233685" xlink:href="#id107">November</textPath></text><line stroke="#e1ed5e" stroke-width="0.3" x1="56.762969772571076" x2="54.21961505331055" y1="26.818313649435495" y2="22.513508569990535" /><path d="M 56.25429882871897 25.957352633546506 a86.0,86.0 0 0,1 42.265352541879196,-11.944610805530505" fill="none" id="id108" stroke="none" /><text fill="#e1ed5e" style="font-size:6.75px; font-family:Arial;" text-anchor="middle"><textPath startOffset="22.20632615414155" xlink:href="#id108">December</textPath></text></svg>