<?xml version="1.0" encoding="utf-8" ?>
<svg baseProfile="full" height="200mm" version="1.1" viewBox="0,0,200,200" width="200mm" xmlns="http://www.w3.org/2000/svg" xmlns:ev="http://www.w3.org/2001/xml-events" xmlns:xlink="http://www.w3.org/1999/xlink"><defs /><rect fill="#1a1a1a" height="200" width="200" x="0" y="0" /><text alignment-baseline="middle" fill="#e1ed5e" style="dominant-baseline: central; font-size:9.0px; font-family:Arial;" text-anchor="middle" x="100.0" y="100.0">2024</text><line stroke="#e1ed5e" stroke-width="0.3" x1="100.0" x2="100.0" y1="15.0" y2="10.0" /><path d="M 100.0 14.0 a86.0,86.0 0 0,1 42.35913384403234,11.155469271406648" fill="none" id="id85" stroke="none" /><text fill="#e1ed5e" style="font-size:6.75px; font-family:Arial;" text-anchor="middle"><textPath startOffset="22.145653131862478" xlink:href="#id85">January</textPath></text><path d="M 100.36049292484886 79.00309439819443 l 0.12002920513660655 -6.991099452977488 a27.992129759344277,27.992129759344277 0 0,0 0.4803805179081838,0.012372898114307026 l -0.24002303711553172 6.988008837513135" fill="#ff2904" stroke="none" /><path d="M 101.08105385017728 79.02784411241856 l 0.3656097452265309 -7.092731383966083 a28.102148194096067,28.102148194096067 0 0,0 0.48155794023123777,0.02896932987045669 l -0.487312037590231 7.085410076270934" fill="#ff2b04" stroke="none" /><path d="M 101.44090949804482 79.04949213459386 l 0.5241862942619139 -7.6215536754902855 a28.63955834452958,28.63955834452958 0 0,0 0.4901878688079817,0.03794364121048845 l -0.6549431578451291 7.611432267284743" fill="#ff3304" stroke="none" /><path d="M 101.80034050326958 79.07731436759882 l 0.5046813971932804 -5.865162839373651 a26.886836030079532,26.886836030079532 0 0,0 0.4595093900186243,0.0435160169848752 l -0.6052903505969176 5.855635066883592" fill="#ff1902" stroke="none" /><path d="M 103.94208987418118 79.37332000966035 l 1.3674791790010878 -7.1552289062325665 a28.28473060624671,28.28473060624671 0 0,0 0.4761310321484914,0.09523954125696185 l -1.490106696680536 7.130699968312745" fill="#ff2e04" stroke="none" /><path d="M 104.9986988182912 79.60360301121754 l 1.7358825313652577 -7.082993099336569 a28.292604432433485,28.292604432433485 0 0,0 0.4707279156933335,0.11965719540205039 l -1.8572157402839857 7.052150672099252" fill="#ff2e04" stroke="none" /><path d="M 105.69591212413111 79.78721728523813 l 2.614512449026226 -9.27798232934792 a30.639327333886186,30.639327333886186 0 0,0 0.5050236373327301,0.14700502053420553 l -2.77339609874056 9.2317336145112" fill="#ff5107" stroke="none" /><path d="M 106.72888874123014 80.10723608172694 l 2.547266473528973 -7.5305407093980605 a28.949692438268677,28.949692438268677 0 0,0 0.4693906274429745,0.1632784261450365 l -2.6761628730169655 7.485703850684434" fill="#ff3805" stroke="none" /><path d="M 107.06938296918511 80.22567764915836 l 2.078784041390239 -5.814728939062451 a27.175144996314586,27.175144996314586 0 0,0 0.4379220891488089,0.1608110569884235 l -2.1782952821931723 5.778187033065305" fill="#ff1d02" stroke="none" /><path d="M 107.40779381753099 80.34994680014964 l 3.3132794042835108 -8.788867261135424 a30.392657139739924,30.392657139739924 0 0,0 0.4866121117573686,0.1882320184465155 l -3.4636637785344053 8.73069535455087" fill="#ff4d07" stroke="none" /><path d="M 108.4095320186766 80.7573450057729 l 3.736803526178258 -8.550537755937496 a30.331419854929415,30.331419854929415 0 0,0 0.47531732126742154,0.21260339201066822 l -3.883034250301311 8.485130613016976" fill="#ff4c07" stroke="none" /><path d="M 109.06512990194946 81.05736502329252 l 3.6056380280715294 -7.534396722677561 a29.3527097138695,29.3527097138695 0 0,0 0.4526463903439239,0.22141203191709222 l -3.7344446676775207 7.471390940663248" fill="#ff3e05" stroke="none" /><path d="M 109.71004243097381 81.37971332152246 l 3.514322424849606 -6.739176630429958 a28.600458128424503,28.600458128424503 0 0,0 0.4333802690520419,0.23075058302948068 l -3.629491509688208 6.677855579677904" fill="#ff3304" stroke="none" /><path d="M 110.02825361518725 81.54914285379988 l 3.8730410711575214 -7.1259593412226385 a29.110471236101585,29.110471236101585 0 0,0 0.4370116782236046,0.2424030112106831 l -3.994796937537226 7.058423414578809" fill="#ff3a05" stroke="none" /><line stroke="#e1ed5e" stroke-width="0.3" x1="143.13028292997686" x2="145.6673583964461" y1="26.7553504044142" y2="22.446841604673864" /><path d="M 143.63769802327073 25.89364864446614 a86.0,86.0 0 0,1 29.32050498858742,28.57503671076993" fill="none" id="id86" stroke="none" /><text fill="#e1ed5e" style="font-size:6.75px; font-family:Arial;" text-anchor="middle"><textPath startOffset="20.669276256404974" xlink:href="#id86">February</textPath></text><path d="M 111.5731344415666 82.4767994020092 l 5.130621842355878 -7.768415392560249 a30.309756076322635,30.309756076322635 0 0,0 0.4317028833001228,0.29046896617186446 l -5.263221013753002 7.679196752331266" fill="#ff4c07" stroke="none" /><path d="M 111.8722381534696 82.67804972795209 l 5.214145869781893 -7.607594650648973 a30.222950369591416,30.222950369591416 0 0,0 0.42543107087919163,0.2969839281156929 l -5.343972031834846 7.516965906728153" fill="#ff4b06" stroke="none" /><path d="M 112.16784306229584 82.88440491214696 l 4.227146739818517 -5.946011269644097 a28.295465686211738,28.295465686211738 0 0,0 0.39346730003264824,0.28483998189070453 l -4.328595050225133 5.872570516380317" fill="#ff2e04" stroke="none" /><path d="M 113.59037401385872 83.9905735841838 l 4.0982026851104 -4.827672458275977 a27.33258925027058,27.33258925027058 0 0,0 0.35509005803270827,0.30671833484561817 l -4.180472222905969 4.7566099909656385" fill="#ff1f03" stroke="none" /><path d="M 113.86319453409587 84.22622945171908 l 4.935811394057354 -5.616047312036722 a28.476778820370527,28.476778820370527 0 0,0 0.3644145901166162,0.32586177357414897 l -5.031491010997345 5.530490008579186" fill="#ff3104" stroke="none" /><path d="M 114.13192950727249 84.46653392183569 l 3.995142323416092 -4.3913612593585505 a26.936768135488,26.936768135488 0 0,0 0.3393650907461315,0.31411126156799646 l -4.0699371854761885 4.3221322516581795" fill="#ff1902" stroke="none" /><path d="M 114.39649973595853 84.71141617570332 l 3.6956471144273304 -3.9246491668261405 a26.390795736906025,26.390795736906025 0 0,0 0.32715477382024116,0.3134068727794081 l -3.7624743741128834 3.860630163741152" fill="#ff1101" stroke="none" /><path d="M 114.65682725009322 84.96080404539774 l 4.983269162972566 -5.113273163262163 a28.13992534924353,28.13992534924353 0 0,0 0.34304991696885856,0.34011788401482285 l -5.070311000071387 5.02697526901868" fill="#ff2c04" stroke="none" /><path d="M 115.16444852881244 85.47280134310134 l 4.303490396440723 -4.122646450899052 a26.95955059978251,26.95955059978251 0 0,0 0.31728074551563623,0.33694115671292557 l -4.373626975692619 4.048163834241631" fill="#ff1a02" stroke="none" /><path d="M 115.41159269507618 85.73525988315684 l 4.417865547433824 -4.089110395801764 a27.019830547802556,27.019830547802556 0 0,0 0.31214633398856056,0.34310350104275766 l -4.487409582264262 4.012669319201334" fill="#ff1b02" stroke="none" /><path d="M 115.6541949942343 86.00192230759917 l 5.46751921588458 -4.889089397240536 a28.334641198468876,28.334641198468876 0 0,0 0.32111100533041453,0.36536537853178785 l -5.550641285173584 4.79451174089745" fill="#ff2f04" stroke="none" /><path d="M 115.8921839302757 86.27271002978787 l 5.50905262462053 -4.758588446440928 a28.279685764058737,28.279685764058737 0 0,0 0.31418116338406804,0.3701046204691363 l -5.58992835151171 4.66331704352224" fill="#ff2e04" stroke="none" /><path d="M 116.57777611688842 87.10902102172516 l 5.032549641017248 -3.9133410399593864 a27.375013253659418,27.375013253659418 0 0,0 0.28528416764109565,0.37344613318700487 l -5.0989857860126495 3.8263739935314995" fill="#ff2003" stroke="none" /><path d="M 116.7966241395341 87.39550010848427 l 6.182550700581986 -4.639501306179593 a28.729741621510318,28.729741621510318 0 0,0 0.29263017670093144,0.39700903594750925 l -6.261282896866743 4.532685960963208" fill="#ff3405" stroke="none" /><path d="M 117.01052211995028 87.68569379921539 l 6.205466727709378 -4.492279358913501 a28.660834885782908,28.660834885782908 0 0,0 0.28508646053170617,0.4010098090934157 l -6.281668286771045 4.38509232311058" fill="#ff3304" stroke="none" /><line stroke="#e1ed5e" stroke-width="0.3" x1="172.87174338648825" x2="177.1583165268699" y1="56.24261187166439" y2="53.66864786411523" /><path d="M 173.72905801456457 55.72781907015455 a86.0,86.0 0 0,1 12.242430191666344,42.057860355516425" fill="none" id="id87" stroke="none" /><text fill="#e1ed5e" style="font-size:6.75px; font-family:Arial;" text-anchor="middle"><textPath startOffset="22.145653131862474" xlink:href="#id87">March</textPath></text><path d="M 118.18653347947321 89.5 l 5.882103331185879 -3.3960339416613623 a27.792067883322723,27.792067883322723 0 0,0 0.23499733205424314,0.4152177687303923 l -5.939534028261497 3.294559402831852" fill="#ff2603" stroke="none" /><path d="M 118.36410011445183 89.81374322990088 l 9.41380112126801 -5.221676793649157 a31.76501556376585,31.76501556376585 0 0,0 0.26040453089730253,0.47911500687746816 l -9.502051001780655 5.059306953297085" fill="#ff6109" stroke="none" /><path d="M 118.53625476483649 90.13048839642627 l 9.49974380991845 -5.058078503583559 a31.762401711630076,31.762401711630076 0 0,0 0.2521207654907211,0.4834748111974605 l -9.585172644384114 4.894257449281601" fill="#ff6109" stroke="none" /><path d="M 118.70294669586156 90.45014215332178 l 7.680984894762613 -3.921965616449974 a29.624345960719992,29.624345960719992 0 0,0 0.22737403109497034,0.4549003740150606 l -7.747178839069321 3.7895333862711627" fill="#ff4206" stroke="none" /><path d="M 119.83427380445688 93.10060997987247 l 4.209593336828634 -1.4643150812198897 a25.457005128846056,25.457005128846056 0 0,0 0.14003120073756165,0.41397736306683847 l -4.234109959138561 1.3918360436788897" fill="#ff0300" stroke="none" /><path d="M 119.94978838288452 93.4421083053983 l 5.114263160169867 -1.6811598829218266 a26.38349201015627,26.38349201015627 0 0,0 0.13774103072961652,0.43147181693540654 l -5.142368906676741 1.593119032295033" fill="#ff1101" stroke="none" /><path d="M 120.16314734710363 94.1308016681162 l 8.813276630696684 -2.565416381125927 a30.179063469534,30.179063469534 0 0,0 0.14052163494418715,0.4986617089503018 l -8.856016757715453 2.4137467482726125" fill="#ff4a06" stroke="none" /><path d="M 120.51834098615036 95.52812308129327 l 4.956290489282966 -1.0802004439048252 a26.072637224676033,26.072637224676033 0 0,0 0.09155504541873516,0.43812403562818775 l -4.974103245526068 0.994959956991233" fill="#ff0c01" stroke="none" /><path d="M 120.592083275326 95.88100663000786 l 5.279362800618629 -1.056020417302192 a26.383943787068628,26.383943787068628 0 0,0 0.08502377620428973,0.44488032472886757 l -5.296712869105076 0.9652375275400099" fill="#ff1101" stroke="none" /><path d="M 120.77682067341334 96.94652285012252 l 4.256995747012471 -0.6256317771111954 a25.302723313276555,25.302723313276555 0 0,0 0.05946800674268851,0.43028087283568217 l -4.267108270310372 0.5524625960754277" fill="#ff0000" stroke="none" /><path d="M 120.9064616781168 98.02013634271609 l 5.361954408083396 -0.507782657248477 a26.385944513394776,26.385944513394776 0 0,0 0.03883304555273595,0.4512988530630968 l -5.369881076333873 0.4156627568097182" fill="#ff1101" stroke="none" /><path d="M 120.98066250479742 99.09900007780936 l 7.413258908499988 -0.31835723482088696 a28.42009157446303,28.42009157446303 0 0,0 0.016747977562486624,0.4875990930853841 l -7.417631573059323 0.19105187717138292" fill="#ff3004" stroke="none" /><line stroke="#e1ed5e" stroke-width="0.3" x1="184.99686870605535" x2="189.99668451229388" y1="99.2704041080226" y2="99.22748670261217" /><path d="M 185.99683186730306 99.26182062694052 a86.0,86.0 0 0,1 -10.086455211305974,41.156179273409016" fill="none" id="id88" stroke="none" /><text fill="#e1ed5e" style="font-size:6.75px; font-family:Arial;" text-anchor="middle"><textPath startOffset="21.40746469413373" xlink:href="#id88">April</textPath></text><path d="M 120.99922638620191 100.18025310272382 l 5.38020666051969 0.04618260339777556 a26.38040486792184,26.38040486792184 0 0,0 -0.007774139999045546,0.45280468060128376 l -5.378621088921976 -0.13853419996813032" fill="#ff1101" stroke="none" /><path d="M 120.98066250479742 100.90099992219065 l 9.31971063505538 0.40022847491608754 a30.328300442915527,30.328300442915527 0 0,0 -0.026802145271620725,0.5199544580187897 l -9.311466900327186 -0.5601547263116079" fill="#ff4c07" stroke="none" /><path d="M 120.96210409425399 101.26102812881392 l 6.225708119670179 0.37452314068229836 a27.23696313715527,27.23696313715527 0 0,0 -0.032082598947920773,0.46647394754017313 l -6.2183615595571915 -0.48134051237681497" fill="#ff1e03" stroke="none" /><path d="M 120.9064616781168 101.97986365728391 l 10.71136895063185 1.0143777761931445 a31.759293056209344,31.759293056209344 0 0,0 -0.05605909571749125,0.5423208983546557 l -10.692377462432693 -1.1981031968307316" fill="#ff6109" stroke="none" /><path d="M 120.77682067341334 103.0534771498775 l 10.652482465185336 1.5655480840019342 a31.766908724160487,31.766908724160487 0 0,0 -0.0839228902569655,0.5388451576690891 l -10.624038082790104 -1.748181423602474" fill="#ff6109" stroke="none" /><path d="M 120.7213421655516 103.40968896794604 l 5.3238057322494585 0.8760302072959676 a26.39539955877479,26.39539955877479 0 0,0 -0.07740788091393062,0.4464680867676973 l -5.307983033843294 -0.9672913269842529" fill="#ff1101" stroke="none" /><path d="M 120.592083275326 104.11899336999214 l 4.19202659885014 0.838522724322124 a25.27506811228449,25.27506811228449 0 0,0 -0.08875435150809367,0.42472170140314036 l -4.1770145365176825 -0.9103608770106735" fill="#ff0000" stroke="none" /><path d="M 120.43855184770803 104.8234425847677 l 5.248522451201229 1.238637007497785 a26.39269965389381,26.39269965389381 0 0,0 -0.10784870662919666,0.4400595265085116 l -5.2264862180557365 -1.3285523586143964" fill="#ff1101" stroke="none" /><path d="M 120.35273937422433 105.17358676015961 l 5.25914791267987 1.336854833665288 a26.426400060236922,26.426400060236922 0 0,0 -0.115534357618679,0.43870277429725324 l -5.235424074256461 -1.4269381123353442" fill="#ff1202" stroke="none" /><path d="M 120.26092885502905 105.52220625578681 l 5.190238144374699 1.414622486213165 a26.37956585365604,26.37956585365604 0 0,0 -0.12283017750421021,0.43588096771892454 l -5.165189474795909 -1.5035113778350981" fill="#ff1101" stroke="none" /><path d="M 119.83427380445688 106.89939002012753 l 8.749105834031381 3.0433931724181202 a30.263319863688352,30.263319863688352 0 0,0 -0.17489292155061778,0.489206628456433 l -8.69557274243682 -3.1931347572554745" fill="#ff4b07" stroke="none" /><path d="M 119.58574465831526 107.57618678355244 l 5.2680107439273085 2.037779725511212 a26.648405386287187,26.648405386287187 0 0,0 -0.16869877724251836,0.42523112084882925 l -5.232253291718666 -2.1279118635736056" fill="#ff1502" stroke="none" /><path d="M 119.31412917781788 108.2440532568976 l 9.912716061537036 4.231149040137491 a31.77796650192005,31.77796650192005 0 0,0 -0.21846007910843349,0.49987941337984815 l -9.838622100411637 -4.400690523293184" fill="#ff6109" stroke="none" /><path d="M 119.16976305983485 108.57439118712176 l 8.743634059499426 3.910916300278751 a30.578434260056518,30.578434260056518 0 0,0 -0.21844000854366027,0.477330840812874 l -8.67520958610071 -4.060436123306314" fill="#ff5007" stroke="none" /><path d="M 118.8641267826498 109.22738970284198 l 16.032542883899477 7.8423201254845285 a38.84781264678267,38.84781264678267 0 0,0 -0.29816637209251395,0.5965324779193605 l -15.895556598595233 -8.116384459567636" fill="#ffc412" stroke="none" /><path d="M 118.70294669586154 109.54985784667822 l 6.587552498144719 3.3636512437225945 a28.39662068820683,28.39662068820683 0 0,0 -0.22540416843348107,0.4322422136248434 l -6.528840260736288 -3.476239700451941" fill="#ff2f04" stroke="none" /><path d="M 118.5362547648365 109.86951160357373 l 6.097927081040176 3.246802703545131 a27.908432708033793,27.908432708033793 0 0,0 -0.22878887979216175,0.4209457697889996 l -6.041292851632675 -3.3510033068087335" fill="#ff2803" stroke="none" /><line stroke="#e1ed5e" stroke-width="0.3" x1="174.33088141563837" x2="178.70328620479359" y1="141.23008692659167" y2="143.65538615756765" /><path d="M 175.20536237346943 141.71514677278685 a86.0,86.0 0 0,1 -30.301960400862466,31.631185727798858" fill="none" id="id89" stroke="none" /><text fill="#e1ed5e" style="font-size:6.75px; font-family:Arial;" text-anchor="middle"><textPath startOffset="22.145653131862474" xlink:href="#id89">May</textPath></text><path d="M 118.36410011445183 110.18625677009912 l 9.72840877577646 5.396184356268014 a32.12478057830518,32.12478057830518 0 0,0 -0.2716328184150586,0.47994916278544947 l -9.634342592340023 -5.562390289152586" fill="#ff6609" stroke="none" /><path d="M 118.18653347947321 110.5 l 9.707580919113862 5.60467445683046 a32.209348913660925,32.209348913660925 0 0,0 -0.2805684140910412,0.4764665052406761 l -9.609938794893056 -5.770492130364685" fill="#ff6809" stroke="none" /><path d="M 118.00360718960297 110.81064883170644 l 9.224800180482305 5.539227458342232 a31.760110557288847,31.760110557288847 0 0,0 -0.2846795361580891,0.4650026278165205 l -9.128352679868811 -5.69676720228331" fill="#ff6109" stroke="none" /><path d="M 117.21940702142032 112.02048342749411 l 4.936673193564947 3.4461812904697338 a27.020540482950544,27.020540482950544 0 0,0 -0.2687706160213492,0.37805953050041174 l -4.876787479013637 -3.5304180476796496" fill="#ff1b02" stroke="none" /><path d="M 117.01052211995028 112.31430620078461 l 4.922470303692384 3.563488889788081 a27.076937300842957,27.076937300842957 0 0,0 -0.2757953430716963,0.3741693509060391 l -4.86057294103686 -3.647464549962997" fill="#ff1c02" stroke="none" /><path d="M 116.79662413953412 112.60449989151573 l 8.852222216699866 6.642872582202192 a32.067501719774356,32.067501719774356 0 0,0 -0.33418615916952665,0.43746040987274065 l -8.736884080176036 -6.793853905315809" fill="#ff6509" stroke="none" /><path d="M 116.57777611688842 112.89097897827486 l 4.745173590457237 3.689875684865421 a27.010977871639014,27.010977871639014 0 0,0 -0.2877744043373138,0.3635935590321036 l -4.681132755478362 -3.7707891878122077" fill="#ff1b02" stroke="none" /><path d="M 116.35404254752997 113.17365903436017 l 13.030704507330526 10.496613155931863 a37.73254755566665,37.73254755566665 0 0,0 -0.41066160771796956,0.5009403887725224 l -12.848596080373929 -10.718755826402878" fill="#ffb510" stroke="none" /><path d="M 115.89218393027572 113.72728997021213 l 8.398825521538098 7.254705448237993 a32.098244063000855,32.098244063000855 0 0,0 -0.3637631882548201,0.4138957331465326 l -8.273051269324693 -7.397813459195819" fill="#ff6609" stroke="none" /><path d="M 115.16444852881244 114.52719865689866 l 8.03767635720959 7.6999121306118035 a32.13071821772471,32.13071821772471 0 0,0 -0.3849767996230358,0.3950201110182036 l -7.904312756435746 -7.836754933697745" fill="#ff6609" stroke="none" /><path d="M 114.65682725009322 115.03919595460226 l 6.886052878803541 7.065696881800995 a30.866194640040852,30.866194640040852 0 0,0 -0.3826342724494887,0.36655497746919563 l -6.763746120488741 -7.18286398957577" fill="#ff5407" stroke="none" /><path d="M 114.39649973595853 115.28858382429668 l 6.731934008533646 7.149080629094153 a30.819790697186022,30.819790697186022 0 0,0 -0.38828567013381765,0.35939141950739206 l -6.608218567085861 -7.263589794733925" fill="#ff5307" stroke="none" /><path d="M 112.7482090630111 116.68781488649013 l 10.345614729258994 13.542741779294381 a38.042229872493394,38.042229872493394 0 0,0 -0.5223506323287157,0.39198165261219386 l -10.111611108019511 -13.718342459170591" fill="#ffb911" stroke="none" /><path d="M 112.45986205192187 116.90419585922612 l 2.932079512894232 3.977928981416237 a25.941761755803824,25.941761755803824 0 0,0 -0.36073747890709873,0.26114611544763516 l -2.8633610236131655 -4.027675868236949" fill="#ff0a01" stroke="none" /><path d="M 111.5731344415666 117.5232005979908 l 5.338427045498811 8.083058955923791 a30.686828449242455,30.686828449242455 0 0,0 -0.4420574526838186,0.2865363000430278 l -5.198883960557984 -8.173509097670713" fill="#ff5107" stroke="none" /><path d="M 110.96478420261333 117.91015095944535 l 5.622439039229475 9.183831627883604 a31.76822102852495,31.76822102852495 0 0,0 -0.46754840487429916,0.2807493833702142 l -5.463957877797739 -9.278995011789743" fill="#ff6109" stroke="none" /><line stroke="#e1ed5e" stroke-width="0.3" x1="143.1302829299769" x2="145.66735839644613" y1="173.24464959558577" y2="177.55315839532614" /><path d="M 143.63769802327073 174.10635135553383 a86.0,86.0 0 0,1 -40.68552437913181,11.842963189579606" fill="none" id="id90" stroke="none" /><text fill="#e1ed5e" style="font-size:6.75px; font-family:Arial;" text-anchor="middle"><textPath startOffset="21.407464694133747" xlink:href="#id90">June</textPath></text><path d="M 110.65571695917076 118.09573695890943 l 4.952385044060783 8.410232499600392 a30.760027065637246,30.760027065637246 0 0,0 -0.457310101843331,0.26402811040238333 l -4.807282474357054 -8.494007507278948" fill="#ff5207" stroke="none" /><path d="M 110.34350942703117 118.27599006163325 l 8.449965082360164 14.930278640514372 a38.155615120901544,38.155615120901544 0 0,0 -0.5727990200639721,0.31772196076414816 l -8.192421874140097 -15.073133516711664" fill="#ffbb11" stroke="none" /><path d="M 109.71004243097381 118.62028667847754 l 4.979076867710146 9.548036409727713 a31.768296324677006,31.768296324677006 0 0,0 -0.48571119820905895,0.2480075986348503 l -4.814438447787504 -9.6321019600354" fill="#ff6109" stroke="none" /><path d="M 109.06512990194946 118.94263497670748 l 2.794318395133701 5.839050729580142 a27.473231705724196,27.473231705724196 0 0,0 -0.42715810563533907,0.1999315619145081 l -2.6936715756268557 -5.886158523065184" fill="#ff2203" stroke="none" /><path d="M 108.4095320186766 119.2426549942271 l 11.251099409988903 25.744717276935855 a49.09586634369569,49.09586634369569 0 0,0 -0.7751651063661914,0.3308718897412673 l -10.807499228452281 -25.934063816336526" fill="#b8ff1f" stroke="none" /><path d="M 108.07796709384702 119.3841803445677 l 3.759849044381852 9.02226898153152 a30.774344091121662,30.774344091121662 0 0,0 -0.4893788056676379,0.19902609990419567 l -3.6044157775237733 -9.085482338015007" fill="#ff5307" stroke="none" /><path d="M 107.74402155503746 119.51999308798841 l 8.019845334817779 20.215249194463496 a42.74797046137077,42.74797046137077 0 0,0 -0.6844311138676252,0.2647526580989343 l -7.6716419584566236 -20.349941740700473" fill="#fff817" stroke="none" /><path d="M 107.407793817531 119.65005319985036 l 3.8000112284519414 10.079981251961588 a31.77246988281972,31.77246988281972 0 0,0 -0.5120070708137486,0.18801608843971238 l -3.626415005984066 -10.143728189410021" fill="#ff6109" stroke="none" /><path d="M 105.69591212413111 120.21278271476187 l 17.08773637239333 60.63834814428561 a84.0,84.0 0 0,0 -1.3912743962612195,0.3791980234234318 l -16.044280575197412 -60.92274666185318" fill="#4dd2ff" stroke="none" /><path d="M 105.3480935250658 120.30758222061773 l 3.0226633653070984 11.477545134266833 a32.868889422734625,32.868889422734625 0 0,0 -0.5468674277077716,0.13901156161487246 l -2.8251906443739294 -11.527741927716976" fill="#ff710a" stroke="none" /><path d="M 104.9986988182912 120.39639698878246 l 7.660234642574929 31.256371403187117 a53.18136025828117,53.18136025828117 0 0,0 -0.8885537778574618,0.20969627216786021 l -7.122548710977588 -31.3832638190012" fill="#88ff25" stroke="none" /><path d="M 104.64783097203109 120.47920084513623 l 6.664089007082553 29.36320577214731 a51.109930845350405,51.109930845350405 0 0,0 -0.8572780251299673,0.18683975551828674 l -6.15904856533345 -29.473276985799316" fill="#a0ff22" stroke="none" /><path d="M 103.94208987418118 120.62667999033965 l 2.0321049054817246 10.632831551278967 a31.82527399859959,31.82527399859959 0 0,0 -0.5374913944059018,0.09794883684115165 l -1.8492787775247657 -10.666148562051482" fill="#ff6209" stroke="none" /><path d="M 103.58742460773223 120.69131181640829 l 2.968956222384832 17.12415052130218 a38.379621173277954,38.379621173277954 0 0,0 -0.6501187940778862,0.10697680016629717 l -2.6745599252538734 -17.17259331996415" fill="#ffbe11" stroke="none" /><path d="M 103.2317021107853 120.74984581791261 l 1.0481271196287028 6.729727983679643 a27.810859651558093,27.810859651558093 0 0,0 -0.4723540680561411,0.06941978159857583 l -0.9324479459648761 -6.746728838577101" fill="#ff2703" stroke="none" /><path d="M 102.875027216393 120.80226474461374 l 1.4908873362510418 10.787318080416675 a31.889856583880167,31.889856583880167 0 0,0 -0.5429205231171255,0.07029193136505461 l -1.3054889912431409 -10.811321607982125" fill="#ff6309" stroke="none" /><path d="M 102.51750503828377 120.84855314841334 l 1.355928300532827 11.229031445501324 a32.31060072499438,32.31060072499438 0 0,0 -0.5512251541655558,0.06176592826989597 l -1.1629672447664718 -11.25065313427819" fill="#ff6909" stroke="none" /><line stroke="#e1ed5e" stroke-width="0.3" x1="101.45913802915013" x2="101.54496967792366" y1="184.9874750549273" y2="189.98673829345242" /><path d="M 101.47630435890484 185.9873277026323 a86.0,86.0 0 0,1 -42.54439059252881,-10.42667462771756" fill="none" id="id91" stroke="none" /><text fill="#e1ed5e" style="font-size:6.75px; font-family:Arial;" text-anchor="middle"><textPath startOffset="22.145653131862474" xlink:href="#id91">July</textPath></text><line stroke="#e1ed5e" stroke-width="0.3" x1="58.13341422392154" x2="55.67067388415222" y1="173.97424548756322" y2="178.32567169271397" /><path d="M 57.64086615596768 174.84453072859336 a86.0,86.0 0 0,1 -31.369924170532247,-30.572349798747897" fill="none" id="id92" stroke="none" /><text fill="#e1ed5e" style="font-size:6.75px; font-family:Arial;" text-anchor="middle"><textPath startOffset="22.145653131862474" xlink:href="#id92">August</textPath></text><line stroke="#e1ed5e" stroke-width="0.3" x1="26.387840678322732" x2="22.057713659400548" y1="142.50000000000003" y2="145.00000000000006" /><path d="M 25.521815274538298 143.00000000000003 a86.0,86.0 0 0,1 -11.493303480769221,-40.785679425670985" fill="none" id="id93" stroke="none" /><text fill="#e1ed5e" style="font-size:6.75px; font-family:Arial;" text-anchor="middle"><textPath startOffset="21.40746469413373" xlink:href="#id93">September</textPath></text><line stroke="#e1ed5e" stroke-width="0.3" x1="15.003131293944662" x2="10.003315487706104" y1="100.72959589197737" y2="100.7725132973878" /><path d="M 14.003168132696942 100.73817937305945 a86.0,86.0 0 0,1 10.791469493833604,-42.45332614584628" fill="none" id="id94" stroke="none" /><text fill="#e1ed5e" style="font-size:6.75px; font-family:Arial;" text-anchor="middle"><textPath startOffset="22.145653131862435" xlink:href="#id94">October</textPath></text><line stroke="#e1ed5e" stroke-width="0.3" x1="26.387840678322718" x2="22.05771365940052" y1="57.49999999999999" y2="54.99999999999999" /><path d="M 25.521815274538284 56.99999999999999 a86.0,86.0 0 0,1 29.574782752854787,-30.34633250058573" fill="none" id="id95" stroke="none" /><text fill="#e1ed5e" style="font-size:6.75px; font-family:Arial;" text-anchor="middle"><textPath startOffset="21.40746469413373" xlink:href="#id95">November</textPath></text><line stroke="#e1ed5e" stroke-width="0.3" x1="56.869717070023135" x2="54.33264160355391" y1="26.7553504044142" y2="22.446841604673864" /><path d="M 56.362301976729285 25.89364864446614 a86.0,86.0 0 0,1 42.16139366436587,-11.88097634709845" fill="none" id="id96" stroke="none" /><text fill="#e1ed5e" style="font-size:6.75px; font-family:Arial;" text-anchor="middle"><textPath startOffset="22.145653131862474" xlink:href="#id96">December</textPath></text></svg>