<?xml version="1.0" encoding="utf-8" ?>
<svg baseProfile="full" height="200mm" version="1.1" viewBox="0,0,200,200" width="200mm" xmlns="http://www.w3.org/2000/svg" xmlns:ev="http://www.w3.org/2001/xml-events" xmlns:xlink="http://www.w3.org/1999/xlink"><defs /><rect fill="#1a1a1a" height="200" width="200" x="0" y="0" /><text alignment-baseline="middle" fill="#e1ed5e" style="dominant-baseline: central; font-size:9.0px; font-family:Arial;" text-anchor="middle" x="100.0" y="100.0">2023</text><line stroke="#e1ed5e" stroke-width="0.3" x1="100.0" x2="100.0" y1="15.0" y2="10.0" /><path d="M 100.0 14.0 a86.0,86.0 0 0,1 42.46469731375804,11.215312516191453" fill="none" id="id73" stroke="none" /><text fill="#e1ed5e" style="font-size:6.75px; font-family:Arial;" text-anchor="middle"><textPath startOffset="22.20632615414155" xlink:href="#id73">January</textPath></text><path d="M 110.36928655335952 81.73862282372117 l 17.9513524961967 -31.61417297809886 a57.355288329648324,57.355288329648324 0 0,0 0.8543295999955818,0.49488284747748984 l -18.49287882865761 31.30048597323132" fill="#67ff28" stroke="none" /><line stroke="#e1ed5e" stroke-width="0.3" x1="143.23703022742887" x2="145.7803849466894" y1="26.81831364943548" y2="22.513508569990506" /><path d="M 143.74570117128098 25.957352633546492 a86.0,86.0 0 0,1 28.547481713284135,27.462654790039103" fill="none" id="id74" stroke="none" /><text fill="#e1ed5e" style="font-size:6.75px; font-family:Arial;" text-anchor="middle"><textPath startOffset="19.985693538727396" xlink:href="#id74">February</textPath></text><path d="M 110.68208982089419 81.91981866633111 l 13.262724625707012 -22.44808555553089 a47.07328919806187,47.07328919806187 0 0,0 0.6940798096965467,0.4181753192301722 l -13.647166501621195 22.216463626842103" fill="#e5ff1a" stroke="none" /><path d="M 111.90073688211348 82.69761687909136 l 14.880856059181815 -21.635153793714764 a47.258708207598076,47.258708207598076 0 0,0 0.6662777087510631,0.4667701139834401 l -15.251064907516529 21.375798836967387" fill="#e2ff1b" stroke="none" /><path d="M 117.04232023915458 87.72973835380427 l 24.010246359219803 -17.287083031122553 a50.58606377934302,50.58606377934302 0 0,0 0.5026987202164184,0.7110316895327522 l -24.304257699240104 16.871224841258005" fill="#b8ff1f" stroke="none" /><line stroke="#e1ed5e" stroke-width="0.3" x1="172.23445277983987" x2="176.4835382374775" y1="55.19839476539836" y2="52.563006222186495" /><path d="M 173.08426987136738 54.67131705675599 a86.0,86.0 0 0,1 12.851231095245387,41.99856678651699" fill="none" id="id75" stroke="none" /><text fill="#e1ed5e" style="font-size:6.75px; font-family:Arial;" text-anchor="middle"><textPath startOffset="22.20632615414155" xlink:href="#id75">March</textPath></text><path d="M 118.89224826269711 90.83032412892265 l 25.848650103607383 -12.546084502974411 a49.73250682649352,49.73250682649352 0 0,0 0.3671722706265117,0.77335844254286 l -26.060780568075653 12.09928364479101" fill="#c3ff1e" stroke="none" /><line stroke="#e1ed5e" stroke-width="0.3" x1="184.98032266829074" x2="189.97916517819016" y1="98.17113171792111" y2="98.06355123074" /><path d="M 185.9800911702706 98.14961562048488 a86.0,86.0 0 0,1 -9.607161424134198,41.387399972396054" fill="none" id="id76" stroke="none" /><text fill="#e1ed5e" style="font-size:6.75px; font-family:Arial;" text-anchor="middle"><textPath startOffset="21.466115282336823" xlink:href="#id76">April</textPath></text><line stroke="#e1ed5e" stroke-width="0.3" x1="174.80103733775053" x2="179.2010983576182" y1="140.37084112569926" y2="142.7455964860345" /><path d="M 175.68104954172406 140.8457921977663 a86.0,86.0 0 0,1 -30.038265399797805,32.042727171017184" fill="none" id="id77" stroke="none" /><text fill="#e1ed5e" style="font-size:6.75px; font-family:Arial;" text-anchor="middle"><textPath startOffset="22.206326154141568" xlink:href="#id77">May</textPath></text><path d="M 116.93607887273984 112.41649034213515 l 26.27332352924799 19.261983267082226 a53.577776606973835,53.577776606973835 0 0,0 -0.5516947879421595,0.7390853251222588 l -25.937867474610737 -19.7113814717138" fill="#93ff23" stroke="none" /><line stroke="#e1ed5e" stroke-width="0.3" x1="143.8653032363475" x2="146.44561519142675" y1="172.8068346515853" y2="177.08958963109032" /><path d="M 144.38136562736335 173.6633856474863 a86.0,86.0 0 0,1 -40.68145358897372,12.25698825130547" fill="none" id="id78" stroke="none" /><text fill="#e1ed5e" style="font-size:6.75px; font-family:Arial;" text-anchor="middle"><textPath startOffset="21.466115282336833" xlink:href="#id78">June</textPath></text><path d="M 109.57404056367764 118.69057910512821 l 13.085331494224327 25.545371547462796 a49.70177534250557,49.70177534250557 0 0,0 -0.7648064039600001,0.3834898080660471 l -12.643671182581567 -25.766829196438145" fill="#c3ff1e" stroke="none" /><path d="M 103.06178313531738 120.77559828337769 l 3.0645059984745466 20.794074154670287 a42.01867543316213,42.01867543316213 0 0,0 -0.7164612528007467,0.09929500122837984 l -2.7061161544869696 -20.84374372139127" fill="#ffd513" stroke="none" /><path d="M 102.70371172650421 120.8252237178851 l 3.459082793722106 26.643436995071117 a47.86704279752702,47.86704279752702 0 0,0 -0.8180080476027803,0.09904938267845409 l -2.999947323067945 -26.69903190647492" fill="#dbff1b" stroke="none" /><line stroke="#e1ed5e" stroke-width="0.3" x1="102.19456741930631" x2="102.32365962044197" y1="184.97166512339345" y2="189.96999836594603" /><path d="M 102.22038585953345 185.97133177190398 a86.0,86.0 0 0,1 -42.740103519485714,-10.115201625700543" fill="none" id="id79" stroke="none" /><text fill="#e1ed5e" style="font-size:6.75px; font-family:Arial;" text-anchor="middle"><textPath startOffset="22.20632615414155" xlink:href="#id79">July</textPath></text><path d="M 90.7491055286396 118.85261126421891 l -8.028207219319713 16.360868705507265 a39.224437877618726,39.224437877618726 0 0,0 -0.6035820868329909,-0.30264858849664356 l 8.308643213835463 -16.22025227610132" fill="#ffae10" stroke="none" /><path d="M 90.10565033884886 118.52300852407294 l -15.62039383994058 29.242618075510123 a54.15309058934031,54.15309058934031 0 0,0 -0.8184264580889339,-0.44627136012312346 l 16.121443109898152 -28.969406063627233" fill="#8cff24" stroke="none" /><line stroke="#e1ed5e" stroke-width="0.3" x1="58.666819895761336" x2="56.23545636021788" y1="174.27360380694188" y2="178.64263932499728" /><path d="M 58.180547188652646 175.14741091055294 a86.0,86.0 0 0,1 -31.652253787137756,-30.449443065178592" fill="none" id="id80" stroke="none" /><text fill="#e1ed5e" style="font-size:6.75px; font-family:Arial;" text-anchor="middle"><textPath startOffset="22.20632615414155" xlink:href="#id80">August</textPath></text><path d="M 89.7882731507175 118.34994917583269 l -13.967910063968777 25.099617679691285 a49.72443766589333,49.72443766589333 0 0,0 -0.7443303949725303,-0.42265022409543157 l 14.397889225862516 -24.85546428980122" fill="#c3ff1e" stroke="none" /><path d="M 88.54995079064634 117.60387380957326 l -10.586015439403843 16.2754654180197 a40.415316053478286,40.415316053478286 0 0,0 -0.5799122516825715,-0.3843342187666391 l 10.864602389826377 -16.09083317816174" fill="#ffbf11" stroke="none" /><path d="M 88.24862548938628 117.40417183066458 l -12.601115953350545 18.66266683205113 a43.51850919918827,43.51850919918827 0 0,0 -0.6172232550692212,-0.4245317829787283 l 12.920496093042656 -18.442994259707298" fill="#ffea16" stroke="none" /><path d="M 87.95078237400918 117.19931262002967 l -14.839918079331422 21.182818521884165 a46.863777162903844,46.863777162903844 0 0,0 -0.6567013777534296,-0.4685389965240712 l 15.202346784933738 -20.924235263515875" fill="#e8ff1a" stroke="none" /><path d="M 87.65650970185807 116.9893568818739 l -15.541382442706961 21.390877813269995 a47.44057907559376,47.44057907559376 0 0,0 -0.6565212043530534,-0.4856786917750978 l 15.90728861747858 -21.12018917275513" fill="#e0ff1b" stroke="none" /><path d="M 86.79598089348748 116.32954008644616 l -14.75924778580344 18.252906665758804 a44.47347432638905,44.47347432638905 0 0,0 -0.5911369129474314,-0.48646543495959155 l 15.071254827295562 -17.996146111942032" fill="#fff717" stroke="none" /><path d="M 86.51685102203217 116.09983520530335 l -12.70511624742818 15.170808998851935 a40.78821428376776,40.78821428376776 0 0,0 -0.5343926618208255,-0.45542101980492217 l 12.964374385826062 -14.949863588824062" fill="#ffc412" stroke="none" /><path d="M 86.24171649860922 115.8653595955263 l -12.83738442103711 14.803425157300515 a40.59438274509519,40.59438274509519 0 0,0 -0.5239722796235675,-0.46234461555547984 l 13.090299053567264 -14.580257399972746" fill="#ffc111" stroke="none" /><path d="M 85.97065885151581 115.62618273729859 l -17.79536064492425 19.820856472918727 a47.63721479064512,47.63721479064512 0 0,0 -0.6054473376079713,-0.5530617878870585 l 18.133907531999075 -19.51160191844509" fill="#ddff1b" stroke="none" /><path d="M 85.44109423537348 115.13401014063109 l -18.401140834980414 19.1280207797209 a47.542101706123766,47.542101706123766 0 0,0 -0.5848811542824719,-0.5724293106303866 l 18.72767194163868 -18.80844136616794" fill="#dfff1b" stroke="none" /><path d="M 84.9287848128048 114.62390073753433 l -24.214640122175048 23.495948345470183 a54.74030801429431,54.74030801429431 0 0,0 -0.6503499154792561,-0.6818892863153011 l 24.615496589033263 -23.07565194257238" fill="#85ff25" stroke="none" /><path d="M 84.43433777217949 114.09645910891817 l -14.676580007204294 13.291295089299235 a40.80051832298081,40.80051832298081 0 0,0 -0.4669544527947266,-0.5246282778650465 l 14.903193309647358 -13.036692641693323" fill="#ffc412" stroke="none" /><path d="M 84.19399662182784 113.82643327865904 l -24.220935807143622 21.187465602255358 a53.18015584207954,53.18015584207954 0 0,0 -0.5967762888752073,-0.6941856469748922 l 24.582054605589608 -20.767402856118935" fill="#98ff23" stroke="none" /><path d="M 83.95833913139862 113.55231037782056 l -24.983803596056447 21.106808299070266 a53.70608198332574,53.70608198332574 0 0,0 -0.5905213885712186,-0.7113210537232144 l 25.343420984521202 -20.67362598823329" fill="#92ff23" stroke="none" /><path d="M 83.28015986056508 112.70617746262583 l -24.44878960372218 18.579762537238867 a51.707505418500844,51.707505418500844 0 0,0 -0.5324364511454118,-0.7132856358305888 l 24.76498732156268 -18.15616402189897" fill="#aaff21" stroke="none" /><path d="M 83.06392112726016 112.41649034213515 l -17.135430387679058 12.56264259960467 a42.24718719398869,42.24718719398869 0 0,0 -0.4249266500314699,-0.5901859517586336 l 17.349136830086135 -12.265823042394898" fill="#ffd814" stroke="none" /><path d="M 82.6465618267979 111.8261652097733 l -27.193318626595442 18.531928685852005 a53.90758208597294,53.90758208597294 0 0,0 -0.5159645997188905,-0.7712970695835448 l 27.508286331725063 -18.06109470206264" fill="#8fff24" stroke="none" /><path d="M 82.24976979558568 111.22182372390057 l -27.664182133541942 17.489495730105116 a53.729030447160305,53.729030447160305 0 0,0 -0.4874895322162408,-0.7859883459788126 l 27.961136305426137 -17.01071105276104" fill="#91ff24" stroke="none" /><line stroke="#e1ed5e" stroke-width="0.3" x1="26.63291911575756" x2="22.317208475507996" y1="142.92168965132927" y2="145.44649492493687" /><path d="M 25.769776987707644 143.4266507060508 a86.0,86.0 0 0,1 -11.730757126820373,-40.83630448921669" fill="none" id="id81" stroke="none" /><text fill="#e1ed5e" style="font-size:6.75px; font-family:Arial;" text-anchor="middle"><textPath startOffset="21.46611528233685" xlink:href="#id81">September</textPath></text><path d="M 81.51974371655577 109.97397251340807 l -17.466799913878123 9.427000338425502 a40.84836100568829,40.84836100568829 0 0,0 -0.3286299111921622,-0.6216439445599697 l 17.626482333295172 -9.124941378779408" fill="#ffc512" stroke="none" /><path d="M 81.35079622478065 109.6543875284942 l -29.6211950819196 15.334407829141464 a54.355048516702425,54.355048516702425 0 0,0 -0.4229892539253105,-0.8345979269955675 l 29.880763005631174 -14.82225569044321" fill="#8aff24" stroke="none" /><path d="M 80.0844068197444 106.66101706037122 l -30.25612241103415 10.119535267489935 a52.903572486188054,52.903572486188054 0 0,0 -0.28141614264908354,-0.8661098293264509 l 30.425830804699483 -9.597226538185682" fill="#9bff22" stroke="none" /><path d="M 79.97269907076064 106.31721596034903 l -35.83591891564396 11.30373182724617 a58.57642130047653,58.57642130047653 0 0,0 -0.2950389112377169,-0.9642042327620207 l 36.025184599387806 -10.6852006219321" fill="#59ff2a" stroke="none" /><path d="M 79.76711848015287 105.62410040840567 l -25.694001376614562 7.142118807647016 a47.66817518699051,47.66817518699051 0 0,0 -0.2129449148366121,-0.7924472455597709 l 25.81313436779295 -6.698780628911706" fill="#ddff1b" stroke="none" /><path d="M 79.67330655649465 105.27499134158121 l -31.379489258480845 8.1433084334046 a53.41891143090208,53.41891143090208 0 0,0 -0.22331314410988418,-0.8920250042149426 l 31.51501371688579 -7.601955589792266" fill="#95ff23" stroke="none" /><path d="M 79.58551787078972 104.9243191809786 l -38.74250567084267 9.345349178420868 a60.853698660499354,60.853698660499354 0 0,0 -0.23686413759722622,-1.020404505458424 l 38.89763037437045 -8.677076015613869" fill="#40ff2d" stroke="none" /><path d="M 79.35854240842038 103.8639653848113 l -30.30146204089416 5.67226417590544 a51.82779886234192,51.82779886234192 0 0,0 -0.15660277254974014,-0.8783115145656176 l 30.39461125578309 -5.149833910606608" fill="#a8ff21" stroke="none" /><path d="M 79.23777060512086 103.15116336523772 l -35.2745422466686 5.353752872061429 a56.678508944841205,56.678508944841205 0 0,0 -0.1380956998631896,-0.9658410032052759 l 35.361471997548385 -4.745766396875753" fill="#6fff28" stroke="none" /><path d="M 79.18660465613746 102.79330883721812 l -41.47941435335189 5.5668386998672155 a62.851302347805074,62.851302347805074 0 0,0 -0.13467684512005998,-1.073506965336752 l 41.5690927077188 -4.852013980243054" fill="#30ff36" stroke="none" /><path d="M 79.10278846688536 102.07522291339032 l -42.32487447693018 4.203122946892195 a63.53306057638678,63.53306057638678 0 0,0 -0.0987043690979832,-1.0891944880938382 l 42.39095344230524 -3.4739470702497908" fill="#31ff3f" stroke="none" /><path d="M 79.04373962182676 101.35467743843564 l -38.98070250788644 2.5198330841892562 a60.062062500340645,60.062062500340645 0 0,0 -0.05781302173109668,-1.0322903396000773 l 39.018301880505064 -1.8484710282537413" fill="#48ff2c" stroke="none" /><line stroke="#e1ed5e" stroke-width="0.3" x1="15.007084014347285" x2="10.007500721073583" y1="101.09737516637583" y2="101.16192664675087" /><path d="M 14.007167355692545 101.11028546245083 a86.0,86.0 0 0,1 10.666146001902534,-42.60595125391555" fill="none" id="id82" stroke="none" /><text fill="#e1ed5e" style="font-size:6.75px; font-family:Arial;" text-anchor="middle"><textPath startOffset="22.20632615414155" xlink:href="#id82">October</textPath></text><path d="M 79.00486145842228 99.54816195383935 l -46.897574939004954 -1.0092864397226418 a67.90843414863679,67.90843414863679 0 0,0 0.03520989428805067,-1.168444976167924 l 46.87325335026126 1.8164015633155601" fill="#37ff77" stroke="none" /><path d="M 79.01574976396665 99.18683210126434 l -32.75074684386071 -1.2691354560438075 a53.77532797145499,53.77532797145499 0 0,0 0.04380484893579995,-0.9246511270570204 l 32.724048386691415 1.832697689723837" fill="#91ff24" stroke="none" /><path d="M 79.05617556472873 98.46500227214037 l -31.516245732635195 -2.3098630214254987 a52.60077866536828,52.60077866536828 0 0,0 0.07395548293292305,-0.9024442141507715 l 31.471815765882774 2.8520211527840487" fill="#9fff22" stroke="none" /><path d="M 79.26566170972629 96.67025291283419 l -39.5535070306419 -6.35193527657707 a61.06029206309987,61.06029206309987 0 0,0 0.17558654155819534,-1.0363217076607165 l 39.43830862756348 7.031842772553614" fill="#3dff2e" stroke="none" /><path d="M 79.3925641242962 95.95851677861259 l -38.18179971117304 -7.488127286957305 a59.90914904556264,59.90914904556264 0 0,0 0.20717355165820428,-1.0102518140747045 l 38.047246863599845 8.144254757195412" fill="#4aff2c" stroke="none" /><path d="M 79.46518482838121 95.60439243477599 l -39.26544864295095 -8.405018582558975 a61.15494732290631,61.15494732290631 0 0,0 0.22920179128130674,-1.0274666883592203 l 39.11495246466761 9.079663440468156" fill="#3cff2e" stroke="none" /><path d="M 79.54389044137918 95.25157060432595 l -31.678894318448346 -7.353548463020331 a53.5211780265938,53.5211780265938 0 0,0 0.21604001847889373,-0.8956253513110306 l 31.547621499708637 7.8977590459907585" fill="#94ff23" stroke="none" /><path d="M 79.62865764111835 94.90015583598534 l -41.73960287332926 -10.449260847507713 a64.0276829527514,64.0276829527514 0 0,0 0.2768546892359437,-1.066834053761514 l 41.55355185222301 11.16619132681809" fill="#32ff45" stroke="none" /><path d="M 79.71946130924805 94.55025226153421 l -38.143384295184404 -10.249817594584085 a60.49653815478473,60.49653815478473 0 0,0 0.2788983442057183,-1.003345734361723 l 37.961299180412325 10.90487463236475" fill="#44ff2d" stroke="none" /><path d="M 79.91906864156998 93.8553929516997 l -37.30812380923564 -11.415992437066556 a60.01565051986723,60.01565051986723 0 0,0 0.31077966105330984,-0.9852564537397476 l 37.10608866441413 12.056499057232719" fill="#49ff2c" stroke="none" /><path d="M 80.14247586403 93.16781622104843 l -6.458261720811957 -2.2220308366252395 a27.82982909694075,27.82982909694075 0 0,0 0.15975238853455845,-0.4516415148751986 l 6.419056251467589 2.332869977927049" fill="#ff0000" stroke="none" /><path d="M 80.803312248108 91.48605970444005 l -35.29481179863636 -15.653633808103057 a59.6103611909983,59.6103611909983 0 0,0 0.4240785641387089,-0.9344009023357808 l 35.020130917534296 16.25885671928091" fill="#4dff2c" stroke="none" /><path d="M 80.95270993114464 91.15688171328213 l -33.7877628169761 -15.686703050878837 a58.251651893341375,58.251651893341375 0 0,0 0.4300686343450096,-0.90583422510658 l 33.51273598878934 16.265979691625947" fill="#5dff2a" stroke="none" /><path d="M 81.10775173730289 90.83032412892265 l -35.02534048625779 -17.000148159563462 a59.93301315882702,59.93301315882702 0 0,0 0.4584589741665197,-0.9242253163738904 l 34.72752149913786 17.600533064436316" fill="#4aff2c" stroke="none" /><path d="M 81.26839172434947 90.50648371742162 l -29.696083199290552 -15.050509557566347 a54.292269302671194,54.292269302671194 0 0,0 0.42966014335403174,-0.8299666388831088 l 29.432613622776408 15.559448918709792" fill="#8bff24" stroke="none" /><path d="M 81.43458229118936 90.18545643968196 l -34.61723256126278 -18.300279704934223 a60.15677498823645,60.15677498823645 0 0,0 0.49183004964842897,-0.9112863859594038 l 34.29709441239588 18.8934470742261" fill="#47ff2c" stroke="none" /><path d="M 81.6062741919709 89.86733742301443 l -33.91994933197785 -18.6856868910892 a59.726190843869055,59.726190843869055 0 0,0 0.5038113487000665,-0.8962241725564392 l 33.593280341985356 19.266794573580423" fill="#4cff2c" stroke="none" /><line stroke="#e1ed5e" stroke-width="0.3" x1="26.266209847984243" x2="21.928928074336255" y1="57.711370442889674" y2="55.22380399835377" /><path d="M 25.398753493254645 57.213857153982495 a86.0,86.0 0 0,1 29.58750427330803,-30.492523968695096" fill="none" id="id83" stroke="none" /><text fill="#e1ed5e" style="font-size:6.75px; font-family:Arial;" text-anchor="middle"><textPath startOffset="21.46611528233685" xlink:href="#id83">November</textPath></text><path d="M 82.15384107792192 88.93136811851018 l -32.203632710825644 -19.97349442416187 a58.89478116160304,58.89478116160304 0 0,0 0.5417545926454692,-0.8569256629183007 l 31.855050521934213 20.524867734794384" fill="#55ff2b" stroke="none" /><path d="M 82.34701348167596 88.62581576622439 l -38.4896291770422 -24.799663948927435 a66.78727864992578,66.78727864992578 0 0,0 0.6309914666396863,-0.9610432935284571 l 38.057041075044594 25.45852530643356" fill="#35ff69" stroke="none" /><path d="M 82.54541684631803 88.32363383020206 l -38.07430764444262 -25.47007589947909 a66.80805244636457,66.80805244636457 0 0,0 0.6476421416380707,-0.9503349280110361 l 37.630241037135804 26.121688850760542" fill="#35ff69" stroke="none" /><path d="M 82.7489923806493 88.02491185347247 l -42.42565252220981 -29.450507462388572 a72.64560370183983,72.64560370183983 0 0,0 0.7219152723477448,-1.021097956199153 l 41.91242463005818 30.176431918919512" fill="#3dffb1" stroke="none" /><path d="M 82.95767976084542 87.72973835380427 l -42.262092695550535 -30.42818863940719 a73.07647398665404,73.07647398665404 0 0,0 0.743770220791565,-1.0145017452939173 l 41.732059862245336 31.151152828372606" fill="#3effb6" stroke="none" /><path d="M 83.6137871275137 86.86637796730984 l -40.92785838061633 -32.8038593640536 a73.45171856860739,73.45171856860739 0 0,0 0.7992299263098679,-0.9797613876456622 l 40.35712996223007 33.503504921307346" fill="#3fffba" stroke="none" /><path d="M 83.84228863543731 86.58626213691792 l -34.884507319616574 -28.960267089210337 a66.33901102594521,66.33901102594521 0 0,0 0.7369612944816029,-0.8723297231081034 l 34.380835411647844 29.556455761947557" fill="#35ff63" stroke="none" /><path d="M 84.07557802195018 86.31012108654704 l -33.37486363543373 -28.691643725083345 a65.01240668642095,65.01240668642095 0 0,0 0.7368324647502091,-0.8423268815801382 l 32.87603930710567 29.261886162866425" fill="#33ff52" stroke="none" /><path d="M 84.31358615837235 86.03803664274999 l -32.83153886251846 -29.22227777416899 a64.95283224539405,64.95283224539405 0 0,0 0.750534181159242,-0.82875858852864 l 32.32366104074317 29.783089149967186" fill="#33ff51" stroke="none" /><path d="M 85.05521093208273 85.24692304244772 l -36.38454427475862 -35.91780247359418 a72.12654493131721,72.12654493131721 0 0,0 0.8798208890012955,-0.8760426584977662 l 35.760887585590005 36.538780982742054" fill="#3dffab" stroke="none" /><path d="M 85.31137513191541 84.99185889309783 l -29.080303766353616 -29.7128768878367 a62.5754629570753,62.5754629570753 0 0,0 0.7762836494775214,-0.7467842557486382 l 28.564536873263666 30.20904423034765" fill="#30ff32" stroke="none" /><path d="M 85.83668400450813 84.49514656593479 l -24.069858586148218 -26.34973544865428 a56.68846663239037,56.68846663239037 0 0,0 0.7261226025783531,-0.6519200420510447 l 23.612724995973892 26.760154499474602" fill="#6eff28" stroke="none" /><path d="M 86.10567301691215 84.25364557470407 l -26.936434382403704 -30.526893692320026 a61.711948316676626,61.711948316676626 0 0,0 0.8025674182321044,-0.6959785564602115 l 26.40697316552483 30.98603724219992" fill="#36ff2e" stroke="none" /><path d="M 86.37877921826538 84.01681056812374 l -32.31203291849694 -37.915055584290286 a70.81585000063586,70.81585000063586 0 0,0 0.934575194833829,-0.7826798487295702 l 31.654600186704 38.46563659041367" fill="#3bff9b" stroke="none" /><path d="M 87.80319425747018 82.90503203632743 l -21.60868056294819 -30.286593863895845 a58.20501100051052,58.20501100051052 0 0,0 0.8206043465448413,-0.5748857861236829 l 21.08414507681969 30.654064492783473" fill="#5dff2a" stroke="none" /><path d="M 88.70189139769569 82.29822771554957 l -21.202788804985733 -33.2203338127412 a60.41000928366783,60.41000928366783 0 0,0 0.8813557071205174,-0.5519048629431424 l 20.627813945492974 33.58038301700727" fill="#44ff2d" stroke="none" /><line stroke="#e1ed5e" stroke-width="0.3" x1="56.762969772571076" x2="54.21961505331055" y1="26.818313649435495" y2="22.513508569990535" /><path d="M 56.25429882871897 25.957352633546506 a86.0,86.0 0 0,1 42.265352541879196,-11.944610805530505" fill="none" id="id84" stroke="none" /><text fill="#e1ed5e" style="font-size:6.75px; font-family:Arial;" text-anchor="middle"><textPath startOffset="22.20632615414155" xlink:href="#id84">December</textPath></text><path d="M 89.3179101791058 81.91981866633112 l -25.166902236672893 -42.59673562711838 a70.47580069364079,70.47580069364079 0 0,0 1.0497647970997,-0.6080915281093019 l 24.42994070710787 43.023631312617724" fill="#3aff97" stroke="none" /><path d="M 89.94658935756843 81.56283822128135 l -16.829251498989976 -30.863519211284757 a56.15367013729291,56.15367013729291 0 0,0 0.8526131370900677,-0.45543640997068624 l 16.2954933153716 31.14863434775719" fill="#75ff27" stroke="none" /><path d="M 90.58718382345135 81.22770947309562 l -16.754485825573433 -33.4140250534341 a58.37927053262092,58.37927053262092 0 0,0 0.9021786047050973,-0.4426951232101275 l 16.17683595385791 33.69747533677906" fill="#5bff2a" stroke="none" /><path d="M 91.23893434514133 80.91482961587045 l -16.056067139156344 -34.976655708530416 a59.48589009663372,59.48589009663372 0 0,0 0.9342623929900008,-0.4191763026395211 l 15.45162262769957 35.24785234168646" fill="#4fff2b" stroke="none" /><path d="M 91.56875222667455 80.76684994638697 l -20.43830354517582 -46.62334324574286 a71.90638847153767,71.90638847153767 0 0,0 1.1378886098919856,-0.48718451877245955 l 19.632731177493525 46.968247292478104" fill="#3cffa8" stroke="none" /><path d="M 92.23578459929587 80.48803036053334 l -23.29264620211241 -58.53590891839998 a84.0,84.0 0 0,0 1.3480673400012946,-0.5230291844377941 l 22.28159569711144 58.92818080672833" fill="#4dd2ff" stroke="none" /><path d="M 92.91201910852362 80.23233633223022 l -13.59628846664811 -37.91867693405911 a61.282565962185856,61.282565962185856 0 0,0 0.9960401238129906,-0.3474988414378508 l 12.941566338771834 38.14709662866917" fill="#3bff2e" stroke="none" /><path d="M 93.25333710446033 80.11325718540243 l -12.606671743895145 -37.15994745856396 a60.24015631443838,60.24015631443838 0 0,0 0.9848324025499566,-0.32468375920347026 l 11.965156519102779 37.37144494202666" fill="#46ff2c" stroke="none" /><path d="M 94.28887869178378 79.79150937346287 l -10.757265100562247 -38.06399465533057 a60.55485357784565,60.55485357784565 0 0,0 1.005505012397295,-0.274842503060077 l 10.100462198941228 38.243523699216944" fill="#43ff2d" stroke="none" /><path d="M 94.63758080256005 79.69619591428918 l -10.10581069645752 -38.26377479144329 a60.57579905855251,60.57579905855251 0 0,0 1.0104363795721203,-0.25758273145741606 l 9.4456654282004 38.432060519069566" fill="#43ff2d" stroke="none" /><path d="M 96.04723909329186 79.375362276772 l -3.9100648642197657 -20.401859156721784 a41.773166929794755,41.773166929794755 0 0,0 0.7073686651056327,-0.12926710216133605 l 3.55830107801124 20.466141740233855" fill="#ffd213" stroke="none" /><path d="M 97.11714578562143 79.19881850522333 l -3.665593790852332 -26.449024494317715 a47.70182530353597,47.70182530353597 0 0,0 0.8143048473623253,-0.10572013989323704 l 3.209774214982149 26.50820295737509" fill="#ddff1b" stroke="none" /><path d="M 97.83486435360386 79.11191278185805 l -3.883474012671918 -37.46570983721029 a58.666441085044575,58.666441085044575 0 0,0 1.0053608585499312,-0.09547112758636377 l 3.2379880270317503 37.52700650931183" fill="#58ff2a" stroke="none" /><path d="M 98.19473922651362 79.07773832637324 l -4.307755304540602 -49.925188112016635 a71.11068911703416,71.11068911703416 0 0,0 1.220428095189724,-0.09472870874508597 l 3.4477370199885433 49.99194208295019" fill="#3bff9e" stroke="none" /><path d="M 99.27714615592234 79.0124445844662 l -1.3536465163227889 -39.302179143307605 a60.32548339567864,60.32548339567864 0 0,0 1.0380963294377068,-0.02681096550688099 l 0.676923551690203 39.31965690095685" fill="#45ff2d" stroke="none" /></svg>