<?xml version="1.0" encoding="utf-8" ?>
<svg baseProfile="full" height="200mm" version="1.1" viewBox="0,0,200,200" width="200mm" xmlns="http://www.w3.org/2000/svg" xmlns:ev="http://www.w3.org/2001/xml-events" xmlns:xlink="http://www.w3.org/1999/xlink"><defs /><rect fill="#1a1a1a" height="200" width="200" x="0" y="0" /><text alignment-baseline="middle" fill="#e1ed5e" style="dominant-baseline: central; font-size:9.0px; font-family:Arial;" text-anchor="middle" x="100.0" y="100.0">2021</text><line stroke="#e1ed5e" stroke-width="0.3" x1="100.0" x2="100.0" y1="15.0" y2="10.0" /><path d="M 100.0 14.0 a86.0,86.0 0 0,1 42.46469731375804,11.215312516191453" fill="none" id="id49" stroke="none" /><text fill="#e1ed5e" style="font-size:6.75px; font-family:Arial;" text-anchor="middle"><textPath startOffset="22.20632615414155" xlink:href="#id49">January</textPath></text><path d="M 100.0 79.0 l 0.0 -23.918600395016625 a44.918600395016625,44.918600395016625 0 0,0 0.7731998666210377,0.0066551753599170425 l -0.4117193873485093 23.915056596265266" fill="#f0ff19" stroke="none" /><path d="M 100.36148047927253 79.00311137660856 l 0.6003595212623108 -34.872372713752085 a55.87754019769186,55.87754019769186 0 0,0 0.9615549865844732,0.024834128439938694 l -1.200541143041652 34.85687179316979" fill="#6dff28" stroke="none" /><path d="M 101.08401301168833 79.027996857942 l 1.8678148976165203 -36.13593146874414 a57.18417161695886,57.18417161695886 0 0,0 0.9825818726222596,0.059272021871276406 l -2.4895588190783915 36.098426177492556" fill="#5eff29" stroke="none" /><path d="M 103.2404852339499 79.25152402106235 l 3.640779198395427 -23.311514877802768 a44.59410941462908,44.59410941462908 0 0,0 0.757400781259315,0.12497761856810419 l -4.041509185793617 23.24539099629504" fill="#f4ff19" stroke="none" /><path d="M 105.36241919743992 79.69619591428918 l 5.750117990031928 -21.771753538974885 a43.51828388357235,43.51828388357235 0 0,0 0.7226151165506403,0.1975180082974589 l -6.124030995806279 21.669548989851133" fill="#fffc17" stroke="none" /><path d="M 105.71112130821622 79.79150937346287 l 9.160684648612495 -32.41458198196962 a54.68416940191867,54.68416940191867 0 0,0 0.9036162722921441,0.263790368671765 l -9.717291138628067 32.25209328437915" fill="#7aff26" stroke="none" /><path d="M 107.76421540070413 80.48803036053334 l 11.549735710088067 -29.02522417122335 a52.23875850866439,52.23875850866439 0 0,0 0.8326264335965163,0.3396492282687163 l -12.04764601327297 28.822114056771056" fill="#96ff23" stroke="none" /><path d="M 108.09893153111575 80.62456947434976 l 8.995949156825567 -21.521405290401702 a44.32590806176516,44.32590806176516 0 0,0 0.7014390095056081,0.3003195772621849 l -9.36507192412149 21.363366185176726" fill="#f7ff18" stroke="none" /><path d="M 110.05341064243156 81.56283822128135 l 10.202228675570572 -18.71008230789651 a42.31085755939672,42.31085755939672 0 0,0 0.6364276511294196,0.35417129880792425 l -10.522780415772026 18.531695611528406" fill="#ffec16" stroke="none" /><line stroke="#e1ed5e" stroke-width="0.3" x1="143.23703022742887" x2="145.7803849466894" y1="26.81831364943548" y2="22.513508569990506" /><path d="M 143.74570117128098 25.957352633546492 a86.0,86.0 0 0,1 28.547481713284135,27.462654790039103" fill="none" id="id50" stroke="none" /><text fill="#e1ed5e" style="font-size:6.75px; font-family:Arial;" text-anchor="middle"><textPath startOffset="19.985693538727396" xlink:href="#id50">February</textPath></text><path d="M 110.68208982089419 81.91981866633111 l 12.173617436175153 -20.6046957499123 a44.93220525628179,44.93220525628179 0 0,0 0.6625102474209572,0.39915501119337277 l -12.526489749813747 20.39209412926031" fill="#f0ff19" stroke="none" /><path d="M 112.48926042617603 83.11751280151076 l 12.569282969245526 -16.99065850030067 a42.134553476115954,42.134553476115954 0 0,0 0.5793578274238846,0.4363603042682835 l -12.859886950427795 16.771781606526538" fill="#ffea16" stroke="none" /><path d="M 113.89432698308785 84.25364557470407 l 15.292521941988724 -17.33092008330253 a44.11324335267609,44.11324335267609 0 0,0 0.5650465601606715,0.5073043807653561 l -15.588579489745385 17.065116693767877" fill="#faff18" stroke="none" /><path d="M 114.16331599549186 84.49514656593476 l 35.29626671910913 -38.6394995651904 a73.33390269180046,73.33390269180046 0 0,0 0.9246780611116487,0.8593874827476509 l -35.956152664015626 38.02620749636811" fill="#3fffbd" stroke="none" /><path d="M 114.42810811169701 84.74124197986012 l 3.3447312716273063 -3.5372929507493827 a25.86823055111638,25.86823055111638 0 0,0 0.32090988174585644,0.30871505198294785 l -3.405124396985581 3.479194812004133" fill="#ff0000" stroke="none" /><path d="M 114.68862486808459 84.99185889309783 l 12.219347611712898 -12.485150573172035 a38.469729273536316,38.469729273536316 0 0,0 0.46926511510167424,0.4672499415654651 l -12.432448526981895 12.272964780956451" fill="#ffb911" stroke="none" /><path d="M 115.4437574822437 85.77008943001954 l 17.418958218801574 -16.049864675792726 a44.6858240629203,44.6858240629203 0 0,0 0.5163475896752662,0.570163905058229 l -17.692649449092876 15.747647983464947" fill="#f3ff19" stroke="none" /><path d="M 115.68641384162765 86.03803664274999 l 9.601173509715117 -8.54569018021856 a33.85345686653747,33.85345686653747 0 0,0 0.383685627631061,0.43861899914949265 l -9.746851000924027 8.37915562486612" fill="#ff780b" stroke="none" /><path d="M 115.9244219780498 86.31012108654704 l 15.90542608957816 -13.673548561658167 a41.97494956749736,41.97494956749736 0 0,0 0.46630048731003115,0.5519526982301904 l -16.13843719037531 13.39773691379887" fill="#ffe815" stroke="none" /><path d="M 116.15771136456269 86.58626213691792 l 15.964789140431996 -13.253578538282671 a41.749261104166635,41.749261104166635 0 0,0 0.4542747198570385,0.5568870924972311 l -16.190562352365443 12.97680727617734" fill="#ffe515" stroke="none" /><path d="M 116.38621287248628 86.86637796730983 l 18.97235020963858 -15.2064225373032 a45.3143035857533,45.3143035857533 0 0,0 0.48258852798476326,0.6128384229083355 l -19.23129281821731 14.877591720441826" fill="#ebff1a" stroke="none" /><path d="M 116.60985879189232 87.15038557335679 l 20.130477732635825 -15.573213495033432 a46.45115149273286,46.45115149273286 0 0,0 0.4838087826550125,0.636635646545951 l -20.39556245551495 15.224393072606446" fill="#dcff1b" stroke="none" /><path d="M 116.82858285166822 87.43820079747576 l 22.833964604970905 -17.044553358618458 a49.493977236880355,49.493977236880355 0 0,0 0.5037482567105167,0.6871120560294675 l -23.12397547419505 16.648978858917495" fill="#b7ff1f" stroke="none" /><path d="M 117.04232023915458 87.72973835380427 l 19.876665945549313 -14.310955807858791 a45.49255611906293,45.49255611906293 0 0,0 0.4520820169005752,0.6394379523102907 l -20.12006058225377 13.966691355216707" fill="#e9ff1a" stroke="none" /><path d="M 117.45458315368197 88.32363383020206 l 36.695340108941686 -24.547605867453367 a65.14898571354426,65.14898571354426 0 0,0 0.6155132365993172,0.9374688872766507 l -37.11244998089893 23.91231891619904" fill="#34ff5c" stroke="none" /><path d="M 117.65298651832404 88.62581576622439 l 25.37213205876952 -16.347789318287386 a51.18269869979739,51.18269869979739 0 0,0 0.470813568498041,0.7447139992408635 l -25.649773223513517 15.908627671332317" fill="#a3ff22" stroke="none" /><line stroke="#e1ed5e" stroke-width="0.3" x1="172.23445277983987" x2="176.4835382374775" y1="55.19839476539836" y2="52.563006222186495" /><path d="M 173.08426987136738 54.67131705675599 a86.0,86.0 0 0,1 12.851231095245387,41.99856678651699" fill="none" id="id51" stroke="none" /><text fill="#e1ed5e" style="font-size:6.75px; font-family:Arial;" text-anchor="middle"><textPath startOffset="22.20632615414155" xlink:href="#id51">March</textPath></text><path d="M 117.84615892207809 88.93136811851018 l 20.86229677966251 -12.939315640117915 a45.549161210870665,45.549161210870665 0 0,0 0.4075222758493585,0.6698594707287056 l -21.081934853798092 12.578288396182128" fill="#e8ff1a" stroke="none" /><path d="M 118.03404312379186 89.2402003453031 l 20.76206971661974 -12.387444625379525 a45.17668966721091,45.17668966721091 0 0,0 0.39269369705741336,0.6712408218032787 l -20.972223088147484 12.02822439122235" fill="#edff1a" stroke="none" /><path d="M 118.21658344932153 89.55222093294921 l 21.563000035399998 -12.367053406002885 a45.8577348218535,45.8577348218535 0 0,0 0.3868260624442504,0.6881204018763549 l -21.77268373913668 11.994049494191735" fill="#e4ff1a" stroke="none" /><path d="M 118.3937258080291 89.86733742301442 l 19.892463121114478 -10.958281032078746 a43.71109887704504,43.71109887704504 0 0,0 0.35737341197378525,0.662158656772535 l -20.078144632306728 10.614241391973753" fill="#ffff18" stroke="none" /><path d="M 118.89224826269711 90.83032412892265 l 25.472310091778844 -12.363421440442092 a49.31417968307967,49.31417968307967 0 0,0 0.36408378510842115,0.7668533043797543 l -25.681352070729023 11.923125720421798" fill="#b9ff1f" stroke="none" /><path d="M 119.04729006885535 91.15688171328212 l 22.391741621914033 -10.395852590704493 a45.68732152239717,45.68732152239717 0 0,0 0.32502761807603564,0.7161552723871186 l -22.567371556953415 10.008875309475311" fill="#e6ff1a" stroke="none" /><path d="M 119.196687751892 91.48605970444005 l 21.954319938596065 -9.73698023339499 a45.01668062059704,45.01668062059704 0 0,0 0.3080626293916548,0.7110510223677972 l -22.118673277830403 9.35763006644059" fill="#efff19" stroke="none" /><path d="M 119.34039704204932 91.81776055985345 l 22.57318487963495 -9.549917884844927 a45.510193944917305,45.510193944917305 0 0,0 0.2990199900000801,0.7241006238380465 l -22.73422655652123 9.159942690553576" fill="#e8ff1a" stroke="none" /><path d="M 119.47837535516314 92.15188598940014 l 22.701711891352247 -9.146842070270324 a45.47513927756962,45.47513927756962 0 0,0 0.2862907967867968,0.7285788505924332 l -22.855796238020744 8.754714214782107" fill="#e9ff1a" stroke="none" /><path d="M 119.97218684219823 93.5106431181261 l 41.38971704263146 -13.44833428865776 a64.51972394223779,64.51972394223779 0 0,0 0.3341031508336921,1.059198290061898 l -41.61507567723336 12.733885832169443" fill="#33ff54" stroke="none" /><path d="M 120.18372546131832 94.20196356495316 l 40.933125897453664 -11.758570329775702 a63.58855212304209,63.58855212304209 0 0,0 0.2931530040971835,1.0546273303052558 l -41.129465672117206 11.052231696051495" fill="#32ff49" stroke="none" /><path d="M 120.45610955862082 95.25157060432595 l 24.34564859140725 -5.65129909462525 a45.99295474315116,45.99295474315116 0 0,0 0.17237636650701213,0.7727294514421078 l -24.4393193449163 5.2313914736331775" fill="#e2ff1b" stroke="none" /><path d="M 120.53481517161879 95.60439243477599 l 37.93352908874336 -8.119912745481079 a59.7928551684555,59.7928551684555 0 0,0 0.20677139245646928,1.008290742983117 l -38.067679777114826 7.46574634633455" fill="#42ff2d" stroke="none" /><path d="M 120.6074358757038 95.95851677861258 l 45.62266692536018 -8.94741315736319 a67.49176206158366,67.49176206158366 0 0,0 0.2137697950273457,1.1419667929124369 l -45.769922444297386 8.16076828698819" fill="#37ff79" stroke="none" /><path d="M 120.78858239683441 97.02765380044208 l 52.52844575104043 -7.510503752317625 a74.06265428371987,74.06265428371987 0 0,0 0.1695823208741685,1.263585265136321 l -52.64994407097243 6.6052001451166396" fill="#40ffc5" stroke="none" /><path d="M 120.87857604477298 97.74499172005257 l 39.404677317325124 -4.255935530692987 a60.63384389286424,60.63384389286424 0 0,0 0.10314358022800742,1.038641776938606 l -39.47209802323536 3.577018223049946" fill="#39ff2e" stroke="none" /><path d="M 120.91429891909075 98.10471618934814 l 36.76101553897236 -3.3313360339580016 a57.911652133543335,57.911652133543335 0 0,0 0.08142244867184406,0.9935601092962233 l -36.8129124714637 2.6980620074540096" fill="#56ff2a" stroke="none" /><path d="M 120.94382443527127 98.46500227214037 l 41.86361496248051 -3.0682339820982087 a62.975901628145216,62.975901628145216 0 0,0 0.0699314669967816,1.0818088420402812 l -41.910227020481706 2.3471660758048922" fill="#31ff41" stroke="none" /><path d="M 120.96714384426684 98.82574320788733 l 24.712987475057634 -1.3840413177647297 a45.75171348233563,45.75171348233563 0 0,0 0.03726889213417403,0.7866874091161026 l -24.733149975425306 0.9584428020256274" fill="#e5ff1a" stroke="none" /><path d="M 120.98425023603335 99.18683210126433 l 24.598544666390847 -0.9532266653957725 a45.617007145062274,45.617007145062274 0 0,0 0.023651995800688587,0.784894593649434 l -24.61130835664718 0.5296619243213393" fill="#e7ff1a" stroke="none" /><line stroke="#e1ed5e" stroke-width="0.3" x1="184.98032266829074" x2="189.97916517819016" y1="98.17113171792111" y2="98.06355123074" /><path d="M 185.9800911702706 98.14961562048488 a86.0,86.0 0 0,1 -9.607161424134198,41.387399972396054" fill="none" id="id52" stroke="none" /><text fill="#e1ed5e" style="font-size:6.75px; font-family:Arial;" text-anchor="middle"><textPath startOffset="21.466115282336823" xlink:href="#id52">April</textPath></text><path d="M 120.99980553446 99.90962569577887 l 24.178088367793396 -0.10405229277245853 a45.17831226534345,45.17831226534345 0 0,0 -0.0033468582308035268,0.777691984508375 l -24.176297212273088 -0.3121491699396012" fill="#edff1a" stroke="none" /><path d="M 120.99824983174949 100.27111621757518 l 25.27600119683173 0.3263478573128268 a46.27810790835049,46.27810790835049 0 0,0 -0.017140391541314803,0.796446643049614 l -25.26663874260541 -0.7613843161525556" fill="#dfff1b" stroke="none" /><path d="M 120.9764740272857 100.99374915477107 l 54.598352615582534 2.5865675371872006 a75.65958689891389,75.65958689891389 0 0,0 -0.07282649245567288,1.3003659448664704 l -54.54573977223933 -3.526005198389094" fill="#42ffd7" stroke="none" /><path d="M 120.92983693683757 101.71520430193887 l 43.418744596479456 3.5581747598612266 a64.56429719341318,64.56429719341318 0 0,0 -0.10030648866771413,1.1068737440433352 l -43.35106351153467 -4.305029892453132" fill="#33ff55" stroke="none" /><path d="M 120.89721153311464 102.0752229133903 l 42.955534154389895 4.265751370361097 a64.16682232041981,64.16682232041981 0 0,0 -0.11860992202236337,1.0981805692820925 l -42.875741930866475 -5.004528261527981" fill="#33ff50" stroke="none" /><path d="M 120.8583938346157 102.4346265915055 l 52.8976051328281 6.17429688519995 a74.25672324519404,74.25672324519404 0 0,0 -0.15911621306229629,1.2683127739450286 l -52.78348741051895 -7.083927413432374" fill="#40ffc7" stroke="none" /><path d="M 120.81339534386255 102.79330883721812 l 30.714620477267122 4.122125169560575 a51.98999559496712,51.98999559496712 0 0,0 -0.12667226010758137,0.8859454921608361 l -30.63911416614294 -4.650216133701821" fill="#99ff23" stroke="none" /><path d="M 120.70491114924044 103.5080841355445 l 23.907265417209103 4.050666913267079 a45.247994601020494,45.247994601020494 0 0,0 -0.1367212492596158,0.7668053735917983 l -23.8339977256103 -4.461591037592096" fill="#ecff1a" stroke="none" /><path d="M 120.64145759157962 103.86396538481128 l 52.166224713469596 9.765225428235269 a74.07235276978456,74.07235276978456 0 0,0 -0.24539135937353157,1.2512452547077029 l -51.9904034211204 -10.661734410010917" fill="#40ffc5" stroke="none" /><path d="M 120.5718875245553 104.21870165774334 l 42.10770903567155 8.635078414682402 a63.98399399149047,63.98399399149047 0 0,0 -0.23054335293407544,1.0770217930738455 l -41.952831644013024 -9.358614027172417" fill="#32ff4e" stroke="none" /><path d="M 120.23288151984713 105.62410040840565 l 41.56585337211307 11.553991095955231 a64.14179964717995,64.14179964717995 0 0,0 -0.3048487565792929,1.0612185140521673 l -41.360811978647675 -12.267767085511979" fill="#33ff50" stroke="none" /><path d="M 120.13307415673323 105.97154293290107 l 20.797029508315457 6.168474502150611 a42.69254512622772,42.69254512622772 0 0,0 -0.21503468037755621,0.7027457772971931 l -20.687768055431768 -6.525547251999861" fill="#fff116" stroke="none" /><path d="M 119.9155931802556 106.66101706037122 l 36.52716702177118 12.216963888389904 a59.516076348540366,59.516076348540366 0 0,0 -0.33331601356528895,0.9687723571882083 l -36.31146017726265 -12.843908948667412" fill="#45ff2d" stroke="none" /><path d="M 119.54520255179757 107.68017299344265 l 36.61970341769978 14.389498214262876 a60.34539791714614,60.34539791714614 0 0,0 -0.3882145476287542,0.9635166699712411 l -36.36658625581364 -15.01771425207693" fill="#3cff2e" stroke="none" /><path d="M 119.12269723197855 108.67885076344098 l 35.58212095514667 16.148972808082924 a60.07526908957748,60.07526908957748 0 0,0 -0.4354752788386271,0.9379750089188958 l -35.29887105946821 -16.75906788428065" fill="#3fff2d" stroke="none" /><line stroke="#e1ed5e" stroke-width="0.3" x1="174.80103733775053" x2="179.2010983576182" y1="140.37084112569926" y2="142.7455964860345" /><path d="M 175.68104954172406 140.8457921977663 a86.0,86.0 0 0,1 -30.038265399797805,32.042727171017184" fill="none" id="id53" stroke="none" /><text fill="#e1ed5e" style="font-size:6.75px; font-family:Arial;" text-anchor="middle"><textPath startOffset="22.206326154141568" xlink:href="#id53">May</textPath></text><path d="M 118.48025628344425 109.97397251340804 l 39.660325842500775 21.405060284812524 a66.06792708489922,66.06792708489922 0 0,0 -0.5487526220116182,0.996145404924917 l -39.28599681103764 -22.084576208135246" fill="#35ff68" stroke="none" /><path d="M 118.12598468904814 110.60418214915192 l 24.855434070046098 14.541088652373046 a49.796455719525284,49.796455719525284 0 0,0 -0.43920266293821325,0.7361289259744173 l -24.601450531409657 -14.966779672233567" fill="#b3ff20" stroke="none" /><path d="M 117.55443506779139 111.5257021239791 l 20.587023163412216 13.516806190835771 a45.62782110401745,45.62782110401745 0 0,0 -0.43671668327536534,0.6528321869989757 l -20.35130337472613 -13.869175292040554" fill="#e7ff1a" stroke="none" /><path d="M 117.35343817320211 111.8261652097733 l 20.27918368564433 13.820026567191553 a45.54054655613814,45.54054655613814 0 0,0 -0.4470327121153723,0.643983963077336 l -20.038290066366823 -14.167051792455908" fill="#e8ff1a" stroke="none" /><path d="M 116.93607887273984 112.41649034213515 l 19.527056758222027 14.316035811515139 a45.21269970481211,45.21269970481211 0 0,0 -0.46555890064113126,0.6236922279570031 l -19.2777365908858 -14.650040918981457" fill="#ecff1a" stroke="none" /><path d="M 116.71984013943494 112.70617746262583 l 19.071233231382163 14.493109494362564 a44.95333295767747,44.95333295767747 0 0,0 -0.4734938473125991,0.6120546252644747 l -18.818932566851494 -14.819242113740291" fill="#efff19" stroke="none" /><path d="M 116.27256486870786 113.27417163493432 l 19.138204937091206 15.6117870273802 a45.698153420901306,45.698153420901306 0 0,0 -0.5024707820173651,0.6052584259386447 l -18.866638155180297 -15.938906710432617" fill="#e6ff1a" stroke="none" /><path d="M 115.32070863581623 114.36230785411682 l 17.70995669346349 16.602094339159674 a45.27492744645615,45.27492744645615 0 0,0 -0.537895132603977,0.5639808960588691 l -17.42155500948055 -16.90448235180105" fill="#ebff1a" stroke="none" /><path d="M 114.81725581225074 114.88116024355365 l 27.318228799018726 27.43604790788238 a59.71720999141277,59.71720999141277 0 0,0 -0.7346640021555327,0.7190233523847559 l -26.8419148444874 -27.902221363189707" fill="#43ff2d" stroke="none" /><path d="M 113.75828350139079 115.86535959552629 l 22.52596930455494 25.9758132777555 a55.38258525112052,55.38258525112052 0 0,0 -0.7256029142380045,0.6183745451326721 l -22.075500913739887 -26.359712213111116" fill="#72ff27" stroke="none" /><path d="M 113.48314897796784 116.09983520530334 l 28.91577196921999 34.52748050913674 a66.03630512025543,66.03630512025543 0 0,0 -0.8777478742666883,0.7223267437504465 l -28.31715396640861 -35.020102371744365" fill="#35ff67" stroke="none" /><path d="M 112.92097659922987 116.55440617244103 l 27.82889705497676 35.65449264930885 a66.22930861041448,66.22930861041448 0 0,0 -0.9047279034317336,0.6937067767745192 l -27.211040423051536 -36.128238767910744" fill="#35ff6a" stroke="none" /><path d="M 112.04921762599082 117.19931262002967 l 25.124278053000438 35.862935337311676 a64.78789191880192,64.78789191880192 0 0,0 -0.9188870270386613,0.6320188760564456 l -24.503234141338893 -36.29009500273322" fill="#34ff58" stroke="none" /><path d="M 111.45004920935366 117.60387380957326 l 25.1332401159424 38.64109047368272 a67.09570079433601,67.09570079433601 0 0,0 -0.9735848112594478,0.6213878901168219 l -24.464373502636022 -39.06799279262335" fill="#37ff74" stroke="none" /><line stroke="#e1ed5e" stroke-width="0.3" x1="143.8653032363475" x2="146.44561519142675" y1="172.8068346515853" y2="177.08958963109032" /><path d="M 144.38136562736335 173.6633856474863 a86.0,86.0 0 0,1 -40.68145358897372,12.25698825130547" fill="none" id="id54" stroke="none" /><text fill="#e1ed5e" style="font-size:6.75px; font-family:Arial;" text-anchor="middle"><textPath startOffset="21.466115282336833" xlink:href="#id54">June</textPath></text><path d="M 109.57404056367764 118.69057910512821 l 20.269985881629182 39.57135673915436 a65.46082097553827,65.46082097553827 0 0,0 -1.0073051665773132,0.5050837218341006 l -19.58582680736911 -39.914408301897765" fill="#34ff60" stroke="none" /><path d="M 108.2653958097858 119.30500536409082 l 17.72020741470496 41.38806018081625 a66.02196437685757,66.02196437685757 0 0,0 -1.0485814009392342,0.43830711063506955 l -17.005154554268266 -41.686952334471286" fill="#35ff67" stroke="none" /><path d="M 107.2578585660854 119.70592522655815 l 2.8414332949814107 7.714819948242229 a29.22144695316008,29.22144695316008 0 0,0 -0.47349937182172425,0.16978002843454412 l -2.7082143625299513 -7.762587517716733" fill="#ff3304" stroke="none" /><path d="M 106.91757812671514 119.82793768551818 l 14.233682846408913 40.79817695503808 a64.20982492705514,64.20982492705514 0 0,0 -1.0467126912063185,0.35510177518202996 l -13.529300422265367 -41.03714171711823" fill="#33ff50" stroke="none" /><path d="M 105.88484417918355 120.15858648285463 l 14.94125287053548 51.1813956295231 a74.31769214741999,74.31769214741999 0 0,0 -1.231086131261167,0.34791723768139654 l -14.058035571169707 -51.43100166054302" fill="#40ffc8" stroke="none" /><path d="M 104.83641907484287 120.43548508189849 l 4.843071943292888 20.463595671956636 a42.02888712398336,42.02888712398336 0 0,0 -0.7054445645069485,0.1605568861514641 l -4.490107229393078 -20.543929291685785" fill="#ffe915" stroke="none" /><path d="M 102.34483914955558 120.86867818915974 l 3.879383364043428 34.525866310252425 a55.7431296770835,55.7431296770835 0 0,0 -0.9544482092888612,0.09893245939606944 l -3.284502558148964 -34.587528138104254" fill="#6eff28" stroke="none" /><path d="M 101.26447882468166 120.96189622390904 l 1.4862179191077252 24.6377758000758 a45.68256145698573,45.68256145698573 0 0,0 -0.7853309405431593,0.04059263925642579 l -1.0618989101510863 -24.65970824609443" fill="#e6ff1a" stroke="none" /><line stroke="#e1ed5e" stroke-width="0.3" x1="102.19456741930631" x2="102.32365962044197" y1="184.97166512339345" y2="189.96999836594603" /><path d="M 102.22038585953345 185.97133177190398 a86.0,86.0 0 0,1 -42.740103519485714,-10.115201625700543" fill="none" id="id55" stroke="none" /><text fill="#e1ed5e" style="font-size:6.75px; font-family:Arial;" text-anchor="middle"><textPath startOffset="22.20632615414155" xlink:href="#id55">July</textPath></text><path d="M 100.54218724476979 120.99299961872073 l 1.15699396569654 44.79775965781404 a65.81269803745283,65.81269803745283 0 0,0 -1.1327315232217694,0.019501000421802604 l -0.3857027525821026 -44.811038135515" fill="#35ff64" stroke="none" /><path d="M 99.45781275523022 120.99299961872073 l -0.7610876269468165 29.468624384721277 a50.47845107029338,50.47845107029338 0 0,0 -0.8684208119373491,-0.029910168657439166 l 1.2682287905588088 -29.451157417637745" fill="#abff21" stroke="none" /><path d="M 97.65516085044442 120.86867818915974 l -2.725299536267065 24.25471231244278 a45.40734166028207,45.40734166028207 0 0,0 -0.7759737959053064,-0.0939596201826195 l 3.1424007552237607 -24.20420716353481" fill="#eaff1a" stroke="none" /><path d="M 97.2962882734958 120.8252237178851 l -3.1479219125859803 24.24673364153272 a45.45022504295561,45.45022504295561 0 0,0 -0.7749726720003185,-0.10740415077216961 l 3.56482317577313 -24.188954925267947" fill="#e9ff1a" stroke="none" /><path d="M 96.93821686468263 120.77559828337769 l -3.588782977065133 24.351533130383253 a45.61455929031892,45.61455929031892 0 0,0 -0.7758040321811833,-0.12116463461094244 l 4.007422872854834 -24.286150188425204" fill="#e7ff1a" stroke="none" /><path d="M 96.58105272829116 120.7198165907248 l -3.7097225059492787 22.481999228766924 a43.78601172635139,43.78601172635139 0 0,0 -0.7425920529274729,-0.12910914699959858 l 4.096163530348801 -22.41481150324632" fill="#feff18" stroke="none" /><path d="M 96.22490169976321 120.6578951692458 l -4.410045003870188 24.1324172607352 a45.53206187384971,45.53206187384971 0 0,0 -0.7697788828829543,-0.14752995499369678 l 4.824791501324838 -24.052930107393035" fill="#e8ff1a" stroke="none" /><path d="M 95.86986931433489 120.58985236759428 l -7.8128917038271934 38.949442278942975 a60.72531095682502,60.72531095682502 0 0,0 -1.0231015963752528,-0.214400886950934 l 8.482184761631833 -38.809185411265496" fill="#39ff2e" stroke="none" /><path d="M 91.7346041902142 119.30500536409082 l -9.67277928886382 22.592149287769196 a45.57575774237537,45.57575774237537 0 0,0 -0.7185329107289414,-0.31498371232778466 l 10.060232874250506 -22.422301022146957" fill="#e7ff1a" stroke="none" /><path d="M 90.42595943632237 118.69057910512821 l -17.682977042769636 34.520961033519654 a59.7863948798145,59.7863948798145 0 0,0 -0.9119107707213299,-0.47706861567672026 l 18.274578716017462 -34.21146299889822" fill="#42ff2d" stroke="none" /><line stroke="#e1ed5e" stroke-width="0.3" x1="58.666819895761336" x2="56.23545636021788" y1="174.27360380694188" y2="178.64263932499728" /><path d="M 58.180547188652646 175.14741091055294 a86.0,86.0 0 0,1 -31.652253787137756,-30.449443065178592" fill="none" id="id56" stroke="none" /><text fill="#e1ed5e" style="font-size:6.75px; font-family:Arial;" text-anchor="middle"><textPath startOffset="22.20632615414155" xlink:href="#id56">August</textPath></text><path d="M 89.4739219176387 118.17145234162733 l -10.544925790806355 18.203989648787566 a42.0376020274835,42.0376020274835 0 0,0 -0.6230215417083472,-0.3680921084838494 l 10.856715203543084 -18.019778968009966" fill="#ffe915" stroke="none" /><path d="M 89.1626897886671 117.98757091392108 l -8.770259887013774 14.556718279246804 a37.994572826261944,37.994572826261944 0 0,0 -0.5572913676273984,-0.3423338750789459 l 9.019530454573482 -14.40359593733948" fill="#ffb210" stroke="none" /><path d="M 87.95078237400918 117.19931262002967 l -30.81538448968392 43.98654317615122 a74.70664671932579,74.70664671932579 0 0,0 -1.0468630741688183,-0.7469090074809134 l 31.567974891701628 -43.44958990682609" fill="#41ffcc" stroke="none" /><path d="M 87.07902340077011 116.55440617244103 l -15.961800021878483 20.45032113294004 a46.94214128361061,46.94214128361061 0 0,0 -0.6326962555299601,-0.5026521704125567 l 16.3114537701258 -20.172535048522352" fill="#d6ff1c" stroke="none" /><path d="M 86.79598089348748 116.32954008644616 l -27.45458718233922 33.953357559874874 a64.66445747906846,64.66445747906846 0 0,0 -0.8595134144695151,-0.7073210247330625 l 28.034970725353425 -33.475741416284635" fill="#33ff56" stroke="none" /><path d="M 85.44109423537348 115.13401014063109 l -19.72839382698916 20.507702780894878 a49.45655278388982,49.45655278388982 0 0,0 -0.6084334650974753,-0.5954802038671925 l 20.078477244462427 -20.165072474105116" fill="#b7ff1f" stroke="none" /><path d="M 84.9287848128048 114.62390073753433 l -19.616324111730577 19.034110593084577 a48.33308503857984,48.33308503857984 0 0,0 -0.5742280032747332,-0.6020757657002535 l 19.94105866638427 -18.693627710801824" fill="#c5ff1e" stroke="none" /><path d="M 84.19399662182784 113.82643327865904 l -32.66837811397041 28.576936212641176 a64.40350460387621,64.40350460387621 0 0,0 -0.7227222985617269,-0.8406893098180136 l 33.15544292210292 -28.010369803661632" fill="#33ff53" stroke="none" /><path d="M 83.95833913139862 113.55231037782056 l -22.38980944636466 18.915351060145426 a50.31030659636751,50.31030659636751 0 0,0 -0.5531833828420886,-0.66634502052071 l 22.712088829100285 -18.527144782510955" fill="#adff20" stroke="none" /><path d="M 83.28015986056508 112.70617746262583 l -23.038354915058555 17.507908183121273 a49.9360095061639,49.9360095061639 0 0,0 -0.5141952115197653,-0.6888485144112592 l 23.336311393273405 -17.108746789200705" fill="#b2ff20" stroke="none" /><path d="M 83.06392112726016 112.41649034213515 l -16.926121601456487 12.409190283859983 a41.98765341738654,41.98765341738654 0 0,0 -0.42231623202292473,-0.5865603094583756 l 17.13721762585502 -12.11599636895047" fill="#ffe815" stroke="none" /><path d="M 82.6465618267979 111.8261652097733 l -23.303399624182113 15.88099436862742 a49.2002556048825,49.2002556048825 0 0,0 -0.4709094566466519,-0.7039457438526359 l 23.573312186239495 -15.477511710568963" fill="#bbff1f" stroke="none" /><path d="M 82.44556493220864 111.52570212397912 l -37.510438159382595 24.628199944652387 a65.8729451164356,65.8729451164356 0 0,0 -0.61417153756328,-0.9532078652592713 l 37.92881456032292 -23.97887047947167" fill="#35ff65" stroke="none" /><path d="M 82.24976979558568 111.22182372390057 l -18.059688765866156 11.417465661299254 a42.36611523995178,42.36611523995178 0 0,0 -0.38439252538633895,-0.6197631441673894 l 18.25354593092045 -11.1049061857666" fill="#ffed16" stroke="none" /><line stroke="#e1ed5e" stroke-width="0.3" x1="26.63291911575756" x2="22.317208475507996" y1="142.92168965132927" y2="145.44649492493687" /><path d="M 25.769776987707644 143.4266507060508 a86.0,86.0 0 0,1 -11.730757126820373,-40.83630448921669" fill="none" id="id57" stroke="none" /><text fill="#e1ed5e" style="font-size:6.75px; font-family:Arial;" text-anchor="middle"><textPath startOffset="21.46611528233685" xlink:href="#id57">September</textPath></text><path d="M 81.87401531095188 110.60418214915194 l -18.448591197610742 10.792915519392887 a42.3737582700215,42.3737582700215 0 0,0 -0.36289694478024115,-0.6327414118988658 l 18.63164013854336 -10.473754261635714" fill="#ffed16" stroke="none" /><path d="M 81.18737489456691 109.33194174019688 l -21.465250845344016 10.647768145319175 a44.96105090203716,44.96105090203716 0 0,0 -0.33795026019363894,-0.696277633559499 l 21.645354362152375 -10.276701555794391" fill="#efff19" stroke="none" /><path d="M 80.87730276802145 108.67885076344099 l -16.56261126741912 7.5169537905163075 a39.18858670387549,39.18858670387549 0 0,0 -0.2734969884873419,-0.6166635079426608 l 16.68954934063774 -7.230741946080951" fill="#ffc312" stroke="none" /><path d="M 80.45479744820244 107.68017299344265 l -25.053579710003227 9.844657570976832 a47.91837920409171,47.91837920409171 0 0,0 -0.2950533592236424,-0.7702912159454031 l 25.21932734882038 -9.411942788198271" fill="#caff1d" stroke="none" /><path d="M 80.20201598880116 107.00284435728193 l -22.95903898720507 8.120956988813587 a45.35297545742948,45.35297545742948 0 0,0 -0.2539964646571635,-0.7382326194033609 l 23.09542628280546 -7.724551666320928" fill="#eaff1a" stroke="none" /><path d="M 79.86692584326677 105.97154293290107 l -19.514562027181086 5.788089988388603 a41.354854871169735,41.354854871169735 0 0,0 -0.1965485246023479,-0.6842111988847748 l 19.611303188669538 -5.451321313999233" fill="#ffe015" stroke="none" /><path d="M 79.50377843672027 104.57218783832718 l -42.213645026577005 9.41679488612492 a64.25121792917741,64.25121792917741 0 0,0 -0.23150619846365028,-1.08151988684022 l 42.36948526376509 -8.688761179868536" fill="#33ff51" stroke="none" /><path d="M 79.4281124754447 104.21870165774334 l -41.62067101468799 8.53520094334903 a63.48682043712186,63.48682043712186 0 0,0 -0.21032296918916174,-1.0724322886747906 l 41.76142391685283 -7.817504927606285" fill="#32ff47" stroke="none" /><path d="M 79.35854240842038 103.8639653848113 l -37.5652204128902 7.0319991068569925 a59.21772881933017,59.21772881933017 0 0,0 -0.1789321700085549,-1.003546633855476 l 37.68069902523794 -6.384333722268303" fill="#48ff2c" stroke="none" /><path d="M 79.10278846688536 102.07522291339032 l -28.778574937062967 2.8578912564231467 a49.920129976223976,49.920129976223976 0 0,0 -0.07755544735119908,-0.8558178989292978 l 28.82350498069124 -2.3620919689452826" fill="#b2ff20" stroke="none" /><path d="M 79.07016306316243 101.71520430193888 l -19.62144755572148 1.607981531791463 a40.687224506987036,40.687224506987036 0 0,0 -0.05119507094625663,-0.6985160683883891 l 19.646219185332072 -1.2699923269063131" fill="#ffd714" stroke="none" /><path d="M 79.04373962182676 101.35467743843564 l -18.8135798886355 1.2161679494059943 a39.85284733686751,39.85284733686751 0 0,0 -0.038360546295248064,-0.6849533232591151 l 18.831726785818276 -0.8921429098114416" fill="#ffcc13" stroke="none" /><path d="M 79.0095281055655 100.63252640178507 l -27.208250341492356 0.8198927958325141 a48.220600853801464,48.220600853801464 0 0,0 -0.017859848130102083,-0.8298769636801456 l 27.218332252307466 -0.3514260163622396" fill="#c6ff1e" stroke="none" /><line stroke="#e1ed5e" stroke-width="0.3" x1="15.007084014347285" x2="10.007500721073583" y1="101.09737516637583" y2="101.16192664675087" /><path d="M 14.007167355692545 101.11028546245083 a86.0,86.0 0 0,1 10.666146001902534,-42.60595125391555" fill="none" id="id58" stroke="none" /><text fill="#e1ed5e" style="font-size:6.75px; font-family:Arial;" text-anchor="middle"><textPath startOffset="22.20632615414155" xlink:href="#id58">October</textPath></text><path d="M 79.00175016825051 100.2711162175752 l -22.589201136154898 0.29165758190093743 a43.59108390747868,43.59108390747868 0 0,0 -0.0032292746375412454,-0.750369698446754 l 22.59087470808194 0.09722159474949199" fill="#fffd17" stroke="none" /><path d="M 79.00019446554 99.90962569577889 l -30.459337968954774 -0.1310841413013601 a51.45962003307183,51.45962003307183 0 0,0 0.011436270496162308,-0.8857517531400211 l 30.452568691340897 0.6553721525018531" fill="#9fff22" stroke="none" /><path d="M 79.03285615573316 98.82574320788736 l -21.60924252404743 -1.210217280653151 a42.643104868051886,42.643104868051886 0 0,0 0.04735295253618101,-0.7325292168218088 l 21.585208980506835 1.5820055617279718" fill="#fff116" stroke="none" /><path d="M 79.21141760316559 97.0276538004421 l -14.032929886547533 -2.0064247297253703 a35.17564324455199,35.17564324455199 0 0,0 0.0908605400237413,-0.5986574341800949 l 13.99631345308449 2.2476812762975573" fill="#ff8b0c" stroke="none" /><path d="M 79.81627453868168 94.20196356495316 l -8.11628243096133 -2.3315072007906075 a29.444522859609656,29.444522859609656 0 0,0 0.14412968153940056,-0.4859336354481173 l 8.074946852310223 2.470870222985264" fill="#ff3705" stroke="none" /><path d="M 79.91906864156998 93.8553929516997 l -32.245851580825104 -9.866976952680268 a54.72168706273938,54.72168706273938 0 0,0 0.2833658755726348,-0.8983472622735823 l 32.071230221484264 10.420574381380264" fill="#7aff26" stroke="none" /><path d="M 80.52162464483688 92.15188598940014 l -26.693617273308007 -10.75523743106779 a49.778886971745266,49.778886971745266 0 0,0 0.3270669930020924,-0.7920186662757359 l 26.504528593419717 11.213130667796838" fill="#b4ff20" stroke="none" /><path d="M 80.803312248108 91.48605970444005 l -17.425411471976727 -7.7283599553966305 a40.06233229612464,40.06233229612464 0 0,0 0.2850104581945385,-0.6279827650637968 l 17.28979869681884 8.027164729302498" fill="#ffce13" stroke="none" /><path d="M 81.26839172434947 90.50648371742162 l -37.73011250863007 -19.122300241021573 a63.29921697173196,63.29921697173196 0 0,0 0.5009396547168126,-0.9676559670232133 l 37.39536342075314 19.768928930305123" fill="#32ff45" stroke="none" /><path d="M 81.43458229118936 90.18545643968196 l -37.142147104791285 -19.635067004752457 a63.01279504906897,63.01279504906897 0 0,0 0.5151803121681676,-0.9545508761182026 l 36.79865869340464 20.27149886420313" fill="#31ff41" stroke="none" /><path d="M 81.6062741919709 89.86733742301443 l -36.81587305784397 -20.280981844876077 a63.03244857968038,63.03244857968038 0 0,0 0.5317007912627696,-0.9458363788878597 l 36.46131462528877 20.911701733698724" fill="#31ff42" stroke="none" /><line stroke="#e1ed5e" stroke-width="0.3" x1="26.266209847984243" x2="21.928928074336255" y1="57.711370442889674" y2="55.22380399835377" /><path d="M 25.398753493254645 57.213857153982495 a86.0,86.0 0 0,1 29.58750427330803,-30.492523968695096" fill="none" id="id59" stroke="none" /><text fill="#e1ed5e" style="font-size:6.75px; font-family:Arial;" text-anchor="middle"><textPath startOffset="21.46611528233685" xlink:href="#id59">November</textPath></text><path d="M 81.96595687620814 89.24020034530311 l -36.079613974474995 -21.526477192016817 a63.01342362680708,63.01342362680708 0 0,0 0.5637727045416707,-0.9266940922148942 l 35.70372547164711 22.144339057438785" fill="#31ff41" stroke="none" /><path d="M 82.34701348167596 88.62581576622439 l -35.55693671008043 -22.910069551650576 a63.29854648881132,63.29854648881132 0 0,0 0.5980306952539651,-0.9108417773994597 l 35.15730937946854 23.518729393027705" fill="#32ff45" stroke="none" /><path d="M 82.54541684631803 88.32363383020206 l -35.0764332909325 -23.464626764748743 a63.20124265495272,63.20124265495272 0 0,0 0.6126774639943618,-0.8990285779835044 l 34.6673313612694 24.064933366002666" fill="#31ff44" stroke="none" /><path d="M 82.95767976084542 87.72973835380427 l -51.12696071746375 -36.810784938587204 a84.0,84.0 0 0,0 0.8549495499454665,-1.1661502253139973 l 50.48574855500465 37.6853976075727" fill="#4dd2ff" stroke="none" /><path d="M 83.17141714833178 87.43820079747576 l -33.65808358899637 -25.124283566446348 a63.00114540832276,63.00114540832276 0 0,0 0.6561841092495047,-0.8634613707356404 l 33.220623539522755 25.699929713063014" fill="#31ff41" stroke="none" /><path d="M 83.39014120810768 87.1503855733568 l -33.21207220121429 -25.693314280537532 a62.99033387122737,62.99033387122737 0 0,0 0.6708348158249225,-0.8518920917555018 l 32.7648833047954 26.261198766246082" fill="#31ff41" stroke="none" /><path d="M 84.80347519578584 85.50635884689758 l -15.238362417085193 -14.53354365419839 a42.05781518351144,42.05781518351144 0 0,0 0.5041645272504485,-0.5195858626446911 l 14.985933626131626 14.793693712393205" fill="#ffe915" stroke="none" /><path d="M 85.05521093208273 85.24692304244772 l -15.131525121567105 -14.937417556655134 a42.262396284673216,42.262396284673216 0 0,0 0.5155291870131061,-0.5133153408494359 l 14.872160134386684 15.195668748154679" fill="#ffec16" stroke="none" /><path d="M 86.37877921826538 84.01681056812374 l -27.356556210558388 -32.10028140087484 a63.17593192469838,63.17593192469838 0 0,0 0.8337492085006896,-0.6982409847757045 l 26.79994946509859 32.56642354304436" fill="#31ff43" stroke="none" /><path d="M 88.39885842347998 82.49532879139004 l -21.99789403492563 -33.192069920305464 a60.81985494155225,60.81985494155225 0 0,0 0.8776391206812761,-0.5708408972114747 l 21.423287888460067 33.565809741676475" fill="#38ff2e" stroke="none" /><path d="M 89.00827224532344 82.1063720568725 l -18.80998905701586 -30.62111374231772 a56.937004537732626,56.937004537732626 0 0,0 0.8395169733723744,-0.5057995830373335 l 18.280110017425834 30.940359934813674" fill="#61ff29" stroke="none" /><line stroke="#e1ed5e" stroke-width="0.3" x1="56.762969772571076" x2="54.21961505331055" y1="26.818313649435495" y2="22.513508569990535" /><path d="M 56.25429882871897 25.957352633546506 a86.0,86.0 0 0,1 42.265352541879196,-11.944610805530505" fill="none" id="id60" stroke="none" /><text fill="#e1ed5e" style="font-size:6.75px; font-family:Arial;" text-anchor="middle"><textPath startOffset="22.20632615414155" xlink:href="#id60">December</textPath></text><path d="M 90.26544431104013 81.39251694778311 l -9.772234021821426 -18.67950472044282 a42.08128208573401,42.08128208573401 0 0,0 0.6447243419001787,-0.33025284915056835 l 9.449249192332482 18.844950094905894" fill="#ffe915" stroke="none" /><path d="M 91.23893434514133 80.91482961587045 l -8.922773637501063 -19.437436252550743 a42.38760897010364,42.38760897010364 0 0,0 0.6657233997037302,-0.2986906840757405 l 8.586868119330559 19.58814726714301" fill="#ffed16" stroke="none" /></svg>