<?xml version="1.0" encoding="utf-8" ?>
<svg baseProfile="full" height="200mm" version="1.1" viewBox="0,0,200,200" width="200mm" xmlns="http://www.w3.org/2000/svg" xmlns:ev="http://www.w3.org/2001/xml-events" xmlns:xlink="http://www.w3.org/1999/xlink"><defs /><rect fill="#1a1a1a" height="200" width="200" x="0" y="0" /><text alignment-baseline="middle" fill="#e1ed5e" style="dominant-baseline: central; font-size:9.0px; font-family:Arial;" text-anchor="middle" x="100.0" y="100.0">2025</text><line stroke="#e1ed5e" stroke-width="0.3" x1="100.0" x2="100.0" y1="15.0" y2="10.0" /><path d="M 100.0 14.0 a86.0,86.0 0 0,1 42.46469731375804,11.215312516191453" fill="none" id="id97" stroke="none" /><text fill="#e1ed5e" style="font-size:6.75px; font-family:Arial;" text-anchor="middle"><textPath startOffset="22.20632615414155" xlink:href="#id97">January</textPath></text><path d="M 100.0 79.0 l 0.0 -39.32680921218894 a60.32680921218894,60.32680921218894 0 0,0 1.038426852714497,0.00893806776437135 l -0.6769463734419687 39.32098252103313" fill="#38ff2e" stroke="none" /><path d="M 100.36148047927253 79.00311137660856 l 0.2604716583551513 -15.12970883252012 a36.13195079431742,36.13195079431742 0 0,0 0.621767839786474,0.0160584289078761 l -0.5208661333364931 15.122983611469882" fill="#ffa50f" stroke="none" /><path d="M 100.72285384407766 79.0124445844662 l 0.687451066569064 -19.959660550046085 a40.97149564359147,40.97149564359147 0 0,0 0.7046300601144583,0.030342852617233202 l -1.0309219590728538 19.94486997090466" fill="#ffe515" stroke="none" /><path d="M 101.08401301168833 79.027996857942 l 2.127779499927622 -41.16537151946911 a62.22032578639124,62.22032578639124 0 0,0 1.0691168989187276,0.06449205097438561 l -2.8360584476859616 41.12264619911442" fill="#31ff3c" stroke="none" /><path d="M 101.44485096284872 79.0497635885617 l 1.8065669337773245 -26.19509231671877 a47.25731413468705,47.25731413468705 0 0,0 0.8110476018346151,0.06295290345691618 l -2.257204724974281 26.16011415107339" fill="#caff1d" stroke="none" /><path d="M 101.80526077348638 79.07773832637324 l 1.2937552624171744 -14.994114168696342 a36.04982599178251,36.04982599178251 0 0,0 0.617782216533883,0.058665865409130616 l -1.5516626060413017 14.969622758772033" fill="#ffa30f" stroke="none" /><path d="M 102.16513564639614 79.11191278185805 l 1.748743777460255 -16.87095799589902 a37.9613480743305,37.9613480743305 0 0,0 0.64938000990269,0.07296541047576163 l -2.0388904908726704 16.838356631952657" fill="#ffbd11" stroke="none" /><path d="M 102.88285421437855 79.19881850522331 l 2.2280400651543517 -16.076382059749847 a37.23004074742204,37.23004074742204 0 0,0 0.6340294014849159,0.09343945249052493 l -2.504438447067923 16.03564812309835" fill="#ffb310" stroke="none" /><path d="M 103.2404852339499 79.25152402106235 l 2.394077103038124 -15.329016390413544 a36.51484285040807,36.51484285040807 0 0,0 0.6201799041509174,0.10233499809137347 l -2.657586213327917 15.285535129382545" fill="#ffaa0f" stroke="none" /><path d="M 103.59715602781102 79.31037775812273 l 5.075027212265622 -29.18983638108101 a50.627731083556114,50.627731083556114 0 0,0 0.8573080086096606,0.1566675587985308 l -5.576730341978184 29.09815334093174" fill="#a2ff22" stroke="none" /><path d="M 103.95276090670814 79.375362276772 l 5.715534322963551 -29.822402009123802 a51.365160862257355,51.365160862257355 0 0,0 0.8669303996527886,0.17389808251258612 l -6.228031132083465 29.71959997053401" fill="#9aff23" stroke="none" /><path d="M 105.01212808612495 79.60689891045804 l 3.751710298083517 -15.264774972389922 a36.71905484176602,36.71905484176602 0 0,0 0.6124932631884633,0.15613817051813006 l -4.013912449957005 15.197933805702924" fill="#ffad10" stroke="none" /><path d="M 105.36241919743992 79.69619591428918 l 3.8145822974002304 -14.44320721367898 a35.93844947512652,35.93844947512652 0 0,0 0.5967530090477923,0.16311513984827528 l -4.062633195671734 14.375405533004411" fill="#ffa20f" stroke="none" /><path d="M 106.0581310904928 79.89281104454417 l 7.79166398231342 -25.860856694841083 a48.00914542528858,48.00914542528858 0 0,0 0.789212344974663,0.24521211727247177 l -8.2356616999988 25.72290444268609" fill="#c1ff1e" stroke="none" /><path d="M 106.40334571778207 80.00007090966166 l 12.398365729564539 -38.72451158443153 a61.66088132611998,61.66088132611998 0 0,0 1.0080590359489874,0.33234121505698705 l -13.063107587755944 38.505356645115306" fill="#30ff35" stroke="none" /><path d="M 107.08798089147638 80.2323363322302 l 6.13804898462332 -17.11839940909553 a39.185577903024075,39.185577903024075 0 0,0 0.632973361881969,0.23312943106307235 l -6.431804672277866 17.010206710226132" fill="#ffce13" stroke="none" /><path d="M 107.4271985657038 80.35727306442388 l 5.610962404953132 -14.839323520339175 a36.86469103547525,36.86469103547525 0 0,0 0.5916200712400485,0.22953939627186393 l -5.865565641192848 14.740541420176763" fill="#ffaf10" stroke="none" /><path d="M 108.09893153111575 80.62456947434976 l 5.919397338505072 -14.161234904294046 a36.34861032359923,36.34861032359923 0 0,0 0.5752015996325072,0.24627130641610825 l -6.162282695927894 14.057244069915146" fill="#ffa80f" stroke="none" /><path d="M 108.43124777332544 80.76684994638697 l 15.985075268702087 -36.464751069696625 a60.814579012228826,60.814579012228826 0 0,0 0.9551302674356152,0.4285391096193294 l -16.61038765460448 36.184191629560765" fill="#33ff2f" stroke="none" /><path d="M 108.76106565485865 80.91482961587045 l 13.46947210572596 -29.341997908610324 a53.28590280719779,53.28590280719779 0 0,0 0.830300401385097,0.3898371715631881 l -13.972550718410655 29.105795754407133" fill="#84ff25" stroke="none" /><path d="M 109.08828744355905 81.06846463323043 l 17.60296896313777 -36.66820966605403 a61.67458809171754,61.67458809171754 0 0,0 0.9531036157646954,0.46768380497217893 l -18.231543845912896 36.359770700947024" fill="#30ff35" stroke="none" /><path d="M 109.41281617654863 81.2277094730956 l 10.388026307831705 -20.717184336138345 a44.175694539533,44.175694539533 0 0,0 0.6768126867417819,0.34668974569651395 l -10.743099482162242 20.53530206512933" fill="#f0ff19" stroke="none" /><path d="M 109.73455568895987 81.39251694778311 l 15.183931904152987 -29.02389842948557 a53.75573946829853,53.75573946829853 0 0,0 0.8162039908095503,0.4359879049562155 l -15.681280941490847 28.7582317980276" fill="#7eff26" stroke="none" /><path d="M 110.05341064243156 81.56283822128135 l 18.782069650270003 -34.44483359902179 a60.23280135310113,60.23280135310113 0 0,0 0.9060043331025703,0.5041904304615019 l -19.372198072444608 34.116427771000104" fill="#39ff2e" stroke="none" /><path d="M 110.36928655335952 81.73862282372117 l 14.309184631596187 -25.19994179907495 a49.97912751443482,49.97912751443482 0 0,0 0.7444587807165346,0.4312385772803894 l -14.74084014477805 24.949899064404512" fill="#aaff21" stroke="none" /><line stroke="#e1ed5e" stroke-width="0.3" x1="143.23703022742887" x2="145.7803849466894" y1="26.81831364943548" y2="22.513508569990506" /><path d="M 143.74570117128098 25.957352633546492 a86.0,86.0 0 0,1 28.547481713284135,27.462654790039103" fill="none" id="id98" stroke="none" /><text fill="#e1ed5e" style="font-size:6.75px; font-family:Arial;" text-anchor="middle"><textPath startOffset="19.985693538727396" xlink:href="#id98">February</textPath></text><path d="M 110.68208982089419 81.91981866633111 l 18.777137472069622 -31.781613533916975 a57.914114515510946,57.914114515510946 0 0,0 0.8539241312103779,0.5144797344319348 l -19.321423669497637 31.453687190026425" fill="#51ff2b" stroke="none" /><path d="M 110.99172775467656 82.1063720568725 l 26.501826969917193 -43.142792670704615 a71.63247369199765,71.63247369199765 0 0,0 1.0450865717821807,0.6544331153735752 l -27.240532694071636 42.68021521400809" fill="#3dffac" stroke="none" /><path d="M 111.2981086023043 82.29822771554956 l 16.575745267649538 -25.9707247028184 a51.80963928330853,51.80963928330853 0 0,0 0.7476204326221229,0.4862731257927091 l -17.02033272605594 25.681552652866163" fill="#94ff23" stroke="none" /><path d="M 111.60114157652 82.49532879139004 l 17.157150282678117 -25.887993228428467 a52.05730186634956,52.05730186634956 0 0,0 0.7426725362390427,0.5014558116873679 l -17.600227513323702 25.58882550444243" fill="#92ff23" stroke="none" /><path d="M 111.90073688211348 82.69761687909136 l 17.41177797166335 -25.314840271337435 a51.724764443325334,51.724764443325334 0 0,0 0.7292424792399725,0.5108809595243199 l -17.844951590486975 25.01137446904918" fill="#95ff23" stroke="none" /><path d="M 112.19680574252982 82.90503203632743 l 17.944458552360235 -25.15084281521249 a51.896091776354176,51.896091776354176 0 0,0 0.7227264334727813,0.5250914900316097 l -18.374730302186805 24.838232090364205" fill="#93ff23" stroke="none" /><path d="M 112.48926042617603 83.11751280151076 l 19.158463194763534 -25.897651149176543 a53.21389524769636,53.21389524769636 0 0,0 0.7317008060128967,0.5511018773403612 l -19.601410154534815 25.564032682330332" fill="#85ff25" stroke="none" /><path d="M 112.77801427241765 83.33499621200491 l 18.216136050741152 -23.757367132037047 a50.93726950918379,50.93726950918379 0 0,0 0.6912125494851221,0.5395023587049245 l -18.622381155385703 23.440286384108898" fill="#9eff22" stroke="none" /><path d="M 113.06298171725822 83.55741782278167 l 15.936297609252517 -20.059270441644657 a46.619131760106676,46.619131760106676 0 0,0 0.624022833316199,0.5045830666624957 l -16.279223841133206 19.78198127771803" fill="#d2ff1c" stroke="none" /><path d="M 113.34407831869373 83.78471172551755 l 14.005738179526684 -17.019315733466268 a43.04127514434825,43.04127514434825 0 0,0 0.5680269050440474,0.4757061973951142 l -14.296622621529849 16.775708378677333" fill="#feff18" stroke="none" /><path d="M 113.6212207817346 84.01681056812373 l 13.829466422550889 -16.227545615427182 a42.321054810520806,42.321054810520806 0 0,0 0.5503877388839726,0.4772908235493404 l -14.106747960081625 15.98708979845817" fill="#fff717" stroke="none" /><path d="M 113.89432698308785 84.25364557470407 l 11.49403218979415 -13.026115252401846 a38.37217472134333,38.37217472134333 0 0,0 0.49150920867086945,0.44128182051819625 l -11.716552386061009 12.826334423114352" fill="#ffc312" stroke="none" /><path d="M 114.42810811169701 84.74124197986012 l 14.997446961581462 -15.860874643788453 a42.82866830183235,42.82866830183235 0 0,0 0.5313136069710954,0.5111232689469747 l -15.268243812164975 15.600368288079176" fill="#fffd17" stroke="none" /><path d="M 114.68862486808459 84.99185889309783 l 44.06587460425377 -45.02442332070654 a84.0,84.0 0 0,0 1.0246567993307099,1.0202565973995252 l -44.8343672037518 44.25923087265689" fill="#4dd2ff" stroke="none" /><path d="M 114.94478906791727 85.2469230424477 l 21.337296456043937 -21.063581108541797 a50.98257275767415,50.98257275767415 0 0,0 0.6111493091172817,0.6298430845862866 l -21.696710028864327 20.693173828405396" fill="#9eff22" stroke="none" /><path d="M 115.68641384162765 86.03803664274999 l 15.838042722114897 -14.096923259152234 a42.20299136070106,42.20299136070106 0 0,0 0.47831692024764916,0.5467989252832451 l -16.078351505940393 13.82220877766604" fill="#fff517" stroke="none" /><path d="M 115.9244219780498 86.31012108654704 l 16.713072088574283 -14.367864245230985 a43.040015916674555,43.040015916674555 0 0,0 0.4781323289859865,0.5659578668195469 l -16.95791503104739 14.078047428782332" fill="#feff18" stroke="none" /><path d="M 116.15771136456269 86.58626213691792 l 14.520242029560583 -12.054350761594007 a39.87179908966179,39.87179908966179 0 0,0 0.43384601026734226,0.5318439100580753 l -14.725586531904334 11.802622681927831" fill="#ffd714" stroke="none" /><path d="M 116.38621287248628 86.86637796730983 l 31.741848970849464 -25.4412322265052 a61.679248681498336,61.679248681498336 0 0,0 0.6568720133165346,0.8341607505146456 l -32.175075064759966 24.891079082037514" fill="#30ff36" stroke="none" /><path d="M 116.60985879189232 87.15038557335679 l 26.615957498213 -20.590469535773607 a54.650804288312365,54.650804288312365 0 0,0 0.5692117039979575,0.7490158802153521 l -26.96644514243507 20.129268879677223" fill="#75ff27" stroke="none" /><path d="M 116.82858285166822 87.43820079747576 l 12.484675625763707 -9.319262929138798 a36.57933846551127,36.57933846551127 0 0,0 0.37230343998086635,0.5078214737308805 l -12.6432416782582 9.102979011736423" fill="#ffab0f" stroke="none" /><path d="M 117.04232023915458 87.72973835380427 l 18.124357153527974 -13.049314959587909 a43.33331464747599,43.33331464747599 0 0,0 0.43062456709503766,0.609087911272336 l -18.346294340426894 12.73540054798378" fill="#fbff18" stroke="none" /><path d="M 117.2510076193507 88.02491185347247 l 15.1166736602277 -10.49350296271744 a39.401832163629294,39.401832163629294 0 0,0 0.38196423982579625,0.5604853900327152 l -15.295062365722229 10.231739549414318" fill="#ffd113" stroke="none" /><path d="M 117.65298651832404 88.62581576622439 l 19.553301623361488 -12.598596549758883 a44.26061562809006,44.26061562809006 0 0,0 0.4071395005958084,0.6439969151800136 l -19.76726872020325 12.260151986864662" fill="#efff19" stroke="none" /><line stroke="#e1ed5e" stroke-width="0.3" x1="172.23445277983987" x2="176.4835382374775" y1="55.19839476539836" y2="52.563006222186495" /><path d="M 173.08426987136738 54.67131705675599 a86.0,86.0 0 0,1 12.851231095245387,41.99856678651699" fill="none" id="id99" stroke="none" /><text fill="#e1ed5e" style="font-size:6.75px; font-family:Arial;" text-anchor="middle"><textPath startOffset="22.20632615414155" xlink:href="#id99">March</textPath></text><path d="M 117.84615892207809 88.93136811851018 l 34.1763925568342 -21.197049174592753 a61.216174630475926,61.216174630475926 0 0,0 0.5476929572580038,0.9002632155654309 l -34.53620131237843 20.60561818582024" fill="#2fff30" stroke="none" /><path d="M 118.03404312379186 89.2402003453031 l 24.87595384630654 -14.8419451904619 a49.96716100691002,49.96716100691002 0 0,0 0.43433437314261536,0.7424182352563615 l -25.12774789391948 14.411547542851642" fill="#aaff21" stroke="none" /><path d="M 118.21658344932153 89.55222093294921 l 15.788533036936123 -9.055216386851333 a39.200953801137025,39.200953801137025 0 0,0 0.33067378190094177,0.5882317604296475 l -15.942064460129497 8.782101116486892" fill="#ffce13" stroke="none" /><path d="M 118.3937258080291 89.86733742301442 l 18.55409387890139 -10.221005502569579 a42.183091208571135,42.183091208571135 0 0,0 0.34488071954478305,0.639011595012755 l -18.727282697664638 9.900112924224365" fill="#fff517" stroke="none" /><path d="M 118.73160827565052 90.50648371742162 l 20.029908850023002 -10.151518385820538 a43.45552435544274,43.45552435544274 0 0,0 0.3324140414076752,0.6701264232981182 l -20.201682904384086 9.80523237402347" fill="#f9ff18" stroke="none" /><path d="M 118.89224826269711 90.83032412892265 l 20.3389361934011 -9.871850605746074 a43.60809058415616,43.60809058415616 0 0,0 0.32195605367999414,0.6781215580805016 l -20.50585044092285 9.520286632025032" fill="#f7ff18" stroke="none" /><path d="M 119.04729006885535 91.15688171328212 l 27.087862840770146 -12.576128907019656 a50.86488458987162,50.86488458987162 0 0,0 0.36186170979302745,0.7973143109416313 l -27.300326867526522 12.107992587235962" fill="#9fff22" stroke="none" /><path d="M 119.196687751892 91.48605970444005 l 20.578807327545984 -9.126925394892137 a43.51195411749472,43.51195411749472 0 0,0 0.2977653352182386,0.6872834476895947 l -20.732863372606904 8.771342802615939" fill="#f8ff18" stroke="none" /><path d="M 119.34039704204932 91.81776055985345 l 14.407202201491199 -6.095178802116073 a36.643486820540296,36.643486820540296 0 0,0 0.24076221419552418,0.5830247987619882 l -14.50998610257292 5.846279432900781" fill="#ffac0f" stroke="none" /><path d="M 119.47837535516314 92.15188598940014 l 16.50707528794075 -6.650935023026688 a38.79658594344059,38.79658594344059 0 0,0 0.24424566210913337,0.6215785689198481 l -16.619114499931584 6.365807449211055" fill="#ffc912" stroke="none" /><path d="M 119.7369772167798 92.82701384747503 l 13.880135054511829 -5.04444097227538 a35.76836259895655,35.76836259895655 0 0,0 0.20532218646580216,0.5804734701218046 l -13.96491032178744 4.804769875726961" fill="#ffa00e" stroke="none" /><path d="M 119.85752413597 93.16781622104841 l 20.97415162935699 -7.216370860644751 a43.180871149926034,43.180871149926034 0 0,0 0.2357731211115723,0.7049316223543102 l -21.09526204424033 6.854266135368127" fill="#fdff18" stroke="none" /><path d="M 119.97218684219823 93.5106431181261 l 17.914797829123305 -5.820870668712675 a39.83673317218887,39.83673317218887 0 0,0 0.20628696557451104,0.6539860538679648 l -18.012340278466024 5.511634448418291" fill="#ffd614" stroke="none" /><path d="M 120.08093135843002 93.85539295169968 l 5.545598855626736 -1.696909630689277 a26.799411087537646,26.799411087537646 0 0,0 0.13118197241324434,0.44228039692570326 l -5.573986725151682 1.6011998470170439" fill="#ff1f03" stroke="none" /><path d="M 120.18372546131832 94.20196356495316 l 9.579391222358916 -2.751804142364568 a30.966803009437974,30.966803009437974 0 0,0 0.14276172402756934,0.5135898789256776 l -9.62533971695285 2.5865029600199385" fill="#ff5c08" stroke="none" /><path d="M 120.28053869075195 94.5502522615342 l 21.11925156307326 -5.675125064426054 a42.868466591904635,42.868466591904635 0 0,0 0.18536257207811072,0.7142776043689106 l -21.213810467021673 5.310751034508293" fill="#fffd18" stroke="none" /><path d="M 120.37134235888165 94.90015583598534 l 17.559687086150568 -4.3959630215131575 a39.10157731939496,39.10157731939496 0 0,0 0.15783481975000788,0.6543272254974762 l -17.632754706161396 4.093050564356275" fill="#ffcd13" stroke="none" /><path d="M 120.45610955862082 95.25157060432595 l 19.751645182729877 -4.584903709565473 a41.27680520817921,41.27680520817921 0 0,0 0.15470077411939204,0.6934932366037797 l -19.827640343851307 4.244232303411729" fill="#ffe915" stroke="none" /><path d="M 120.53481517161879 95.60439243477599 l 18.590325032942605 -3.9793771052644034 a40.0114604114559,40.0114604114559 0 0,0 0.13836478221662643,0.6747158173404975 l -18.656069111074228 3.658785631760494" fill="#ffd914" stroke="none" /><path d="M 120.6074358757038 95.95851677861258 l 30.965919570667097 -6.072965367187371 a52.55580902477515,52.55580902477515 0 0,0 0.16646245674355253,0.8892491001520715 l -31.06586775132051 5.539038189572738" fill="#8cff24" stroke="none" /><path d="M 120.67395015179393 96.31383870115 l 23.660278112895988 -4.2186229946102864 a45.033425480988754,45.033425480988754 0 0,0 0.12949927305546027,0.7643120401068603 l -23.72938924747167 3.810725166187588" fill="#e5ff1a" stroke="none" /><path d="M 120.73433829027371 96.67025291283417 l 11.845666884610907 -1.902306900388149 a32.99744120570848,32.99744120570848 0 0,0 0.0852341293806137,0.5615864178909664 l -11.87665690743082 1.6981213701051003" fill="#ff790b" stroke="none" /><path d="M 120.78858239683441 97.02765380044208 l 18.778238259605654 -2.6849077084655453 a39.96921088336295,39.96921088336295 0 0,0 0.09151807494157942,0.6819159591265875 l -18.821672333605072 2.361273407274293" fill="#ffd814" stroke="none" /><path d="M 120.87857604477298 97.74499172005257 l 15.626480914013358 -1.6877512993211286 a36.717360153803945,36.717360153803945 0 0,0 0.06245950676450872,0.6289587092981548 l -15.653217546460096 1.4185170593185388" fill="#ffad10" stroke="none" /><path d="M 120.91429891909075 98.10471618934814 l 9.30250301075797 -0.8430061855306171 a30.340622125640454,30.340622125640454 0 0,0 0.04265821569034252,0.5205382807203 l -9.315635710267808 0.6827539876025484" fill="#ff5307" stroke="none" /><path d="M 120.94382443527127 98.46500227214037 l 31.28139284545793 -2.292650374837837 a52.36529585534163,52.36529585534163 0 0,0 0.058148940534547465,0.8995383727391711 l -31.316222376996894 1.7538529378456302" fill="#8eff24" stroke="none" /><path d="M 120.96714384426684 98.82574320788733 l 23.97372235657944 -1.3426390603570113 a45.01128991280463,45.01128991280463 0 0,0 0.03666575043638592,0.7739560411469503 l -23.993281715249324 0.9297719125870613" fill="#e6ff1a" stroke="none" /><path d="M 120.98425023603335 99.18683210126433 l 15.490958799939852 -0.6002954727978435 a36.50258556486935,36.50258556486935 0 0,0 0.01892625260901226,0.6280701838457428 l -15.49899674700451 0.33355514152710153" fill="#ffaa0f" stroke="none" /><line stroke="#e1ed5e" stroke-width="0.3" x1="184.98032266829074" x2="189.97916517819016" y1="98.17113171792111" y2="98.06355123074" /><path d="M 185.9800911702706 98.14961562048488 a86.0,86.0 0 0,1 -9.607161424134198,41.387399972396054" fill="none" id="id100" stroke="none" /><text fill="#e1ed5e" style="font-size:6.75px; font-family:Arial;" text-anchor="middle"><textPath startOffset="21.466115282336823" xlink:href="#id100">April</textPath></text><path d="M 120.9904718944345 100.63252640178507 l 9.535875158283849 0.2873538447384877 a30.54020373296404,30.54020373296404 0 0,0 -0.02035703402624852,0.5253245937702093 l -9.529515991406399 -0.4514556855227032" fill="#ff5607" stroke="none" /><path d="M 120.95626037817324 101.35467743843564 l 14.530804588203292 0.9393161176055211 a35.56113308603913,35.56113308603913 0 0,0 -0.0447451197108874,0.6105116082919341 l -14.512482909828067 -1.1893008623942254" fill="#ff9d0e" stroke="none" /><path d="M 120.92983693683757 101.71520430193887 l 15.44461820277667 1.265689535143057 a36.496393174829784,36.496393174829784 0 0,0 -0.05670045532187685,0.6256847997041736 l -15.420543151177718 -1.5313557233958013" fill="#ffaa0f" stroke="none" /><path d="M 120.89721153311464 102.0752229133903 l 15.201062822214672 1.5095599633739056 a36.275833273767375,36.275833273767375 0 0,0 -0.06705449327710533,0.6208413288231459 l -15.172826027436514 -1.7709976140818429" fill="#ffa70f" stroke="none" /><path d="M 120.8583938346157 102.4346265915055 l 14.377567746811858 1.678173738357022 a35.47517604073525,35.47517604073525 0 0,0 -0.07601568481121239,0.6059198004448058 l -14.346550552753799 -1.9254112930892229" fill="#ff9c0e" stroke="none" /><path d="M 120.70491114924044 103.5080841355445 l 22.63456549299716 3.8350302277843507 a43.95715600645684,43.95715600645684 0 0,0 -0.1328208539648089,0.7449298854186989 l -22.565198196693164 -4.224078863936268" fill="#f3ff19" stroke="none" /><path d="M 120.23288151984713 105.62410040840565 l 14.58542225501494 4.054285553974731 a36.13842044964577,36.13842044964577 0 0,0 -0.1717562120086003,0.5979059063000841 l -14.51347340612024 -4.304748935779397" fill="#ffa50f" stroke="none" /><path d="M 120.13307415673323 105.97154293290107 l 34.72967056594632 10.300946453361208 a57.22512271137495,57.22512271137495 0 0,0 -0.2882326629959398,0.9419610197010005 l -34.54721113044425 -10.897234445614265" fill="#59ff2a" stroke="none" /><path d="M 120.02730092923936 106.31721596034902 l 15.221197389307472 4.801225658070141 a36.96047047501958,36.96047047501958 0 0,0 -0.19660814086404294,0.6050976384119024 l -15.13629699742718 -5.062522196459838" fill="#ffb010" stroke="none" /><path d="M 119.9155931802556 106.66101706037122 l 15.059309446582176 5.036772755558265 a36.87929094131892,36.87929094131892 0 0,0 -0.20654013157196927,0.6003023016406809 l -14.970378484066975 -5.2952477602882455" fill="#ffaf10" stroke="none" /><path d="M 119.67450827220406 107.3425965602758 l 14.68311494181788 5.479790791937707 a36.672331400211036,36.672331400211036 0 0,0 -0.22580677288999768,0.5895102299998163 l -14.586613889334377 -5.731724588770667" fill="#ffac0f" stroke="none" /><path d="M 119.26925614724726 108.34839909993367 l 43.99824494041783 19.06222563301794 a68.95011995731699,68.95011995731699 0 0,0 -0.48120260898061856,1.0849848494725778 l -43.66360124670593 -19.816758818983203" fill="#39ff8e" stroke="none" /><path d="M 119.12269723197855 108.67885076344098 l 42.79957225141178 19.42461859867455 a68.00126798936164,68.00126798936164 0 0,0 -0.4929294797646612,1.0617262463479096 l -42.45886815480729 -20.158464912301287" fill="#38ff83" stroke="none" /><path d="M 118.97047184881838 109.00673069616215 l 10.178298130582817 4.832414867589086 a32.26720845140986,32.26720845140986 0 0,0 -0.24253684629472447,0.4996977404080518 l -10.093608027673378 -5.006901563962413" fill="#ff6f0a" stroke="none" /><path d="M 118.81262510543309 109.33194174019688 l 13.278811890751843 6.586911621799261 a35.822761211844664,35.822761211844664 0 0,0 -0.2787715851985,0.5500427846637809 l -13.163461635767074 -6.8145086181657355" fill="#ffa00e" stroke="none" /><line stroke="#e1ed5e" stroke-width="0.3" x1="174.80103733775053" x2="179.2010983576182" y1="140.37084112569926" y2="142.7455964860345" /><path d="M 175.68104954172406 140.8457921977663 a86.0,86.0 0 0,1 -30.038265399797805,32.042727171017184" fill="none" id="id101" stroke="none" /><text fill="#e1ed5e" style="font-size:6.75px; font-family:Arial;" text-anchor="middle"><textPath startOffset="22.206326154141568" xlink:href="#id101">May</textPath></text><path d="M 118.48025628344425 109.97397251340804 l 15.56345199280094 8.399745112247517 a38.685495635772995,38.685495635772995 0 0,0 -0.32131728813997534,0.5832842108894657 l -15.416558295209455 -8.666399841534787" fill="#ffc712" stroke="none" /><path d="M 118.30583269289576 110.29060199501025 l 25.9323340459547 14.577830626199152 a50.74893434792465,50.74893434792465 0 0,0 -0.4346235495175329,0.7578027931118314 l -25.67755850028479 -15.0220532651693" fill="#a1ff22" stroke="none" /><path d="M 118.12598468904814 110.60418214915192 l 28.104883936312387 16.44210307214384 a53.56113103853415,53.56113103853415 0 0,0 -0.47240694226522845,0.7917812080330733 l -27.817696118348934 -16.923446374063015" fill="#81ff25" stroke="none" /><path d="M 117.75023020441432 111.22182372390056 l 29.521056860452006 18.663425342441528 a55.92586782988977,55.92586782988977 0 0,0 -0.521429187262395,0.8092696780548184 l -29.19542280981256 -19.168816620417797" fill="#67ff28" stroke="none" /><path d="M 116.93607887273984 112.41649034213515 l 12.788666472734654 9.375862910220903 a36.85738930158755,36.85738930158755 0 0,0 -0.37952357978576945,0.5084338559800513 l -12.625381626253793 -9.59460964571027" fill="#ffae10" stroke="none" /><path d="M 116.498646956653 112.99209946851258 l 26.131263090121426 20.577443119832747 a54.26069867027893,54.26069867027893 0 0,0 -0.5841605737494795,0.7288301345468252 l -25.77318460431709 -21.024201087957824" fill="#79ff26" stroke="none" /><path d="M 116.27256486870786 113.27417163493432 l 12.095495532457427 9.866771772173031 a36.60942655512521,36.60942655512521 0 0,0 -0.40253633491342605,0.48488094665848924 l -11.923863197650459 -10.073513975945291" fill="#ffab0f" stroke="none" /><path d="M 116.0416608686014 113.55231037782055 l 12.678053380571471 10.710668665012218 a37.59673042416169,37.59673042416169 0 0,0 -0.42190243524294735,0.49076784790063044 l -12.491808435757745 -10.927313612074377" fill="#ffb811" stroke="none" /><path d="M 115.80600337817218 113.82643327865902 l 11.600332633986183 10.147487719479955 a36.412307557148,36.412307557148 0 0,0 -0.4167321850115931,0.4682030276080862 l -11.42394159932625 -10.345664916828907" fill="#ffa80f" stroke="none" /><path d="M 115.07121518719521 114.62390073753431 l 24.34600420889124 23.623413539268633 a54.923348717168984,54.923348717168984 0 0,0 -0.6642047290509089,0.6728358838050756 l -23.935758854784797 -24.038989917054373" fill="#72ff27" stroke="none" /><path d="M 114.81725581225074 114.88116024355365 l 29.21322363051781 29.33921554604441 a62.40292264736752,62.40292264736752 0 0,0 -0.7677046684684299,0.7513605985103609 l -28.703869009673586 -29.83772624747734" fill="#31ff3f" stroke="none" /><path d="M 114.55890576462653 115.13401014063108 l 10.501291578161112 10.916112502064186 a36.147231990277284,36.147231990277284 0 0,0 -0.452122977609909,0.4275104954235555 l -10.311832766160396 -11.095257634233663" fill="#ffa50f" stroke="none" /><path d="M 114.29624159901734 115.38237550388516 l 20.817648509673017 22.399235789754453 a51.57940897789406,51.57940897789406 0 0,0 -0.6555508330682289,0.598830143047596 l -20.428998127137923 -22.75425869938863" fill="#97ff23" stroke="none" /><path d="M 113.75828350139079 115.86535959552629 l 20.048633698151423 23.119074627878145 a51.60129612960947,51.60129612960947 0 0,0 -0.676061810410798,0.5761545416798322 l -19.647706411163576 -23.460753559780922" fill="#97ff23" stroke="none" /><path d="M 113.48314897796784 116.09983520530334 l 20.131782194367386 24.03877434329333 a52.35524399919773,52.35524399919773 0 0,0 -0.6959005965479712,0.572678814287578 l -19.715011469274724 -24.381748276438085" fill="#8eff24" stroke="none" /><path d="M 113.20401910651253 116.32954008644616 l 27.65776155878448 34.20462530630406 a64.98759105460576,64.98759105460576 0 0,0 -0.8759167006835742,0.6958812018421278 l -27.06488736538355 -34.67564042215132" fill="#34ff5f" stroke="none" /><path d="M 112.92097659922987 116.55440617244103 l 17.83409652795713 22.849114799876606 a49.98511766590629,49.98511766590629 0 0,0 -0.6828235362486126,0.5235599705061442 l -17.438144263215023 -23.15271411221012" fill="#aaff21" stroke="none" /><path d="M 112.63410532772338 116.77436683061366 l 9.332943055161946 12.391396648639882 a36.51291516688012,36.51291516688012 0 0,0 -0.5052953295870152,0.3738054049232391 l -9.118262755156366 -12.550212002302889" fill="#ffaa0f" stroke="none" /><path d="M 112.04921762599082 117.19931262002967 l 8.961774977870336 12.792230521446541 a36.619045184255384,36.619045184255384 0 0,0 -0.5193681190387632,0.35722612812621474 l -8.74024997420869 -12.94459743893785" fill="#ffab0f" stroke="none" /><path d="M 111.7513745106137 117.40417183066458 l 8.794584168136742 13.025068165706909 a36.71614174699862,36.71614174699862 0 0,0 -0.5268334510962162,0.34915648403653726 l -8.569076018300562 -13.174522670834763" fill="#ffad10" stroke="none" /><path d="M 111.45004920935366 117.60387380957326 l 8.457198196529308 13.002516156230254 a36.51095186403489,36.51095186403489 0 0,0 -0.5297881646457131,0.33813587273634504 l -8.232128229836665 -13.146166457790407" fill="#ffaa0f" stroke="none" /><path d="M 111.1453310114006 117.79835938074945 l 19.739609550138564 31.522856023716184 a58.193314413801055,58.193314413801055 0 0,0 -0.8535595840157005,0.5243260114558829 l -19.194070766190556 -31.857970502000445" fill="#4eff2b" stroke="none" /><line stroke="#e1ed5e" stroke-width="0.3" x1="143.8653032363475" x2="146.44561519142675" y1="172.8068346515853" y2="177.08958963109032" /><path d="M 144.38136562736335 173.6633856474863 a86.0,86.0 0 0,1 -40.68145358897372,12.25698825130547" fill="none" id="id102" stroke="none" /><text fill="#e1ed5e" style="font-size:6.75px; font-family:Arial;" text-anchor="middle"><textPath startOffset="21.466115282336833" xlink:href="#id102">June</textPath></text><path d="M 110.5260780823613 118.17145234162733 l 13.171349727951728 22.738056091133394 a47.27743610894226,47.27743610894226 0 0,0 -0.7077009684595347,0.4018510797520435 l -12.777999992570996 -22.961410336680068" fill="#caff1d" stroke="none" /><path d="M 110.21172684928248 118.3499491758327 l 8.462486386798927 15.206653819755012 a38.40275829403566,38.40275829403566 0 0,0 -0.5803885449451889,0.3164741105234704 l -8.19947502998509 -15.350068582038253" fill="#ffc312" stroke="none" /><path d="M 109.89434966115114 118.52300852407294 l 7.04245937691898 13.184043371874418 a35.94708110993648,35.94708110993648 0 0,0 -0.5482941479586005,0.2868415842301643 l -6.814474326433883 -13.303314375049299" fill="#ffa20f" stroke="none" /><path d="M 109.57404056367764 118.69057910512821 l 16.746560604444266 32.69287545152793 a57.732429777615344,57.732429777615344 0 0,0 -0.8883813848864683,0.44545286887710067 l -16.181325311875035 -32.97629616131434" fill="#53ff2b" stroke="none" /><path d="M 109.2508944713604 118.85261126421891 l 5.820585852211112 11.861906190960099 a34.213025321480984,34.213025321480984 0 0,0 -0.5309329305551389,0.2548800714075221 l -5.61554025365574 -11.96034053886718" fill="#ff8a0c" stroke="none" /><path d="M 108.92500713936063 119.00905698771935 l 5.480301265815307 11.672299802688627 a33.89481619287153,33.89481619287153 0 0,0 -0.5302634236637623,0.24341793002547674 l -5.2785698463841255 -11.764904803048179" fill="#ff860c" stroke="none" /><path d="M 108.59647513512805 119.15986991738527 l 3.884891158097687 8.658666262895343 a30.49025188087585,30.49025188087585 0 0,0 -0.4806996201064538,0.21072458699502447 l -3.7352708633334792 -8.724255403184822" fill="#ff5507" stroke="none" /><path d="M 108.2653958097858 119.30500536409082 l 11.568845669875568 27.02068150794033 a50.393118570286944,50.393118570286944 0 0,0 -0.800359204196152,0.334550212265045 l -11.102015006181954 -27.215816763225348" fill="#a5ff21" stroke="none" /><path d="M 107.93186726928326 119.44442032107085 l 10.531232714085363 25.816583717265257 a48.881945005841814,48.881945005841814 0 0,0 -0.7818292899782294,0.3111060095999885 l -10.085282348065267 -25.994036571271312" fill="#b7ff1f" stroke="none" /><path d="M 107.59598834532513 119.57807347666477 l 5.713260330835705 14.725487384042037 a36.79497775577674,36.79497775577674 0 0,0 -0.5924513193186376,0.22401439492207847 l -5.4589387907567914 -14.821650029070746" fill="#ffae10" stroke="none" /><path d="M 107.2578585660854 119.70592522655815 l 10.138153613538398 27.526259326310093 a50.33389014759166,50.33389014759166 0 0,0 -0.8156018216493882,0.29244579552058014 l -9.662832231259275 -27.696692662870632" fill="#a5ff21" stroke="none" /><path d="M 106.91757812671514 119.82793768551818 l 10.797619779010743 30.949347908819064 a53.778815245112305,53.778815245112305 0 0,0 -0.8766721992942298,0.29741480812976323 l -10.263277846779285 -31.13062570384695" fill="#7eff26" stroke="none" /><path d="M 106.57524785965236 119.94407469862006 l 5.817294774945559 17.645047610652423 a39.579252505975575,39.579252505975575 0 0,0 -0.648871038812538,0.20774801595573156 l -5.5127023910420805 -17.74256847326786" fill="#ffd313" stroke="none" /><path d="M 106.2309692047433 120.05430185196036 l 1.1219083067396782 3.610848825324297 a24.781125161651932,24.781125161651932 0 0,0 -0.4084460752369639,0.12306145193465183 l -1.0595872570624685 -3.6296256463646746" fill="#ff0000" stroke="none" /><path d="M 105.88484417918355 120.15858648285463 l 8.48117396880502 29.052337448637623 a51.26497353573348,51.26497353573348 0 0,0 -0.8492136410011384,0.239996257512707 l -7.979829159699276 -29.19402249948885" fill="#9bff22" stroke="none" /><path d="M 105.53697534728816 120.25689768951611 l 2.031965532262804 7.433899433168027 a28.70660396716738,28.70660396716738 0 0,0 -0.4777729733785896,0.12618418468026688 l -1.903702116072717 -7.467774967151878" fill="#ff3b05" stroke="none" /><path d="M 105.18746579009965 120.34920634021253 l 4.193908682068259 16.45171584674225 a37.97786277290159,37.97786277290159 0 0,0 -0.6348573323285803,0.15603248628420927 l -3.9100980649964683 -16.521469591340487" fill="#ffbe11" stroke="none" /><path d="M 104.83641907484287 120.43548508189849 l 7.555559610114317 31.924761545380026 a53.80665909158331,53.80665909158331 0 0,0 -0.9031315789652613,0.20554980702851416 l -7.004907881756194 -32.050088085986225" fill="#7eff26" stroke="none" /><path d="M 100.90346689309514 120.98055641714683 l 0.6477106276415475 15.041314152269665 a36.05525358419537,36.05525358419537 0 0,0 -0.620287111199016,0.02136394229268798 l -0.38870316476787925 -15.050234892988447" fill="#ffa30f" stroke="none" /><line stroke="#e1ed5e" stroke-width="0.3" x1="102.19456741930631" x2="102.32365962044197" y1="184.97166512339345" y2="189.96999836594603" /><path d="M 102.22038585953345 185.97133177190398 a86.0,86.0 0 0,1 -42.740103519485714,-10.115201625700543" fill="none" id="id103" stroke="none" /><text fill="#e1ed5e" style="font-size:6.75px; font-family:Arial;" text-anchor="middle"><textPath startOffset="22.20632615414155" xlink:href="#id103">July</textPath></text><path d="M 100.54218724476979 120.99299961872073 l 0.25084984617632866 9.712679108435562 a30.715917924147327,30.715917924147327 0 0,0 -0.5286652809397699,0.009101452246403513 l -0.08362487534389079 -9.715558037961125" fill="#ff5808" stroke="none" /><path d="M 96.93821686468263 120.77559828337769 l -2.2046182483194308 14.9593426676644 a36.120921753300216,36.120921753300216 0 0,0 -0.6143379916038951,-0.09594695978961115 l 2.461792103531843 -14.919177400527683" fill="#ffa40f" stroke="none" /><path d="M 96.58105272829116 120.7198165907248 l -3.1865786328055 19.31159493742412 a40.572735690500636,40.572735690500636 0 0,0 -0.6880962641125937,-0.11963435558320501 l 3.518523868390144 -19.25388200331991" fill="#ffe015" stroke="none" /><path d="M 96.22490169976321 120.6578951692458 l -3.3044386853998957 18.082376279290433 a39.38182925966327,39.38182925966327 0 0,0 -0.6658011802184984,-0.1276023808090363 l 3.6152074801900893 -18.02281670013293" fill="#ffd013" stroke="none" /><path d="M 95.86986931433489 120.58985236759428 l -3.3077725133707734 16.49016772090902 a37.818650078526545,37.818650078526545 0 0,0 -0.637169586428423,-0.13352508191992699 l 3.5911335612285833 -16.43078665826255" fill="#ffbb11" stroke="none" /><path d="M 94.81253420990036 120.34920634021253 l -2.3467904579719847 9.205906158967943 a30.500322818796857,30.500322818796857 0 0,0 -0.5076263963097295,-0.13406874500991986 l 2.5049072970932036 -9.16414606465444" fill="#ff5507" stroke="none" /><path d="M 94.11515582081647 120.15858648285463 l -10.443348780458791 35.77378485333166 a58.26697219365657,58.26697219365657 0 0,0 -0.960364630467565,-0.289349985168687 l 11.057588385366602 -35.58871949905725" fill="#4eff2c" stroke="none" /><path d="M 93.76903079525671 120.05430185196036 l -8.659633665567826 27.870930147511434 a50.18523603655275,50.18523603655275 0 0,0 -0.822747883759907,-0.2634178908580914 l 9.138102894418674 -27.717739409993637" fill="#a7ff21" stroke="none" /><path d="M 93.08242187328487 119.8279376855182 l -7.256024956367853 20.798031918686195 a43.02743811381893,43.02743811381893 0 0,0 -0.6972093117308358,-0.249994453667528 l 7.612953828728416 -20.67004992397871" fill="#feff18" stroke="none" /><line stroke="#e1ed5e" stroke-width="0.3" x1="58.666819895761336" x2="56.23545636021788" y1="174.27360380694188" y2="178.64263932499728" /><path d="M 58.180547188652646 175.14741091055294 a86.0,86.0 0 0,1 -31.652253787137756,-30.449443065178592" fill="none" id="id104" stroke="none" /><text fill="#e1ed5e" style="font-size:6.75px; font-family:Arial;" text-anchor="middle"><textPath startOffset="22.20632615414155" xlink:href="#id104">August</textPath></text><line stroke="#e1ed5e" stroke-width="0.3" x1="26.63291911575756" x2="22.317208475507996" y1="142.92168965132927" y2="145.44649492493687" /><path d="M 25.769776987707644 143.4266507060508 a86.0,86.0 0 0,1 -11.730757126820373,-40.83630448921669" fill="none" id="id105" stroke="none" /><text fill="#e1ed5e" style="font-size:6.75px; font-family:Arial;" text-anchor="middle"><textPath startOffset="21.46611528233685" xlink:href="#id105">September</textPath></text><line stroke="#e1ed5e" stroke-width="0.3" x1="15.007084014347285" x2="10.007500721073583" y1="101.09737516637583" y2="101.16192664675087" /><path d="M 14.007167355692545 101.11028546245083 a86.0,86.0 0 0,1 10.666146001902534,-42.60595125391555" fill="none" id="id106" stroke="none" /><text fill="#e1ed5e" style="font-size:6.75px; font-family:Arial;" text-anchor="middle"><textPath startOffset="22.20632615414155" xlink:href="#id106">October</textPath></text><line stroke="#e1ed5e" stroke-width="0.3" x1="26.266209847984243" x2="21.928928074336255" y1="57.711370442889674" y2="55.22380399835377" /><path d="M 25.398753493254645 57.213857153982495 a86.0,86.0 0 0,1 29.58750427330803,-30.492523968695096" fill="none" id="id107" stroke="none" /><text fill="#e1ed5e" style="font-size:6.75px; font-family:Arial;" text-anchor="middle"><textPath startOffset="21.46611528233685" xlink:href="#id107">November</textPath></text><line stroke="#e1ed5e" stroke-width="0.3" x1="56.762969772571076" x2="54.21961505331055" y1="26.818313649435495" y2="22.513508569990535" /><path d="M 56.25429882871897 25.957352633546506 a86.0,86.0 0 0,1 42.265352541879196,-11.944610805530505" fill="none" id="id108" stroke="none" /><text fill="#e1ed5e" style="font-size:6.75px; font-family:Arial;" text-anchor="middle"><textPath startOffset="22.20632615414155" xlink:href="#id108">December</textPath></text></svg>