<?xml version="1.0" encoding="utf-8" ?>
<svg baseProfile="full" height="200mm" version="1.1" viewBox="0,0,200,200" width="200mm" xmlns="http://www.w3.org/2000/svg" xmlns:ev="http://www.w3.org/2001/xml-events" xmlns:xlink="http://www.w3.org/1999/xlink"><defs /><rect fill="#1a1a1a" height="200" width="200" x="0" y="0" /><text alignment-baseline="middle" fill="#e1ed5e" style="dominant-baseline: central; font-size:9.0px; font-family:Arial;" text-anchor="middle" x="100.0" y="100.0">2022</text><line stroke="#e1ed5e" stroke-width="0.3" x1="100.0" x2="100.0" y1="15.0" y2="10.0" /><path d="M 100.0 14.0 a86.0,86.0 0 0,1 42.46469731375804,11.215312516191453" fill="none" id="id61" stroke="none" /><text fill="#e1ed5e" style="font-size:6.75px; font-family:Arial;" text-anchor="middle"><textPath startOffset="22.20632615414155" xlink:href="#id61">January</textPath></text><path d="M 106.40334571778207 80.00007090966166 l 9.407653063329466 -29.38345084985729 a51.852732780192284,51.852732780192284 0 0,0 0.8477111370054143,0.27947703382718975 l -9.912047022577298 29.217160091770864" fill="#ffc912" stroke="none" /><line stroke="#e1ed5e" stroke-width="0.3" x1="143.23703022742887" x2="145.7803849466894" y1="26.81831364943548" y2="22.513508569990506" /><path d="M 143.74570117128098 25.957352633546492 a86.0,86.0 0 0,1 28.547481713284135,27.462654790039103" fill="none" id="id62" stroke="none" /><text fill="#e1ed5e" style="font-size:6.75px; font-family:Arial;" text-anchor="middle"><textPath startOffset="19.985693538727396" xlink:href="#id62">February</textPath></text><path d="M 113.34407831869373 83.78471172551755 l 38.99401332532803 -47.38425179680006 a82.36611763472095,82.36611763472095 0 0,0 1.0870070815429353,0.9103371701420598 l -39.80387794383008 46.70601346926418" fill="#4ae8ff" stroke="none" /><line stroke="#e1ed5e" stroke-width="0.3" x1="172.23445277983987" x2="176.4835382374775" y1="55.19839476539836" y2="52.563006222186495" /><path d="M 173.08426987136738 54.67131705675599 a86.0,86.0 0 0,1 12.851231095245387,41.99856678651699" fill="none" id="id63" stroke="none" /><text fill="#e1ed5e" style="font-size:6.75px; font-family:Arial;" text-anchor="middle"><textPath startOffset="22.20632615414155" xlink:href="#id63">March</textPath></text><line stroke="#e1ed5e" stroke-width="0.3" x1="184.98032266829074" x2="189.97916517819016" y1="98.17113171792111" y2="98.06355123074" /><path d="M 185.9800911702706 98.14961562048488 a86.0,86.0 0 0,1 -9.607161424134198,41.387399972396054" fill="none" id="id64" stroke="none" /><text fill="#e1ed5e" style="font-size:6.75px; font-family:Arial;" text-anchor="middle"><textPath startOffset="21.466115282336823" xlink:href="#id64">April</textPath></text><path d="M 120.70491114924044 103.5080841355445 l 27.92240340687152 4.730961640543583 a49.32035681378971,49.32035681378971 0 0,0 -0.14902629071121867,0.8358185808178528 l -27.836830673821115 -5.210898972094654" fill="#ff980e" stroke="none" /><path d="M 120.02730092923936 106.31721596034902 l 27.612035721932507 8.709670533069891 a49.953115160616186,49.953115160616186 0 0,0 -0.2657214309199343,0.817806473416939 l -27.458022039996326 -9.183675906464625" fill="#ffa50f" stroke="none" /><line stroke="#e1ed5e" stroke-width="0.3" x1="174.80103733775053" x2="179.2010983576182" y1="140.37084112569926" y2="142.7455964860345" /><path d="M 175.68104954172406 140.8457921977663 a86.0,86.0 0 0,1 -30.038265399797805,32.042727171017184" fill="none" id="id65" stroke="none" /><text fill="#e1ed5e" style="font-size:6.75px; font-family:Arial;" text-anchor="middle"><textPath startOffset="22.206326154141568" xlink:href="#id65">May</textPath></text><path d="M 117.14729908036423 112.12312394758627 l 22.758267254350482 16.09007304670656 a48.87165547772135,48.87165547772135 0 0,0 -0.4915562484263005,0.6827286363396946 l -22.47793121354858 -16.479435288497385" fill="#ff900d" stroke="none" /><path d="M 115.80600337817218 113.82643327865902 l 21.14756318253072 18.499007266649087 a49.09684499033058,49.09684499033058 0 0,0 -0.561904390648251,0.6313055396008569 l -20.825999942234134 -18.86028697599081" fill="#ff940d" stroke="none" /><path d="M 114.55890576462653 115.13401014063108 l 23.619016127826068 24.55201203779604 a55.06844901005312,55.06844901005312 0 0,0 -0.6887861052675218,0.6512902543914546 l -23.192894188167738 -24.954936928933414" fill="#fbff18" stroke="none" /><path d="M 113.48314897796784 116.09983520530334 l 18.70096604063881 22.33027847769414 a50.12674832082181,50.12674832082181 0 0,0 -0.6662796578696958,0.5483027983385955 l -18.313816254224424 -22.64887639488991" fill="#ffa80f" stroke="none" /><path d="M 111.1453310114006 117.79835938074945 l 26.866853132516518 42.904594488329245 a71.62244586596132,71.62244586596132 0 0,0 -1.050533479925634,0.6453234662761921 l -26.124340452658576 -43.36070642143382" fill="#36ff72" stroke="none" /><line stroke="#e1ed5e" stroke-width="0.3" x1="143.8653032363475" x2="146.44561519142675" y1="172.8068346515853" y2="177.08958963109032" /><path d="M 144.38136562736335 173.6633856474863 a86.0,86.0 0 0,1 -40.68145358897372,12.25698825130547" fill="none" id="id66" stroke="none" /><text fill="#e1ed5e" style="font-size:6.75px; font-family:Arial;" text-anchor="middle"><textPath startOffset="21.466115282336833" xlink:href="#id66">June</textPath></text><path d="M 106.57524785965236 119.94407469862006 l 8.88066361161388 26.9368732896266 a49.363027497149204,49.363027497149204 0 0,0 -0.8092684147122596,0.2591021905366374 l -8.41567385181068 -27.085748326822944" fill="#ff990e" stroke="none" /><line stroke="#e1ed5e" stroke-width="0.3" x1="102.19456741930631" x2="102.32365962044197" y1="184.97166512339345" y2="189.96999836594603" /><path d="M 102.22038585953345 185.97133177190398 a86.0,86.0 0 0,1 -42.740103519485714,-10.115201625700543" fill="none" id="id67" stroke="none" /><text fill="#e1ed5e" style="font-size:6.75px; font-family:Arial;" text-anchor="middle"><textPath startOffset="22.20632615414155" xlink:href="#id67">July</textPath></text><path d="M 96.22490169976321 120.6578951692458 l -11.325294900710388 61.97368550773742 a84.0,84.0 0 0,0 -1.4201295417132198,-0.2721712066061275 l 12.390392056995301 -61.76955710278283" fill="#4dd2ff" stroke="none" /><path d="M 95.51606077576429 120.51570834832081 l -7.0594493838123835 32.299635970805134 a54.06209777750254,54.06209777750254 0 0,0 -0.9074190546725022,-0.20652562254065407 l 7.614388587877748 -32.1733336146868" fill="#fff116" stroke="none" /><line stroke="#e1ed5e" stroke-width="0.3" x1="58.666819895761336" x2="56.23545636021788" y1="174.27360380694188" y2="178.64263932499728" /><path d="M 58.180547188652646 175.14741091055294 a86.0,86.0 0 0,1 -31.652253787137756,-30.449443065178592" fill="none" id="id68" stroke="none" /><text fill="#e1ed5e" style="font-size:6.75px; font-family:Arial;" text-anchor="middle"><textPath startOffset="22.20632615414155" xlink:href="#id68">August</textPath></text><path d="M 84.9287848128048 114.62390073753433 l -20.151677122826932 19.55357429900159 a49.079037710171654,49.079037710171654 0 0,0 -0.5830903987291867,-0.6113679519028578 l 20.485274072935074 -19.203799230516232" fill="#ff940d" stroke="none" /><path d="M 82.85270091963577 112.12312394758628 l -22.910188708514557 16.197481368594296 a49.05771104965099,49.05771104965099 0 0,0 -0.4815577167846294,-0.6937198072999335 l 23.185607332461323 -15.800720299107349" fill="#ff930d" stroke="none" /><line stroke="#e1ed5e" stroke-width="0.3" x1="26.63291911575756" x2="22.317208475507996" y1="142.92168965132927" y2="145.44649492493687" /><path d="M 25.769776987707644 143.4266507060508 a86.0,86.0 0 0,1 -11.730757126820373,-40.83630448921669" fill="none" id="id69" stroke="none" /><text fill="#e1ed5e" style="font-size:6.75px; font-family:Arial;" text-anchor="middle"><textPath startOffset="21.46611528233685" xlink:href="#id69">September</textPath></text><line stroke="#e1ed5e" stroke-width="0.3" x1="15.007084014347285" x2="10.007500721073583" y1="101.09737516637583" y2="101.16192664675087" /><path d="M 14.007167355692545 101.11028546245083 a86.0,86.0 0 0,1 10.666146001902534,-42.60595125391555" fill="none" id="id70" stroke="none" /><text fill="#e1ed5e" style="font-size:6.75px; font-family:Arial;" text-anchor="middle"><textPath startOffset="22.20632615414155" xlink:href="#id70">October</textPath></text><path d="M 79.21141760316559 97.0276538004421 l -27.959467564329913 -3.9976375286250083 a49.243812283243344,49.243812283243344 0 0,0 0.12719936194986906,-0.8380848675823034 l 27.88651230894074 4.478321508599404" fill="#ff970d" stroke="none" /><line stroke="#e1ed5e" stroke-width="0.3" x1="26.266209847984243" x2="21.928928074336255" y1="57.711370442889674" y2="55.22380399835377" /><path d="M 25.398753493254645 57.213857153982495 a86.0,86.0 0 0,1 29.58750427330803,-30.492523968695096" fill="none" id="id71" stroke="none" /><text fill="#e1ed5e" style="font-size:6.75px; font-family:Arial;" text-anchor="middle"><textPath startOffset="21.46611528233685" xlink:href="#id71">November</textPath></text><path d="M 84.07557802195018 86.31012108654704 l -21.874077445564673 -18.804668199953433 a49.84598429946361,49.84598429946361 0 0,0 0.5649404681544478,-0.6458246149350659 l 21.547145113832382 19.17840837109144" fill="#ffa30f" stroke="none" /><path d="M 85.57189188830299 84.74124197986013 l -19.06384275859821 -20.161379533302622 a48.7472759998244,48.7472759998244 0 0,0 0.614661636725225,-0.5712610030909614 l 18.71397323807813 20.48654512246823" fill="#ff8d0d" stroke="none" /><line stroke="#e1ed5e" stroke-width="0.3" x1="56.762969772571076" x2="54.21961505331055" y1="26.818313649435495" y2="22.513508569990535" /><path d="M 56.25429882871897 25.957352633546506 a86.0,86.0 0 0,1 42.265352541879196,-11.944610805530505" fill="none" id="id72" stroke="none" /><text fill="#e1ed5e" style="font-size:6.75px; font-family:Arial;" text-anchor="middle"><textPath startOffset="22.20632615414155" xlink:href="#id72">December</textPath></text><path d="M 90.58718382345135 81.22770947309562 l -9.35534863727493 -18.65768111322009 a41.87178987647134,41.87178987647134 0 0,0 0.6470761388865198,-0.3175174511307971 l 9.032801231377986 18.815953724485716" fill="#ff0000" stroke="none" /></svg>