<?xml version="1.0" encoding="utf-8" ?>
<svg baseProfile="full" height="200mm" version="1.1" viewBox="0,0,200,200" width="200mm" xmlns="http://www.w3.org/2000/svg" xmlns:ev="http://www.w3.org/2001/xml-events" xmlns:xlink="http://www.w3.org/1999/xlink"><defs /><rect fill="#1a1a1a" height="200" width="200" x="0" y="0" /><text alignment-baseline="middle" fill="#e1ed5e" style="dominant-baseline: central; font-size:9.0px; font-family:Arial;" text-anchor="middle" x="100.0" y="100.0">2019</text><line stroke="#e1ed5e" stroke-width="0.3" x1="100.0" x2="100.0" y1="15.0" y2="10.0" /><path d="M 100.0 14.0 a86.0,86.0 0 0,1 42.46469731375804,11.215312516191453" fill="none" id="id25" stroke="none" /><text fill="#e1ed5e" style="font-size:6.75px; font-family:Arial;" text-anchor="middle"><textPath startOffset="22.20632615414155" xlink:href="#id25">January</textPath></text><line stroke="#e1ed5e" stroke-width="0.3" x1="143.23703022742887" x2="145.7803849466894" y1="26.81831364943548" y2="22.513508569990506" /><path d="M 143.74570117128098 25.957352633546492 a86.0,86.0 0 0,1 28.547481713284135,27.462654790039103" fill="none" id="id26" stroke="none" /><text fill="#e1ed5e" style="font-size:6.75px; font-family:Arial;" text-anchor="middle"><textPath startOffset="19.985693538727396" xlink:href="#id26">February</textPath></text><line stroke="#e1ed5e" stroke-width="0.3" x1="172.23445277983987" x2="176.4835382374775" y1="55.19839476539836" y2="52.563006222186495" /><path d="M 173.08426987136738 54.67131705675599 a86.0,86.0 0 0,1 12.851231095245387,41.99856678651699" fill="none" id="id27" stroke="none" /><text fill="#e1ed5e" style="font-size:6.75px; font-family:Arial;" text-anchor="middle"><textPath startOffset="22.20632615414155" xlink:href="#id27">March</textPath></text><line stroke="#e1ed5e" stroke-width="0.3" x1="184.98032266829074" x2="189.97916517819016" y1="98.17113171792111" y2="98.06355123074" /><path d="M 185.9800911702706 98.14961562048488 a86.0,86.0 0 0,1 -9.607161424134198,41.387399972396054" fill="none" id="id28" stroke="none" /><text fill="#e1ed5e" style="font-size:6.75px; font-family:Arial;" text-anchor="middle"><textPath startOffset="21.466115282336823" xlink:href="#id28">April</textPath></text><path d="M 120.99980553446 99.90962569577887 l 28.188053784895907 -0.12130949231779481 a49.18831481612746,49.18831481612746 0 0,0 -0.003643923556391837,0.8467195042458734 l -28.18596556405001 -0.36391949013176333" fill="#fffb17" stroke="none" /><path d="M 120.81339534386255 102.79330883721812 l 20.506139653837767 2.7520728918064075 a41.689989577196826,41.689989577196826 0 0,0 -0.10157656570596546,0.710426263966163 l -20.455729037115198 -3.10464462775298" fill="#ff840c" stroke="none" /><path d="M 120.64145759157962 103.86396538481128 l 34.09783363803556 6.382923700512784 a55.69011348747244,55.69011348747244 0 0,0 -0.18449356799601566,0.9407287284623401 l -33.98291013706388 -6.968916156043068" fill="#a5ff21" stroke="none" /><path d="M 120.5718875245553 104.21870165774334 l 40.56300400075999 8.318303899765997 a62.40714278158459,62.40714278158459 0 0,0 -0.22486173566807288,1.0504791687148636 l -40.41380822636747 -9.015296887897028" fill="#4cff2c" stroke="none" /><path d="M 120.49622156327973 104.57218783832717 l 33.90418218273955 7.563164213743267 a55.73751606555138,55.73751606555138 0 0,0 -0.2169501437921376,0.9346155413437401 l -33.768971473016855 -8.145648412435573" fill="#a4ff21" stroke="none" /><path d="M 120.41448212921028 104.9243191809786 l 33.89900284436936 8.177014183657558 a55.87127693105458,55.87127693105458 0 0,0 -0.2335650462111413,0.9329762570018733 l -33.753226483863166 -8.759318280056828" fill="#a2ff22" stroke="none" /><path d="M 120.02730092923936 106.31721596034902 l 33.11587347261466 10.445747291721826 a55.72426690855744,55.72426690855744 0 0,0 -0.29642059143451377,0.9122887743377615 l -32.9311606301639 -11.014234966037382" fill="#a4ff21" stroke="none" /><path d="M 119.9155931802556 106.66101706037122 l 33.06343742607054 11.058476580447287 a55.86374619440635,55.86374619440635 0 0,0 -0.31286137001535164,0.9093215884256813 l -32.868185225111965 -11.62597087196227" fill="#a2ff22" stroke="none" /><path d="M 119.79798401119884 107.00284435728193 l 44.983037674715035 15.911176177109333 a68.71414052232151,68.71414052232151 0 0,0 -0.4040252038278259,1.1117038390137624 l -44.702488209881984 -16.683127813129225" fill="#35ff69" stroke="none" /><path d="M 119.26925614724726 108.34839909993367 l 32.26663026559144 13.979507304729971 a56.16478427602507,56.16478427602507 0 0,0 -0.3919738028474426,0.8837974473591343 l -32.02121537801272 -14.532853088581794" fill="#9eff22" stroke="none" /><path d="M 119.12269723197855 108.67885076344098 l 31.930456749740184 14.491662215729676 a56.06511574231341,56.06511574231341 0 0,0 -0.4064063678948982,0.8753631608378236 l -31.676275765005453 -15.03914544384633" fill="#9fff22" stroke="none" /><line stroke="#e1ed5e" stroke-width="0.3" x1="174.80103733775053" x2="179.2010983576182" y1="140.37084112569926" y2="142.7455964860345" /><path d="M 175.68104954172406 140.8457921977663 a86.0,86.0 0 0,1 -30.038265399797805,32.042727171017184" fill="none" id="id29" stroke="none" /><text fill="#e1ed5e" style="font-size:6.75px; font-family:Arial;" text-anchor="middle"><textPath startOffset="22.206326154141568" xlink:href="#id29">May</textPath></text><path d="M 118.48025628344425 109.97397251340804 l 30.636916930061506 16.535039485883598 a55.814195521068974,55.814195521068974 0 0,0 -0.4635863041123964,0.8415437997085534 l -30.3477542164976 -17.059953803989956" fill="#a3ff22" stroke="none" /><path d="M 116.71984013943494 112.70617746262583 l 21.70542902264447 16.49495633715254 a48.26186408926627,48.26186408926627 0 0,0 -0.508342634518753,0.6571013803922185 l -21.41827957090765 -16.866135711658014" fill="#ffed16" stroke="none" /><path d="M 116.498646956653 112.99209946851258 l 19.974919932607623 15.729541175215223 a46.42471026180783,46.42471026180783 0 0,0 -0.49979978229704586,0.6235770761452462 l -19.701202238255725 -16.071046084938718" fill="#ffd113" stroke="none" /><path d="M 116.27256486870786 113.27417163493432 l 27.034513146833095 22.053116424690998 a55.88846292296735,55.88846292296735 0 0,0 -0.6145176023197405,0.7402260390113232 l -26.650899544619815 -22.515203720816093" fill="#a2ff22" stroke="none" /><path d="M 115.80600337817218 113.82643327865902 l 31.414165946396388 27.479803658804503 a62.737146898586346,62.737146898586346 0 0,0 -0.7180151454946394,0.8066976275895239 l -30.936491951253412 -28.01647545613489" fill="#48ff2c" stroke="none" /><path d="M 115.56566222782051 114.09645910891815 l 31.488071366358827 28.51599269841821 a63.48129562465282,63.48129562465282 0 0,0 -0.7404748280163889,0.8036391802571176 l -30.992550130346714 -29.05378313347666" fill="#3fff2d" stroke="none" /><path d="M 115.32070863581623 114.36230785411682 l 28.209605569078622 26.44492818557738 a59.666730830306,59.666730830306 0 0,0 -0.7088789734664812,0.7432567696188174 l -27.750220044233178 -26.926592071778703" fill="#6fff27" stroke="none" /><path d="M 114.81725581225074 114.88116024355365 l 38.930078232809066 39.097977372944634 a76.17429497390904,76.17429497390904 0 0,0 -0.9371253682976047,0.9171744116237401 l -38.251302912135664 -39.76230188749094" fill="#41ffce" stroke="none" /><path d="M 114.55890576462653 115.13401014063108 l 24.902977737883514 25.886692565367188 a56.92045590171927,56.92045590171927 0 0,0 -0.7119506693104725,0.6731937955532508 l -24.453691234182234 -26.31152099766636" fill="#94ff23" stroke="none" /><path d="M 114.29624159901734 115.38237550388516 l 27.855638567611845 29.97192579460628 a61.91763600022379,61.91763600022379 0 0,0 -0.7869449973526882,0.7188555967958835 l -27.335594020792293 -30.446974157988745" fill="#52ff2b" stroke="none" /><path d="M 112.92097659922987 116.55440617244103 l 24.47985838082672 31.363691093148024 a60.78623612924129,60.78623612924129 0 0,0 -0.8303726118328656,0.6366943098487965 l -23.936357040500358 -31.78042474482419" fill="#61ff29" stroke="none" /><path d="M 112.63410532772338 116.77436683061366 l 33.45612730608004 44.419872844690346 a76.60968942422798,76.60968942422798 0 0,0 -1.060187007535553,0.7843010026831022 l -32.68655532812593 -44.98918379611322" fill="#42ffd4" stroke="none" /><path d="M 112.04921762599082 117.19931262002967 l 17.81254366592196 25.426008275199408 a52.04462286227496,52.04462286227496 0 0,0 -0.738149171996528,0.5077057313027155 l -17.372237609302548 -25.728854795867218" fill="#d8ff1c" stroke="none" /><path d="M 111.45004920935366 117.60387380957326 l 20.23602453332153 31.11186823555402 a58.11394662414206,58.11394662414206 0 0,0 -0.8432560519642589,0.5382059096428073 l -19.69748667931034 -31.455588574020634" fill="#84ff25" stroke="none" /><line stroke="#e1ed5e" stroke-width="0.3" x1="143.8653032363475" x2="146.44561519142675" y1="172.8068346515853" y2="177.08958963109032" /><path d="M 144.38136562736335 173.6633856474863 a86.0,86.0 0 0,1 -40.68145358897372,12.25698825130547" fill="none" id="id30" stroke="none" /><text fill="#e1ed5e" style="font-size:6.75px; font-family:Arial;" text-anchor="middle"><textPath startOffset="21.466115282336833" xlink:href="#id30">June</textPath></text><path d="M 108.2653958097858 119.30500536409082 l 16.31269351141914 38.10061163288405 a62.445875263979595,62.445875263979595 0 0,0 -0.9917848398666052,0.41456614350037313 l -15.654437212055074 -38.3757628194044" fill="#4cff2c" stroke="none" /><path d="M 106.2309692047433 120.05430185196036 l 11.109840885508328 35.756893562502064 a58.44307681990643,58.44307681990643 0 0,0 -0.9632672122895614,0.29022450926141274 l -10.49269869877852 -35.94283344086921" fill="#7fff26" stroke="none" /><path d="M 105.88484417918355 120.15858648285463 l 11.648468992907148 39.90193494281223 a62.5674300632014,62.5674300632014 0 0,0 -1.0364408957515545,0.2929085498676738 l -10.959896929050988 -40.09653228601843" fill="#4aff2c" stroke="none" /><path d="M 101.26447882468166 120.96189622390904 l 2.1830566035759076 36.18961826948584 a57.25540244743561,57.25540244743561 0 0,0 -0.9842801633958246,0.050876041598907004 l -1.5597883717666032 -36.22183411784695" fill="#8fff24" stroke="none" /><line stroke="#e1ed5e" stroke-width="0.3" x1="102.19456741930631" x2="102.32365962044197" y1="184.97166512339345" y2="189.96999836594603" /><path d="M 102.22038585953345 185.97133177190398 a86.0,86.0 0 0,1 -42.740103519485714,-10.115201625700543" fill="none" id="id31" stroke="none" /><text fill="#e1ed5e" style="font-size:6.75px; font-family:Arial;" text-anchor="middle"><textPath startOffset="22.20632615414155" xlink:href="#id31">July</textPath></text><line stroke="#e1ed5e" stroke-width="0.3" x1="58.666819895761336" x2="56.23545636021788" y1="174.27360380694188" y2="178.64263932499728" /><path d="M 58.180547188652646 175.14741091055294 a86.0,86.0 0 0,1 -31.652253787137756,-30.449443065178592" fill="none" id="id32" stroke="none" /><text fill="#e1ed5e" style="font-size:6.75px; font-family:Arial;" text-anchor="middle"><textPath startOffset="22.20632615414155" xlink:href="#id32">August</textPath></text><line stroke="#e1ed5e" stroke-width="0.3" x1="26.63291911575756" x2="22.317208475507996" y1="142.92168965132927" y2="145.44649492493687" /><path d="M 25.769776987707644 143.4266507060508 a86.0,86.0 0 0,1 -11.730757126820373,-40.83630448921669" fill="none" id="id33" stroke="none" /><text fill="#e1ed5e" style="font-size:6.75px; font-family:Arial;" text-anchor="middle"><textPath startOffset="21.46611528233685" xlink:href="#id33">September</textPath></text><path d="M 79.04373962182676 101.35467743843564 l -13.054625244728317 0.8438913225512902 a34.081872681102475,34.081872681102475 0 0,0 -0.03280566740341081,-0.5857672290887835 l 13.06721726301926 -0.6190523771270691" fill="#ff0000" stroke="none" /><line stroke="#e1ed5e" stroke-width="0.3" x1="15.007084014347285" x2="10.007500721073583" y1="101.09737516637583" y2="101.16192664675087" /><path d="M 14.007167355692545 101.11028546245083 a86.0,86.0 0 0,1 10.666146001902534,-42.60595125391555" fill="none" id="id34" stroke="none" /><text fill="#e1ed5e" style="font-size:6.75px; font-family:Arial;" text-anchor="middle"><textPath startOffset="22.20632615414155" xlink:href="#id34">October</textPath></text><path d="M 81.43458229118936 90.18545643968196 l -31.003617026886165 -16.389954409341758 a56.06928676620223,56.06928676620223 0 0,0 0.45841154382637356,-0.8493669700625646 l 30.71689738384132 16.921202362736793" fill="#9fff22" stroke="none" /><line stroke="#e1ed5e" stroke-width="0.3" x1="26.266209847984243" x2="21.928928074336255" y1="57.711370442889674" y2="55.22380399835377" /><path d="M 25.398753493254645 57.213857153982495 a86.0,86.0 0 0,1 29.58750427330803,-30.492523968695096" fill="none" id="id35" stroke="none" /><text fill="#e1ed5e" style="font-size:6.75px; font-family:Arial;" text-anchor="middle"><textPath startOffset="21.46611528233685" xlink:href="#id35">November</textPath></text><path d="M 82.15384107792192 88.93136811851018 l -29.37325558996294 -18.21802409727473 a55.56420903134009,55.56420903134009 0 0,0 0.511117705775036,-0.8084654653535712 l 29.055310287941943 18.720937210342516" fill="#a6ff21" stroke="none" /><path d="M 86.65592168130627 83.78471172551755 l -22.94679234058648 -27.884192815028374 a57.112096140596414,57.112096140596414 0 0,0 0.76447695837996,-0.6181538678677205 l 22.46341198364202 28.27505278016023" fill="#91ff24" stroke="none" /><path d="M 88.09926311788651 82.69761687909137 l -19.723698656841478 -28.67612267228074 a55.80437185500672,55.80437185500672 0 0,0 0.7961298971119926,-0.5375504603773088 l 19.22716406532295 29.011385044956715" fill="#a3ff22" stroke="none" /><line stroke="#e1ed5e" stroke-width="0.3" x1="56.762969772571076" x2="54.21961505331055" y1="26.818313649435495" y2="22.513508569990535" /><path d="M 56.25429882871897 25.957352633546506 a86.0,86.0 0 0,1 42.265352541879196,-11.944610805530505" fill="none" id="id36" stroke="none" /><text fill="#e1ed5e" style="font-size:6.75px; font-family:Arial;" text-anchor="middle"><textPath startOffset="22.20632615414155" xlink:href="#id36">December</textPath></text><path d="M 90.26544431104013 81.39251694778311 l -16.273999892670677 -31.107549935543577 a56.10730316471179,56.10730316471179 0 0,0 0.8596160172820849,-0.44032871171913496 l 15.736123387799827 31.383071172575217" fill="#9fff22" stroke="none" /><path d="M 92.23578459929587 80.48803036053334 l -23.29264620211241 -58.53590891839998 a84.0,84.0 0 0,0 1.3480673400012946,-0.5230291844377941 l 22.28159569711144 58.92818080672833" fill="#4dd2ff" stroke="none" /><path d="M 92.91201910852362 80.23233633223022 l -11.730862152415067 -32.716191128671255 a55.755751880900405,55.755751880900405 0 0,0 0.9062114997111256,-0.3161593983199799 l 11.165968648640657 32.913271380163444" fill="#a4ff21" stroke="none" /><path d="M 93.94186890950719 79.89281104454417 l -10.326911473690753 -34.27544852134811 a56.797366829489434,56.797366829489434 0 0,0 0.9385353284468619,-0.2739841987069021 l 9.73538592752047 34.448131048973714" fill="#95ff23" stroke="none" /><path d="M 94.28887869178378 79.79150937346287 l -9.443661531979018 -33.415880218589415 a55.72468565608184,55.72468565608184 0 0,0 0.9253007386009663,-0.2529196452975451 l 8.867062904154329 33.57348640471326" fill="#a4ff21" stroke="none" /><path d="M 95.33964822691252 79.52364482259891 l -12.243002595772783 -53.79252077849125 a76.16816477158282,76.16816477158282 0 0,0 1.2809210274741878,-0.2799597235798096 l 11.315238844145075 53.99529400016693" fill="#41ffce" stroke="none" /><path d="M 96.40284397218896 79.31037775812273 l -9.43521156037052 -54.26813889834259 a76.0822486530711,76.0822486530711 0 0,0 1.2922055250395033,-0.21322498367570308 l 8.499676829192133 54.42251014495792" fill="#41ffcd" stroke="none" /><path d="M 96.75951476605007 79.25152402106235 l -8.582375906648071 -54.95202338084553 a76.61818092900924,76.61818092900924 0 0,0 1.3048113411116111,-0.19229527373864969 l 7.635195585107811 55.09161313874515" fill="#42ffd4" stroke="none" /><path d="M 97.47563105711357 79.15227682838746 l -6.650886798977173 -54.92693420331254 a76.32813385781084,76.32813385781084 0 0,0 1.3056955781282331,-0.1467101117399554 l 5.7044245173392225 55.0332802685231" fill="#41ffd0" stroke="none" /><path d="M 97.83486435360386 79.11191278185805 l -3.0804576293869346 -29.71863113589521 a50.87785560909364,50.87785560909364 0 0,0 0.8718886581544706,-0.08279633388933536 l 2.568443844142228 29.76725301429973" fill="#e9ff1a" stroke="none" /><path d="M 98.55514903715128 79.0497635885617 l -3.7973783047815663 -55.06171589627866 a76.19250528316442,76.19250528316442 0 0,0 1.3091975000072977,-0.07897436846372478 l 2.8490187559346456 55.1189235341227" fill="#41ffce" stroke="none" /><path d="M 98.91598698831166 79.02799685794201 l -1.7914151265596914 -34.657853049592 a55.7041200171216,55.7041200171216 0 0,0 0.9580025532318489,-0.041253605154070554 l 1.1945717409385184 34.68355438127026" fill="#a4ff21" stroke="none" /><path d="M 99.27714615592234 79.0124445844662 l -1.1939187643870868 -34.66459566413748 a55.68515005840532,55.68515005840532 0 0,0 0.9582442879182862,-0.024748622860904332 l 0.5970478412739216 34.68001107914075" fill="#a5ff21" stroke="none" /><path d="M 99.63851952072746 79.00311137660856 l -0.435764927678197 -25.311761428591108 a46.31551219489953,46.31551219489953 0 0,0 0.7972454069507265,-0.006862142916982545 l 6.2005121956518995e-15 25.315512194899533" fill="#ffcf13" stroke="none" /></svg>