<?xml version="1.0" encoding="utf-8" ?>
<svg baseProfile="full" height="200mm" version="1.1" viewBox="0,0,200,200" width="200mm" xmlns="http://www.w3.org/2000/svg" xmlns:ev="http://www.w3.org/2001/xml-events" xmlns:xlink="http://www.w3.org/1999/xlink"><defs /><rect fill="#1a1a1a" height="200" width="200" x="0" y="0" /><text alignment-baseline="middle" fill="#e1ed5e" style="dominant-baseline: central; font-size:9.0px; font-family:Arial;" text-anchor="middle" x="100.0" y="100.0">2026</text><line stroke="#e1ed5e" stroke-width="0.3" x1="100.0" x2="100.0" y1="15.0" y2="10.0" /><path d="M 100.0 14.0 a86.0,86.0 0 0,1 42.46469731375804,11.215312516191453" fill="none" id="id109" stroke="none" /><text fill="#e1ed5e" style="font-size:6.75px; font-family:Arial;" text-anchor="middle"><textPath startOffset="22.20632615414155" xlink:href="#id109">January</textPath></text><path d="M 100.0 79.0 l 0.0 -34.424044711681404 a55.424044711681404,55.424044711681404 0 0,0 0.9540338212190779,0.008211670298459352 l -0.5925533419465495 34.418944417991504" fill="#76ff27" stroke="none" /><path d="M 100.36148047927253 79.00311137660856 l 0.8664282473896877 -50.32719179528898 a71.33464941675543,71.33464941675543 0 0,0 1.2275448708060652,0.03170386240278485 l -1.7325997533906208 50.30482114074384" fill="#3cffa4" stroke="none" /><path d="M 100.72285384407766 79.0124445844662 l 2.1685615322329816 -62.9626662466014 a84.0,84.0 0 0,0 1.4446366704426739,0.062209093903220936 l -3.2520390350649873 62.916009426173986" fill="#4dd2ff" stroke="none" /><path d="M 101.80526077348638 79.07773832637324 l 1.1659912166379987 -13.51337917598349 a34.5635892104996,34.5635892104996 0 0,0 0.5923127273539786,0.05624723051761358 l -1.3984290710822214 13.491306400950698" fill="#ff780b" stroke="none" /><path d="M 103.95276090670814 79.375362276772 l 2.48793260519236 -12.98148556742145 a34.217744746557585,34.217744746557585 0 0,0 0.5775199109742769,0.11584506111619677 l -2.7110189256337622 12.936736550228044" fill="#ff730a" stroke="none" /><path d="M 106.0581310904928 79.89281104454417 l 10.478919055385518 -34.77996800469105 a57.32428827901043,57.32428827901043 0 0,0 0.9423420387077109,0.2927902585124841 l -11.076046466803948 34.594437611296044" fill="#61ff29" stroke="none" /><path d="M 106.40334571778207 80.00007090966166 l 6.709116125581384 -20.9549589674427 a43.002784926316565,43.002784926316565 0 0,0 0.7030283217437768,0.2317773843948013 l -7.068827269567579 20.836367858788662" fill="#ffee16" stroke="none" /><path d="M 106.74666289553966 80.11325718540242 l 4.264074311313534 -12.56896194227912 a34.27257073964441,34.27257073964441 0 0,0 0.5570402457359579,0.1943404039653344 l -4.4797965611127655 12.49370068514158" fill="#ff740a" stroke="none" /><path d="M 107.08798089147638 80.2323363322302 l 7.2105138051039095 -20.109395602703994 a42.36303585260402,42.36303585260402 0 0,0 0.6842995473872997,0.2520332983441835 l -7.555595678263786 19.98229903655349" fill="#ffe515" stroke="none" /><path d="M 107.4271985657038 80.35727306442388 l 5.117961174282325 -13.535482177294107 a35.47075686870966,35.47075686870966 0 0,0 0.5692496292837548,0.22086001233848995 l -5.350193968565747 13.44537946106507" fill="#ff850c" stroke="none" /><path d="M 107.76421540070413 80.48803036053334 l 5.518889436442449 -13.869321955914883 a35.92703025147664,35.92703025147664 0 0,0 0.5726360258550096,0.23359261298058848 l -5.756809331885846 13.772268456750714" fill="#ff8c0c" stroke="none" /><path d="M 108.43124777332544 80.76684994638697 l 8.168696622110016 -18.634224980618377 a41.34605478053113,41.34605478053113 0 0,0 0.6493651522605348,0.2913512152794471 l -8.488243892837332 18.490853434822398" fill="#ffd714" stroke="none" /><path d="M 109.73455568895987 81.39251694778311 l 10.2195639018398 -19.534570264998937 a43.046290431316734,43.046290431316734 0 0,0 0.6535963301241097,0.34912852407796297 l -10.55430527849222 19.35576301441922" fill="#ffee16" stroke="none" /><line stroke="#e1ed5e" stroke-width="0.3" x1="143.23703022742887" x2="145.7803849466894" y1="26.81831364943548" y2="22.513508569990506" /><path d="M 143.74570117128098 25.957352633546492 a86.0,86.0 0 0,1 28.547481713284135,27.462654790039103" fill="none" id="id110" stroke="none" /><text fill="#e1ed5e" style="font-size:6.75px; font-family:Arial;" text-anchor="middle"><textPath startOffset="19.985693538727396" xlink:href="#id110">February</textPath></text><path d="M 114.16331599549186 84.49514656593476 l 9.04727472729728 -9.904225018287846 a34.414427054633045,34.414427054633045 0 0,0 0.43393661751353146,0.40329679385781 l -9.216419228605659 9.747023638355396" fill="#ff760a" stroke="none" /><path d="M 114.68862486808459 84.99185889309783 l 15.171768715548065 -15.501794604270652 a42.690740003768376,42.690740003768376 0 0,0 0.5207542501585809,0.5185179659132443 l -15.436358765873969 15.238340787707289" fill="#ffea15" stroke="none" /><path d="M 115.68641384162765 86.03803664274999 l 11.129166922789885 -9.905707087770432 a35.89903987859707,35.89903987859707 0 0,0 0.4068696943261619,0.46512239515315623 l -11.298028480693896 9.712669136414327" fill="#ff8b0c" stroke="none" /><path d="M 117.04232023915458 87.72973835380427 l 10.991947960730629 -7.91406777873241 a34.54457045379368,34.54457045379368 0 0,0 0.3432864718096379,0.4855543693038675 l -11.12654705234415 7.72368690909675" fill="#ff770b" stroke="none" /><line stroke="#e1ed5e" stroke-width="0.3" x1="172.23445277983987" x2="176.4835382374775" y1="55.19839476539836" y2="52.563006222186495" /><path d="M 173.08426987136738 54.67131705675599 a86.0,86.0 0 0,1 12.851231095245387,41.99856678651699" fill="none" id="id111" stroke="none" /><text fill="#e1ed5e" style="font-size:6.75px; font-family:Arial;" text-anchor="middle"><textPath startOffset="22.20632615414155" xlink:href="#id111">March</textPath></text><path d="M 117.84615892207809 88.93136811851018 l 18.580897399246783 -11.52433496967008 a42.864584255240175,42.864584255240175 0 0,0 0.3835037235518426,0.6303792860046904 l -18.77651692108485 11.202787910458309" fill="#ffec16" stroke="none" /><path d="M 119.97218684219823 93.5106431181261 l 21.236128548837733 -6.900036437251306 a43.32898695817069,43.32898695817069 0 0,0 0.22437093931333216,0.7113171925114857 l -21.35175497191927 6.533469078313401" fill="#fff216" stroke="none" /><path d="M 120.08093135843002 93.85539295169968 l 12.917052671945925 -3.952516518014269 a34.50824328160405,34.50824328160405 0 0,0 0.16891637668493406,0.5695020493526408 l -12.983174945742562 3.729585081915098" fill="#ff770b" stroke="none" /><path d="M 120.6074358757038 95.95851677861258 l 23.91347405703672 -4.689855872876604 a45.369017000792695,45.369017000792695 0 0,0 0.1436993963204292,0.7676479211597779 l -23.99065917726701 4.277529874254264" fill="#f1ff19" stroke="none" /><path d="M 120.91429891909075 98.10471618934814 l 22.257693071130774 -2.017024118444908 a43.34889901411368,43.34889901411368 0 0,0 0.06094755329753817,0.7437145247214777 l -22.289115108247806 1.6335956765156614" fill="#fff216" stroke="none" /><path d="M 120.94382443527127 98.46500227214037 l 20.25917058506479 -1.4848186353216242 a41.3135097699672,41.3135097699672 0 0,0 0.04587650625566385,0.7096892463528256 l -20.281727682324867 1.1358703247157633" fill="#ffd714" stroke="none" /><path d="M 120.96714384426684 98.82574320788733 l 12.899771590261919 -0.7224467251751598 a33.919985926913576,33.919985926913576 0 0,0 0.027630884189527135,0.5832442943672688 l -12.910296082684942 0.5002913241848913" fill="#ff6e0a" stroke="none" /><line stroke="#e1ed5e" stroke-width="0.3" x1="184.98032266829074" x2="189.97916517819016" y1="98.17113171792111" y2="98.06355123074" /><path d="M 185.9800911702706 98.14961562048488 a86.0,86.0 0 0,1 -9.607161424134198,41.387399972396054" fill="none" id="id112" stroke="none" /><text fill="#e1ed5e" style="font-size:6.75px; font-family:Arial;" text-anchor="middle"><textPath startOffset="21.466115282336823" xlink:href="#id112">April</textPath></text><path d="M 120.9764740272857 100.99374915477107 l 22.006581520556036 1.0425499422355908 a43.03126280091393,43.03126280091393 0 0,0 -0.041419945101151774,0.7395809441263432 l -21.985375224567356 -1.4212026026973574" fill="#ffee16" stroke="none" /><path d="M 120.70491114924044 103.5080841355445 l 41.251300255262706 6.989309490534986 a62.83921868181,62.83921868181 0 0,0 -0.18987485647555052,1.064919030830049 l -41.124878956447965 -7.698347272098254" fill="#31ff3b" stroke="none" /><path d="M 120.64145759157962 103.86396538481128 l 10.132292850015487 1.8967085375405697 a31.308290919199663,31.308290919199663 0 0,0 -0.10371999512695843,0.5288660205975901 l -10.098142921912864 -2.0708382852061047" fill="#ff4706" stroke="none" /><path d="M 120.5718875245553 104.21870165774334 l 8.501497999955381 1.743412395333361 a29.67841892417319,29.67841892417319 0 0,0 -0.10693552843029734,0.499567188155851 l -8.47022843280064 -1.889493402905381" fill="#ff2f04" stroke="none" /><path d="M 120.49622156327973 104.57218783832717 l 9.557679724496296 2.1320762397133004 a30.792598777035522,30.792598777035522 0 0,0 -0.1198556951220207,0.5163351976706884 l -9.519563463443722 -2.2962800947325537" fill="#ff4006" stroke="none" /><path d="M 119.9155931802556 106.66101706037122 l 5.398893332452194 1.8057268126083985 a26.692863825612697,26.692863825612697 0 0,0 -0.14949169210837157,0.434492832776885 l -5.3670108094005915 -1.898392348474584" fill="#ff0000" stroke="none" /><path d="M 119.79798401119884 107.00284435728193 l 12.651213837565066 4.4749243854851875 a34.41932039335852,34.41932039335852 0 0,0 -0.20237862006037205,0.5568590442473978 l -12.572310956499468 -4.692031226738717" fill="#ff760a" stroke="none" /><path d="M 119.67450827220406 107.3425965602758 l 12.576041817686516 4.693423597421626 a34.42330260647633,34.42330260647633 0 0,0 -0.21195856868100657,0.55335693865322 l -12.493388969412003 -4.9092041029079905" fill="#ff760a" stroke="none" /><line stroke="#e1ed5e" stroke-width="0.3" x1="174.80103733775053" x2="179.2010983576182" y1="140.37084112569926" y2="142.7455964860345" /><path d="M 175.68104954172406 140.8457921977663 a86.0,86.0 0 0,1 -30.038265399797805,32.042727171017184" fill="none" id="id113" stroke="none" /><text fill="#e1ed5e" style="font-size:6.75px; font-family:Arial;" text-anchor="middle"><textPath startOffset="22.206326154141568" xlink:href="#id113">May</textPath></text><line stroke="#e1ed5e" stroke-width="0.3" x1="143.8653032363475" x2="146.44561519142675" y1="172.8068346515853" y2="177.08958963109032" /><path d="M 144.38136562736335 173.6633856474863 a86.0,86.0 0 0,1 -40.68145358897372,12.25698825130547" fill="none" id="id114" stroke="none" /><text fill="#e1ed5e" style="font-size:6.75px; font-family:Arial;" text-anchor="middle"><textPath startOffset="21.466115282336833" xlink:href="#id114">June</textPath></text><line stroke="#e1ed5e" stroke-width="0.3" x1="102.19456741930631" x2="102.32365962044197" y1="184.97166512339345" y2="189.96999836594603" /><path d="M 102.22038585953345 185.97133177190398 a86.0,86.0 0 0,1 -42.740103519485714,-10.115201625700543" fill="none" id="id115" stroke="none" /><text fill="#e1ed5e" style="font-size:6.75px; font-family:Arial;" text-anchor="middle"><textPath startOffset="22.20632615414155" xlink:href="#id115">July</textPath></text><line stroke="#e1ed5e" stroke-width="0.3" x1="58.666819895761336" x2="56.23545636021788" y1="174.27360380694188" y2="178.64263932499728" /><path d="M 58.180547188652646 175.14741091055294 a86.0,86.0 0 0,1 -31.652253787137756,-30.449443065178592" fill="none" id="id116" stroke="none" /><text fill="#e1ed5e" style="font-size:6.75px; font-family:Arial;" text-anchor="middle"><textPath startOffset="22.20632615414155" xlink:href="#id116">August</textPath></text><line stroke="#e1ed5e" stroke-width="0.3" x1="26.63291911575756" x2="22.317208475507996" y1="142.92168965132927" y2="145.44649492493687" /><path d="M 25.769776987707644 143.4266507060508 a86.0,86.0 0 0,1 -11.730757126820373,-40.83630448921669" fill="none" id="id117" stroke="none" /><text fill="#e1ed5e" style="font-size:6.75px; font-family:Arial;" text-anchor="middle"><textPath startOffset="21.46611528233685" xlink:href="#id117">September</textPath></text><line stroke="#e1ed5e" stroke-width="0.3" x1="15.007084014347285" x2="10.007500721073583" y1="101.09737516637583" y2="101.16192664675087" /><path d="M 14.007167355692545 101.11028546245083 a86.0,86.0 0 0,1 10.666146001902534,-42.60595125391555" fill="none" id="id118" stroke="none" /><text fill="#e1ed5e" style="font-size:6.75px; font-family:Arial;" text-anchor="middle"><textPath startOffset="22.20632615414155" xlink:href="#id118">October</textPath></text><line stroke="#e1ed5e" stroke-width="0.3" x1="26.266209847984243" x2="21.928928074336255" y1="57.711370442889674" y2="55.22380399835377" /><path d="M 25.398753493254645 57.213857153982495 a86.0,86.0 0 0,1 29.58750427330803,-30.492523968695096" fill="none" id="id119" stroke="none" /><text fill="#e1ed5e" style="font-size:6.75px; font-family:Arial;" text-anchor="middle"><textPath startOffset="21.46611528233685" xlink:href="#id119">November</textPath></text><line stroke="#e1ed5e" stroke-width="0.3" x1="56.762969772571076" x2="54.21961505331055" y1="26.818313649435495" y2="22.513508569990535" /><path d="M 56.25429882871897 25.957352633546506 a86.0,86.0 0 0,1 42.265352541879196,-11.944610805530505" fill="none" id="id120" stroke="none" /><text fill="#e1ed5e" style="font-size:6.75px; font-family:Arial;" text-anchor="middle"><textPath startOffset="22.20632615414155" xlink:href="#id120">December</textPath></text></svg>