<?xml version="1.0" encoding="utf-8" ?>
<svg baseProfile="full" height="200mm" version="1.1" viewBox="0,0,200,200" width="200mm" xmlns="http://www.w3.org/2000/svg" xmlns:ev="http://www.w3.org/2001/xml-events" xmlns:xlink="http://www.w3.org/1999/xlink"><defs /><rect fill="#1a1a1a" height="200" width="200" x="0" y="0" /><text alignment-baseline="middle" fill="#e1ed5e" style="dominant-baseline: central; font-size:9.0px; font-family:Arial;" text-anchor="middle" x="100.0" y="100.0">2017</text><line stroke="#e1ed5e" stroke-width="0.3" x1="100.0" x2="100.0" y1="15.0" y2="10.0" /><path d="M 100.0 14.0 a86.0,86.0 0 0,1 42.46469731375804,11.215312516191453" fill="none" id="id1" stroke="none" /><text fill="#e1ed5e" style="font-size:6.75px; font-family:Arial;" text-anchor="middle"><textPath startOffset="22.20632615414155" xlink:href="#id1">January</textPath></text><line stroke="#e1ed5e" stroke-width="0.3" x1="143.23703022742887" x2="145.7803849466894" y1="26.81831364943548" y2="22.513508569990506" /><path d="M 143.74570117128098 25.957352633546492 a86.0,86.0 0 0,1 28.547481713284135,27.462654790039103" fill="none" id="id2" stroke="none" /><text fill="#e1ed5e" style="font-size:6.75px; font-family:Arial;" text-anchor="middle"><textPath startOffset="19.985693538727396" xlink:href="#id2">February</textPath></text><line stroke="#e1ed5e" stroke-width="0.3" x1="172.23445277983987" x2="176.4835382374775" y1="55.19839476539836" y2="52.563006222186495" /><path d="M 173.08426987136738 54.67131705675599 a86.0,86.0 0 0,1 12.851231095245387,41.99856678651699" fill="none" id="id3" stroke="none" /><text fill="#e1ed5e" style="font-size:6.75px; font-family:Arial;" text-anchor="middle"><textPath startOffset="22.20632615414155" xlink:href="#id3">March</textPath></text><line stroke="#e1ed5e" stroke-width="0.3" x1="184.98032266829074" x2="189.97916517819016" y1="98.17113171792111" y2="98.06355123074" /><path d="M 185.9800911702706 98.14961562048488 a86.0,86.0 0 0,1 -9.607161424134198,41.387399972396054" fill="none" id="id4" stroke="none" /><text fill="#e1ed5e" style="font-size:6.75px; font-family:Arial;" text-anchor="middle"><textPath startOffset="21.466115282336823" xlink:href="#id4">April</textPath></text><line stroke="#e1ed5e" stroke-width="0.3" x1="174.80103733775053" x2="179.2010983576182" y1="140.37084112569926" y2="142.7455964860345" /><path d="M 175.68104954172406 140.8457921977663 a86.0,86.0 0 0,1 -30.038265399797805,32.042727171017184" fill="none" id="id5" stroke="none" /><text fill="#e1ed5e" style="font-size:6.75px; font-family:Arial;" text-anchor="middle"><textPath startOffset="22.206326154141568" xlink:href="#id5">May</textPath></text><line stroke="#e1ed5e" stroke-width="0.3" x1="143.8653032363475" x2="146.44561519142675" y1="172.8068346515853" y2="177.08958963109032" /><path d="M 144.38136562736335 173.6633856474863 a86.0,86.0 0 0,1 -40.68145358897372,12.25698825130547" fill="none" id="id6" stroke="none" /><text fill="#e1ed5e" style="font-size:6.75px; font-family:Arial;" text-anchor="middle"><textPath startOffset="21.466115282336833" xlink:href="#id6">June</textPath></text><line stroke="#e1ed5e" stroke-width="0.3" x1="102.19456741930631" x2="102.32365962044197" y1="184.97166512339345" y2="189.96999836594603" /><path d="M 102.22038585953345 185.97133177190398 a86.0,86.0 0 0,1 -42.740103519485714,-10.115201625700543" fill="none" id="id7" stroke="none" /><text fill="#e1ed5e" style="font-size:6.75px; font-family:Arial;" text-anchor="middle"><textPath startOffset="22.20632615414155" xlink:href="#id7">July</textPath></text><line stroke="#e1ed5e" stroke-width="0.3" x1="58.666819895761336" x2="56.23545636021788" y1="174.27360380694188" y2="178.64263932499728" /><path d="M 58.180547188652646 175.14741091055294 a86.0,86.0 0 0,1 -31.652253787137756,-30.449443065178592" fill="none" id="id8" stroke="none" /><text fill="#e1ed5e" style="font-size:6.75px; font-family:Arial;" text-anchor="middle"><textPath startOffset="22.20632615414155" xlink:href="#id8">August</textPath></text><path d="M 83.72743513129214 113.27417163493432 l -13.389216702659 10.922111050250063 a38.27899400152559,38.27899400152559 0 0,0 -0.41210451849068375,-0.5141637507835775 l 13.575239133204546 -10.690019465888225" fill="#ff7a0b" stroke="none" /><path d="M 83.50135304334701 112.99209946851258 l -16.737858319993855 13.18046993517499 a42.304475793885175,42.304475793885175 0 0,0 -0.445593411750983,-0.5759895512845237 l 16.962258548962907 -12.890402389777215" fill="#ffb811" stroke="none" /><path d="M 83.28015986056508 112.70617746262583 l -27.553354767493694 20.93906475461641 a55.606817128152464,55.606817128152464 0 0,0 -0.5725879856623685,-0.7670751777860466 l 27.909704019851148 -20.461676697321057" fill="#8eff24" stroke="none" /><path d="M 83.06392112726016 112.41649034213515 l -29.289286469610744 21.473101614052567 a57.3174392658176,57.3174392658176 0 0,0 -0.5765048296297381,-0.8007147858183938 l 29.65457109161609 -20.965753222783036" fill="#79ff26" stroke="none" /><path d="M 82.85270091963577 112.12312394758628 l -51.006793523427056 36.061753933104704 a83.46713601785592,83.46713601785592 0 0,0 -0.8193257000236001,-1.180299779082259 l 51.61998013061279 -35.178412891835436" fill="#4cd8ff" stroke="none" /><path d="M 82.44556493220864 111.52570212397912 l -23.501134232758837 15.43012188637218 a49.11391064321097,49.11391064321097 0 0,0 -0.4579173735464316,-0.7106979327552334 l 23.763256469682315 -15.023302353695499" fill="#e4ff1a" stroke="none" /><path d="M 82.24976979558568 111.22182372390057 l -32.16278555497649 20.333545301164758 a59.05125279369818,59.05125279369818 0 0,0 -0.535778653766948,-0.8638457855095845 l 32.50802884841139 -19.77690318428991" fill="#64ff29" stroke="none" /><path d="M 82.05923443525364 110.91462005526583 l -19.666245060753003 11.964349680464812 a44.01970586402073,44.01970586402073 0 0,0 -0.38825197010263457,-0.6507326341036129 l 19.86927790655387 -11.624054952475088" fill="#ffd113" stroke="none" /><line stroke="#e1ed5e" stroke-width="0.3" x1="26.63291911575756" x2="22.317208475507996" y1="142.92168965132927" y2="145.44649492493687" /><path d="M 25.769776987707644 143.4266507060508 a86.0,86.0 0 0,1 -11.730757126820373,-40.83630448921669" fill="none" id="id9" stroke="none" /><text fill="#e1ed5e" style="font-size:6.75px; font-family:Arial;" text-anchor="middle"><textPath startOffset="21.46611528233685" xlink:href="#id9">September</textPath></text><path d="M 81.69416730710424 110.29060199501025 l -33.309844828399896 18.725089505359755 a59.21223285121943,59.21223285121943 0 0,0 -0.49181001230012183,-0.8927780281994777 l 33.62723125015154 -18.148940958762452" fill="#62ff29" stroke="none" /><path d="M 81.51974371655577 109.97397251340807 l -33.01909232579419 17.820722517262393 a58.521175475411,58.521175475411 0 0,0 -0.47080980058580946,-0.890594713402447 l 33.32095463460489 -17.24971278877382" fill="#6aff28" stroke="none" /><path d="M 79.76711848015287 105.62410040840567 l -16.151709051115983 4.4896636883740015 a37.76409214084097,37.76409214084097 0 0,0 -0.1687010537589882,-0.6277993793696169 l 16.226598181216747 -4.2109733758288455" fill="#ff720a" stroke="none" /><path d="M 79.58551787078972 104.9243191809786 l -16.75058673993972 4.040525498224914 a38.2310186127823,38.2310186127823 0 0,0 -0.14880865834796367,-0.6410638054786039 l 16.817655964218236 -3.751593035397736" fill="#ff790b" stroke="none" /><path d="M 79.50377843672027 104.57218783832718 l -13.626546335979535 3.0397373117485884 a34.96147441966764,34.96147441966764 0 0,0 -0.12597112236071556,-0.5884951457232288 l 13.67685149706469 -2.804728346609196" fill="#ff4406" stroke="none" /><path d="M 79.4281124754447 104.21870165774334 l -9.66134083502507 1.9812627571530914 a30.862398736788368,30.862398736788368 0 0,0 -0.10224281660238446,-0.521333919125284 l 9.694013584603121 -1.8146651109598524" fill="#ff0000" stroke="none" /><path d="M 79.29508885075956 103.50808413554451 l -19.978064808473796 3.3849327682846906 a41.26279455892959,41.26279455892959 0 0,0 -0.11262433306039626,-0.70131182947542 l 20.033370895895484 -3.040541709116057" fill="#ffa80f" stroke="none" /><path d="M 79.23777060512086 103.15116336523772 l -26.600521496286884 4.037263399853968 a47.90515265955986,47.90515265955986 0 0,0 -0.1167196474771941,-0.8163369426044595 l 26.666075194780674 -3.5787809852691077" fill="#f5ff19" stroke="none" /><path d="M 79.1416061653843 102.43462659150553 l -26.61121785484987 3.106105826530338 a47.791879536976985,47.791879536976985 0 0,0 -0.08834146526497241,-0.8179322518870926 l 26.66074162161589 -2.647577252758463" fill="#f7ff19" stroke="none" /><path d="M 79.10278846688536 102.07522291339032 l -27.27782074503226 2.7088570428519496 a48.41199392741653,48.41199392741653 0 0,0 -0.07521242128160674,-0.8299628014925593 l 27.32040776259094 -2.238912852810824" fill="#eeff19" stroke="none" /><path d="M 79.04373962182676 101.35467743843564 l -36.66484301665535 2.3701287692617052 a57.741369378656294,57.741369378656294 0 0,0 -0.05557922761398019,-0.9924044450609494 l 36.70020859515686 -1.7386526078653186" fill="#74ff27" stroke="none" /><path d="M 79.0235259727143 100.99374915477108 l -27.16256712049654 1.2868119819515216 a48.193031049376856,48.193031049376856 0 0,0 -0.03212379267272043,-0.8289723500188495 l 27.180693046020462 -0.8190623849186752" fill="#f1ff19" stroke="none" /><path d="M 79.0095281055655 100.63252640178507 l -31.870224288333556 0.9603766125204607 a52.88469098841264,52.88469098841264 0 0,0 -0.01958732435383927,-0.9101459958097299 l 31.8820336753724 -0.4116408009206019" fill="#b1ff20" stroke="none" /><line stroke="#e1ed5e" stroke-width="0.3" x1="15.007084014347285" x2="10.007500721073583" y1="101.09737516637583" y2="101.16192664675087" /><path d="M 14.007167355692545 101.11028546245083 a86.0,86.0 0 0,1 10.666146001902534,-42.60595125391555" fill="none" id="id10" stroke="none" /><text fill="#e1ed5e" style="font-size:6.75px; font-family:Arial;" text-anchor="middle"><textPath startOffset="22.20632615414155" xlink:href="#id10">October</textPath></text><path d="M 79.00175016825051 100.2711162175752 l -43.066996722747916 0.5560540210423014 a64.07058628335,64.07058628335 0 0,0 -0.004746418321149459,-1.1029004603506967 l 43.070187438358566 0.18535591751207053" fill="#30ff37" stroke="none" /><path d="M 79.01574976396665 99.18683210126434 l -44.6485731195478 -1.7301922144839492 a65.68208418047067,65.68208418047067 0 0,0 0.053503974477687705,-1.1293843376866912 l 44.61217553683661 2.4984876587936493" fill="#32ff4d" stroke="none" /><path d="M 79.03285615573316 98.82574320788736 l -42.85629209403954 -2.4001500848170974 a63.923449214610926,63.923449214610926 0 0,0 0.07098366936400645,-1.0980859469454203 l 42.80862783367112 3.1374950960155292" fill="#30ff35" stroke="none" /><path d="M 79.05617556472873 98.46500227214037 l -42.902722765057185 -3.1443914251137373 a64.0177965275964,64.0177965275964 0 0,0 0.09000754701027101,-1.0983200542817713 l 42.84224073422742 3.882425396603287" fill="#30ff36" stroke="none" /><path d="M 79.08570108090925 98.10471618934814 l -36.654672744092245 -3.3216990971285223 a57.804873574954215,57.804873574954215 0 0,0 0.09833124922251192,-0.9901822604499003 l 36.592064369187504 3.952156888282853" fill="#73ff27" stroke="none" /><path d="M 79.16333360222342 97.38593545837743 l -54.69630243646112 -6.861926088727596 a76.12505355886725,76.12505355886725 0 0,0 0.17430462604985814,-1.2987719237851219 l 54.570081811353425 7.802416354577378" fill="#42ffd4" stroke="none" /><path d="M 79.21141760316559 97.0276538004421 l -54.700315027922855 -7.82103706660752 a76.25661123296697,76.25661123296697 0 0,0 0.1969748450323221,-1.2978181209825506 l 54.557584289451235 8.761454299982162" fill="#42ffd5" stroke="none" /><path d="M 79.26566170972629 96.67025291283419 l -62.20301487082115 -9.989241261497433 a84.0,84.0 0 0,0 0.2415525539191079,-1.4256568467366881 l 62.021850455381816 11.05848389654995" fill="#4dd2ff" stroke="none" /><path d="M 79.32604984820605 96.31383870115002 l -19.433632710501065 -3.4650129398371456 a40.74012145352444,40.74012145352444 0 0,0 0.12903808030026162,-0.6893265847273614 l 19.371108906290942 3.79901760202708" fill="#ffa00e" stroke="none" /><path d="M 79.62865764111835 94.90015583598534 l -37.42090845377243 -9.36810143524458 a59.57571404402838,59.57571404402838 0 0,0 0.2576044460306392,-0.9926550140230611 l 37.25410767587148 10.010852874816505" fill="#5dff2a" stroke="none" /><path d="M 79.71946130924805 94.55025226153421 l -39.20397369816635 -10.534817159362772 a61.59475244791774,61.59475244791774 0 0,0 0.28396128098326057,-1.0215598117294364 l 39.01682564661673 11.208088274511152" fill="#46ff2d" stroke="none" /><path d="M 79.81627453868168 94.20196356495316 l -36.80255885314482 -10.572011472432713 a59.29093580356109,59.29093580356109 0 0,0 0.2902265978730684,-0.978499808657702 l 36.61512635816004 11.203940667836953" fill="#61ff29" stroke="none" /><path d="M 79.91906864156998 93.8553929516997 l -36.56185269241527 -11.187639345145232 a59.235223896544866,59.235223896544866 0 0,0 0.3067383698339001,-0.9724444561918056 l 36.36385883881317 11.815333967763452" fill="#61ff29" stroke="none" /><path d="M 80.65960295795068 91.81776055985345 l -34.96711422636828 -14.793351993190695 a58.96764860396712,58.96764860396712 0 0,0 0.40353328205344535,-0.9314104516025105 l 34.707290234472154 15.393061589379805" fill="#65ff29" stroke="none" /><path d="M 80.803312248108 91.48605970444005 l -48.93985106565139 -21.705357477905785 a74.53719796152784,74.53719796152784 0 0,0 0.5302706988331547,-1.1683811948341247 l 48.558978049854886 22.54456068158198" fill="#3fffc0" stroke="none" /><path d="M 80.95270993114464 91.15688171328213 l -25.581718615741924 -11.876868724041707 a49.204331901733056,49.204331901733056 0 0,0 0.3632727851835532,-0.7651451317072117 l 25.37348763671662 12.31545627138945" fill="#e3ff1b" stroke="none" /><path d="M 81.10775173730289 90.83032412892265 l -25.23694771344448 -12.24918428393418 a49.05255862685097,49.05255862685097 0 0,0 0.3752286848771095,-0.7564381319475348 l 25.022359015613954 12.681782004380677" fill="#e5ff1a" stroke="none" /><line stroke="#e1ed5e" stroke-width="0.3" x1="26.266209847984243" x2="21.928928074336255" y1="57.711370442889674" y2="55.22380399835377" /><path d="M 25.398753493254645 57.213857153982495 a86.0,86.0 0 0,1 29.58750427330803,-30.492523968695096" fill="none" id="id11" stroke="none" /><text fill="#e1ed5e" style="font-size:6.75px; font-family:Arial;" text-anchor="middle"><textPath startOffset="21.46611528233685" xlink:href="#id11">November</textPath></text><path d="M 82.54541684631803 88.32363383020206 l -13.624768596413338 -9.114384784200771 a37.39226431278735,37.39226431278735 0 0,0 0.362483342253875,-0.5318995766624249 l 13.465860788490723 9.347562384133612" fill="#ff6c09" stroke="none" /><path d="M 82.7489923806493 88.02491185347247 l -13.85533150753046 -9.61792028402583 a37.8663748853582,37.8663748853582 0 0,0 0.3762968843976011,-0.532245256888559 l 13.68772200332898 9.854992041246176" fill="#ff730a" stroke="none" /><path d="M 83.84228863543731 86.58626213691792 l -21.619010036709103 -17.94757481110661 a49.09798990261754,49.09798990261754 0 0,0 0.545430473495096,-0.6456176429908509 l 21.306868949726883 18.317051403726577" fill="#e4ff1a" stroke="none" /><path d="M 86.37877921826538 84.01681056812374 l -18.117665429817077 -21.259333746093596 a48.932222825163464,48.932222825163464 0 0,0 0.6457712740872115,-0.5408148706604056 l 17.749036618770756 21.568049774147813" fill="#e7ff1a" stroke="none" /><line stroke="#e1ed5e" stroke-width="0.3" x1="56.762969772571076" x2="54.21961505331055" y1="26.818313649435495" y2="22.513508569990535" /><path d="M 56.25429882871897 25.957352633546506 a86.0,86.0 0 0,1 42.265352541879196,-11.944610805530505" fill="none" id="id12" stroke="none" /><text fill="#e1ed5e" style="font-size:6.75px; font-family:Arial;" text-anchor="middle"><textPath startOffset="22.20632615414155" xlink:href="#id12">December</textPath></text><path d="M 97.47563105711357 79.15227682838746 l -3.083675303283401 -25.46680399279617 a46.65281970824219,46.65281970824219 0 0,0 0.7980593435408876,-0.0896712659729175 l 2.6448492562327957 25.516111212239686" fill="#fff717" stroke="none" /></svg>