<?xml version="1.0" encoding="utf-8" ?>
<svg baseProfile="full" height="200mm" version="1.1" viewBox="0,0,200,200" width="200mm" xmlns="http://www.w3.org/2000/svg" xmlns:ev="http://www.w3.org/2001/xml-events" xmlns:xlink="http://www.w3.org/1999/xlink"><defs /><rect fill="#1a1a1a" height="200" width="200" x="0" y="0" /><text alignment-baseline="middle" fill="#e1ed5e" style="dominant-baseline: central; font-size:9.0px; font-family:Arial;" text-anchor="middle" x="100.0" y="100.0">2020</text><line stroke="#e1ed5e" stroke-width="0.3" x1="100.0" x2="100.0" y1="15.0" y2="10.0" /><path d="M 100.0 14.0 a86.0,86.0 0 0,1 42.35913384403234,11.155469271406648" fill="none" id="id37" stroke="none" /><text fill="#e1ed5e" style="font-size:6.75px; font-family:Arial;" text-anchor="middle"><textPath startOffset="22.145653131862478" xlink:href="#id37">January</textPath></text><path d="M 100.72087961077811 79.0123766808444 l 0.7452560890879755 -21.697317888076388 a42.710113085255045,42.710113085255045 0 0,0 0.7325277378635241,0.03145789293672408 l -1.1176095875523357 21.681327426713832" fill="#ffce13" stroke="none" /><path d="M 101.08105385017728 79.02784411241856 l 1.8073386524691422 -35.061887023498926 a56.108437656114965,56.108437656114965 0 0,0 0.9614732468369808,0.057839842981022745 l -2.4089562514385854 35.025695202693214" fill="#7fff26" stroke="none" /><path d="M 101.44090949804482 79.04949213459386 l 2.352591686560711 -34.20616679969051 a55.286973251833174,55.286973251833174 0 0,0 0.9462786843686274,0.0732479548547971 l -2.939439365704572 34.160741077840655" fill="#89ff24" stroke="none" /><path d="M 102.15924093988457 79.11130261209362 l 3.5910215792616476 -34.73987626718872 a55.9249830213603,55.9249830213603 0 0,0 0.9540911247684953,0.10690790057395602 l -4.1868486056309395 34.67311260610779" fill="#81ff25" stroke="none" /><path d="M 102.51750503828377 79.15144685158666 l 2.6409502251458137 -21.87085638120592 a43.02972938869276,43.02972938869276 0 0,0 0.7325753606902499,0.0948465471110216 l -3.0160034077268554 21.8222982378945" fill="#ffd213" stroke="none" /><path d="M 102.87502721639298 79.19773525538626 l 4.717673208684359 -34.134733231759824 a55.459199835564185,55.459199835564185 0 0,0 0.9419478211634436,0.13843389195633674 l -5.3029461354554845 34.04871826650461" fill="#87ff25" stroke="none" /><path d="M 103.58742460773223 79.30868818359171 l 5.816671435673517 -33.54901512068223 a55.04952396375528,55.04952396375528 0 0,0 0.9297216230710915,0.1694262503803111 l -6.391727792295662 33.44422069637055" fill="#8cff24" stroke="none" /><path d="M 103.94208987418118 79.37332000966035 l 6.398367135911887 -33.47896054769021 a55.084892567818294,55.084892567818294 0 0,0 0.9272715769939732,0.1854802851539056 l -6.972135198436818 33.36419086587345" fill="#8bff24" stroke="none" /><path d="M 104.9986988182912 79.60360301121754 l 5.681192531875485 -23.181204241757186 a44.86721975183325,44.86721975183325 0 0,0 0.7464937661420747,0.1897557962121509 l -6.078291591242954 23.080263213709767" fill="#ffec16" stroke="none" /><path d="M 106.04205211174951 79.88797359093562 l 9.192089454218184 -30.597476228020795 a52.948396830805876,52.948396830805876 0 0,0 0.8682512582437188,0.2689864592418145 l -9.715981345333534 30.435173180972335" fill="#a6ff21" stroke="none" /><path d="M 107.40779381753099 80.34994680014964 l 12.09115473047999 -32.07322443819628 a55.276635607645616,55.276635607645616 0 0,0 0.8850256251108805,0.342346924308728 l -12.639952618084397 31.860937625749507" fill="#89ff24" stroke="none" /><line stroke="#e1ed5e" stroke-width="0.3" x1="143.13028292997686" x2="145.6673583964461" y1="26.7553504044142" y2="22.446841604673864" /><path d="M 143.63769802327073 25.89364864446614 a86.0,86.0 0 0,1 29.32050498858742,28.57503671076993" fill="none" id="id38" stroke="none" /><text fill="#e1ed5e" style="font-size:6.75px; font-family:Arial;" text-anchor="middle"><textPath startOffset="20.669276256404974" xlink:href="#id38">February</textPath></text><line stroke="#e1ed5e" stroke-width="0.3" x1="172.87174338648825" x2="177.1583165268699" y1="56.24261187166439" y2="53.66864786411523" /><path d="M 173.72905801456457 55.72781907015455 a86.0,86.0 0 0,1 12.242430191666344,42.057860355516425" fill="none" id="id39" stroke="none" /><text fill="#e1ed5e" style="font-size:6.75px; font-family:Arial;" text-anchor="middle"><textPath startOffset="22.145653131862474" xlink:href="#id39">March</textPath></text><line stroke="#e1ed5e" stroke-width="0.3" x1="184.99686870605535" x2="189.99668451229388" y1="99.2704041080226" y2="99.22748670261217" /><path d="M 185.99683186730306 99.26182062694052 a86.0,86.0 0 0,1 -10.086455211305974,41.156179273409016" fill="none" id="id40" stroke="none" /><text fill="#e1ed5e" style="font-size:6.75px; font-family:Arial;" text-anchor="middle"><textPath startOffset="21.40746469413373" xlink:href="#id40">April</textPath></text><line stroke="#e1ed5e" stroke-width="0.3" x1="174.33088141563837" x2="178.70328620479359" y1="141.23008692659167" y2="143.65538615756765" /><path d="M 175.20536237346943 141.71514677278685 a86.0,86.0 0 0,1 -30.301960400862466,31.631185727798858" fill="none" id="id41" stroke="none" /><text fill="#e1ed5e" style="font-size:6.75px; font-family:Arial;" text-anchor="middle"><textPath startOffset="22.145653131862474" xlink:href="#id41">May</textPath></text><line stroke="#e1ed5e" stroke-width="0.3" x1="143.1302829299769" x2="145.66735839644613" y1="173.24464959558577" y2="177.55315839532614" /><path d="M 143.63769802327073 174.10635135553383 a86.0,86.0 0 0,1 -40.68552437913181,11.842963189579606" fill="none" id="id42" stroke="none" /><text fill="#e1ed5e" style="font-size:6.75px; font-family:Arial;" text-anchor="middle"><textPath startOffset="21.407464694133747" xlink:href="#id42">June</textPath></text><path d="M 104.9986988182912 120.39639698878246 l 4.660818630775087 19.017730521820003 a40.58053381574528,40.58053381574528 0 0,0 -0.67801926190555,0.160010699658975 l -4.333667215129658 -19.0949373651252" fill="#ffaf10" stroke="none" /><path d="M 104.64783097203109 120.47920084513623 l 7.7463285692698785 34.131752969745 a55.99974524322689,55.99974524322689 0 0,0 -0.9392959492580134,0.20471518034313083 l -7.159270203392729 -34.25969960822185" fill="#80ff25" stroke="none" /><path d="M 104.29559338865022 120.5559693870025 l 3.6900692995435813 17.658317418439495 a39.039755693628386,39.039755693628386 0 0,0 -0.6571757543671619,0.13145355615385484 l -3.3863970596454607 -17.719060371256212" fill="#ff980e" stroke="none" /><path d="M 103.58742460773223 120.69131181640829 l 5.837626891666177 33.669880622152114 a55.17219262552929,55.17219262552929 0 0,0 -0.9345709582281024,0.15378329553047035 l -5.258778430385002 -33.76512991617825" fill="#8aff24" stroke="none" /><path d="M 103.2317021107853 120.74984581791261 l 5.68856361305667 36.52465909601762 a57.964989896658906,57.964989896658906 0 0,0 -0.9845074595163045,0.1446886931725707 l -5.06073104793268 -36.61692886248907" fill="#69ff28" stroke="none" /><line stroke="#e1ed5e" stroke-width="0.3" x1="101.45913802915013" x2="101.54496967792366" y1="184.9874750549273" y2="189.98673829345242" /><path d="M 101.47630435890484 185.9873277026323 a86.0,86.0 0 0,1 -42.54439059252881,-10.42667462771756" fill="none" id="id43" stroke="none" /><text fill="#e1ed5e" style="font-size:6.75px; font-family:Arial;" text-anchor="middle"><textPath startOffset="22.145653131862474" xlink:href="#id43">July</textPath></text><path d="M 97.48249496171623 120.84855314841334 l -1.9035407655449705 15.764048221206528 a36.878560506753004,36.878560506753004 0 0,0 -0.6278525370431656,-0.08128808096593686 l 2.17387112447893 -15.729048544040193" fill="#ff770a" stroke="none" /><path d="M 96.76829788921471 120.74984581791261 l -2.9344469334292724 18.84125434281071 a40.0683990941976,40.0683990941976 0 0,0 -0.6787252844978257,-0.11168398727885347 l 3.2574497209801616 -18.78810435703619" fill="#ffa70f" stroke="none" /><path d="M 95.00130118170881 120.39639698878247 l -3.7763960269446715 15.408984488238364 a36.864991960637546,36.864991960637546 0 0,0 -0.613353955063606,-0.1559121768751865 l 4.040355275233656 -15.341887079527913" fill="#ff770a" stroke="none" /><path d="M 93.95794788825049 120.11202640906438 l -6.437051882558897 21.426852179375814 a43.37287713405625,43.37287713405625 0 0,0 -0.711231262877143,-0.2203412633001948 l 6.8039237783076745 -21.31319432826897" fill="#ffd714" stroke="none" /><path d="M 92.93061703081489 119.77432235084164 l -7.261723225227932 20.312332279093226 a42.57135755616942,42.57135755616942 0 0,0 -0.6860290107532919,-0.2519193552405431 l 7.609341387635343 -20.184682074843963" fill="#ffcc13" stroke="none" /><line stroke="#e1ed5e" stroke-width="0.3" x1="58.13341422392154" x2="55.67067388415222" y1="173.97424548756322" y2="178.32567169271397" /><path d="M 57.64086615596768 174.84453072859336 a86.0,86.0 0 0,1 -31.369924170532247,-30.572349798747897" fill="none" id="id44" stroke="none" /><text fill="#e1ed5e" style="font-size:6.75px; font-family:Arial;" text-anchor="middle"><textPath startOffset="22.145653131862474" xlink:href="#id44">August</textPath></text><path d="M 89.65649057296885 118.27599006163327 l -17.27072221569513 30.515711306493163 a56.06403402908656,56.06403402908656 0 0,0 -0.833505414571985,-0.4812245754741498 l 17.792020098127516 -30.214739833742843" fill="#7fff26" stroke="none" /><path d="M 89.34428304082925 118.09573695890944 l -12.25335689467416 20.80887884684568 a45.148585756746925,45.148585756746925 0 0,0 -0.6644737592937321,-0.3989974005740792 l 12.60876341052532 -20.595467445735682" fill="#fff016" stroke="none" /><path d="M 88.1277618465304 117.32195027204791 l -7.876571144515829 11.492152694029107 a34.932334568818675,34.932334568818675 0 0,0 -0.4917223607287222,-0.34326039687168747 l 8.072688596418317 -11.35524748135229" fill="#ff5908" stroke="none" /><path d="M 87.2517909369889 116.68781488649013 l -9.047803136179432 11.843864743641412 a35.904357539214175,35.904357539214175 0 0,0 -0.4865725285676914,-0.37836174122186395 l 9.249785609382352 -11.686801950798754" fill="#ff6809" stroke="none" /><path d="M 86.68645165197938 116.24036423190432 l -9.009695120956856 10.990363091632503 a35.21135767822736,35.21135767822736 0 0,0 -0.4641622635399543,-0.38722066874799177 l 9.197031718658703 -10.834080238972641" fill="#ff5d08" stroke="none" /><path d="M 86.40962598614128 116.0094264158162 l -8.39555655572901 9.889944512322094 a33.972909170161266,33.972909170161266 0 0,0 -0.441357464465353,-0.38123406586626396 l 8.564093499957226 -9.744366313991108" fill="#ff4906" stroke="none" /><path d="M 86.13680546590413 115.77377054828092 l -9.647033095375637 10.976552781097642 a35.61334864086583,35.61334864086583 0 0,0 -0.45574058532061995,-0.4075260416296015 l 9.834038707519628 -10.809331209584657" fill="#ff6309" stroke="none" /><path d="M 85.60350026404147 115.28858382429668 l -10.244261055369698 10.879050236899115 a35.943179669251755,35.943179669251755 0 0,0 -0.44557136254250856,-0.426847286083733 l 10.429504903777522 -10.7015908205098" fill="#ff6809" stroke="none" /><path d="M 84.58840730492382 114.26474011684316 l -11.146987232394157 10.317484967447442 a36.18900327252128,36.18900327252128 0 0,0 -0.41807311419782844,-0.45953558813341866 l 11.322458047433864 -10.124611803756348" fill="#ff6c0a" stroke="none" /><path d="M 84.3458050057657 113.99807769240083 l -10.470442701066899 9.362734427247664 a35.04603026878035,35.04603026878035 0 0,0 -0.3971698788639046,-0.4519064146780599 l 10.629623643889396 -9.181615734758305" fill="#ff5a08" stroke="none" /><path d="M 84.1078160697243 113.72728997021213 l -11.25317464890322 9.72022424159387 a35.86999324093953,35.86999324093953 0 0,0 -0.3985078300035396,-0.46944122171048325 l 11.418377042413873 -9.525616237433834" fill="#ff6709" stroke="none" /><path d="M 83.8745106332314 113.45245675266167 l -11.257880407378774 9.391724236226924 a35.66098071058601,35.66098071058601 0 0,0 -0.38811574145115696,-0.4734380978335883 l 11.417442968068562 -9.19708385669484" fill="#ff6409" stroke="none" /><path d="M 83.64595745247003 113.17365903436017 l -17.14674084941376 13.812200674189196 a43.01789293327195,43.01789293327195 0 0,0 -0.4583117491542893,-0.5790619231928372 l 17.38131902920961 -13.515818807081677" fill="#ffd213" stroke="none" /><path d="M 83.4222238831116 112.89097897827486 l -10.816117034055353 8.410678026380461 a34.701382870273406,34.701382870273406 0 0,0 -0.36163471543956527,-0.4733914511407063 l 10.958903726849213 -8.223765661998884" fill="#ff5507" stroke="none" /><path d="M 83.20337586046588 112.60449989151573 l -11.511363035347353 8.638341426520624 a35.39209580056719,35.39209580056719 0 0,0 -0.36049037211604373,-0.489074423955999 l 11.657955427047227 -8.439460693295745" fill="#ff6008" stroke="none" /><path d="M 82.98947788004972 112.3143062007846 l -11.639878372848452 8.4263743001185 a35.36977913471194,35.36977913471194 0 0,0 -0.35181965855101704,-0.49487840933492294 l 11.78281312992943 -8.225318664074072" fill="#ff5f08" stroke="none" /><path d="M 82.78059297857968 112.02048342749411 l -17.832095285736244 12.448187419755172 a42.7472065405405,42.7472065405405 0 0,0 -0.4148723531160581,-0.6053111618068131 l 18.043157375667626 -12.14024152287831" fill="#ffce13" stroke="none" /><path d="M 82.576782715395 111.72311816256416 l -17.821095114146786 11.990828123003231 a42.4795574941122,42.4795574941122 0 0,0 -0.40188809140676146,-0.6085097930229373 l 18.024307644474273 -11.683138451641232" fill="#ffca12" stroke="none" /><path d="M 82.37810715431573 111.42229804090323 l -18.139475588216833 11.757788921355539 a42.61680306924836,42.61680306924836 0 0,0 -0.39264749682681105,-0.6173070820274931 l 18.338640776669536 -11.444668164649373" fill="#ffcc13" stroke="none" /><path d="M 82.18462484594161 111.11811171558189 l -25.135137745222867 15.686184939769092 a50.628222144367115,50.628222144367115 0 0,0 -0.4538025385827704,-0.741252342190175 l 25.400708248261044 -15.252395481454359" fill="#c4ff1e" stroke="none" /><path d="M 81.99639281039703 110.81064883170644 l -12.318717426873155 7.39703586933708 a35.368957467241934,35.368957467241934 0 0,0 -0.308091055526692,-0.5232059674225484 l 12.443882192529617 -7.184478733620973" fill="#ff5f08" stroke="none" /><line stroke="#e1ed5e" stroke-width="0.3" x1="26.387840678322732" x2="22.057713659400548" y1="142.50000000000003" y2="145.00000000000006" /><path d="M 25.521815274538298 143.00000000000003 a86.0,86.0 0 0,1 -11.493303480769221,-40.785679425670985" fill="none" id="id45" stroke="none" /><text fill="#e1ed5e" style="font-size:6.75px; font-family:Arial;" text-anchor="middle"><textPath startOffset="21.40746469413373" xlink:href="#id45">September</textPath></text><path d="M 81.81346652052679 110.50000000000001 l -18.812391005995753 10.861339011412154 a42.72267802282429,42.72267802282429 0 0,0 -0.36124391303752496,-0.6382833806141033 l 18.996068284054655 -10.53679886069893" fill="#ffce13" stroke="none" /><path d="M 81.63589988554817 110.18625677009913 l -30.448049828727722 16.889019977631044 a55.818425211050354,55.818425211050354 0 0,0 -0.4575905465348212,-0.8419150661266884 l 30.733485724877873 -16.363850078029767" fill="#82ff25" stroke="none" /><path d="M 81.4637452351635 109.86951160357371 l -30.749178506180325 16.372205600173903 a55.83620379747638,55.83620379747638 0 0,0 -0.44321164914807665,-0.8499167768879023 l 31.02569822430335 -15.841942580181497" fill="#82ff25" stroke="none" /><path d="M 81.29705330413844 109.54985784667822 l -27.786258213860947 14.187861428925684 a52.19890314504265,52.19890314504265 0 0,0 -0.4006392256747671,-0.8015468289271405 l 28.025717352747453 -13.70878274383479" fill="#b0ff20" stroke="none" /><path d="M 81.1358732173502 109.22738970284198 l -19.829693852150566 9.699696941717677 a43.07489250327587,43.07489250327587 0 0,0 -0.3192069873646103,-0.6670198341407076 l 19.993280097475086 -9.357864605511866" fill="#ffd313" stroke="none" /><path d="M 80.9802524753101 108.90220220490708 l -12.839993766285266 6.009765411913977 a35.17683745496442,35.17683745496442 0 0,0 -0.2512891474053902,-0.5491121375514448 l 12.941267378545714 -5.788464292147843" fill="#ff5c08" stroke="none" /><path d="M 80.83023694016515 108.57439118712176 l -30.66083365452904 13.714200903611236 a54.58818284479397,54.58818284479397 0 0,0 -0.3752706688119452,-0.8586927302688918 l 30.891738205357953 -13.185846103566494" fill="#91ff23" stroke="none" /><path d="M 80.68587082218212 108.24405325689762 l -30.685524402051367 13.097825693165627 a54.36396927401534,54.36396927401534 0 0,0 -0.3589941679389775,-0.861455315815494 l 30.905844414526833 -12.569137867908852" fill="#94ff23" stroke="none" /><path d="M 80.5471966667186 107.91128576633889 l -31.04125066045466 12.62420640932825 a54.510145180683736,54.510145180683736 0 0,0 -0.34507861562423914,-0.8698235334089521 l 31.253387951045024 -12.089481858705733" fill="#92ff23" stroke="none" /><path d="M 80.41425534168474 107.57618678355246 l -40.22427286251849 15.55961285902082 a64.12880336435208,64.12880336435208 0 0,0 -0.38834362245919773,-1.0301275965708758 l 40.48544716879212 -14.8668169822558" fill="#31ff3f" stroke="none" /><path d="M 80.16572619554312 106.89939002012753 l -19.077331857210815 6.636086318256078 a41.19857005863277,41.19857005863277 0 0,0 -0.22662073581639308,-0.6699639375753348 l 19.188438014599576 -6.307620706206582" fill="#ffb811" stroke="none" /><path d="M 80.05021161711548 106.5578916946017 l -18.0641044029676 5.938029915959976 a40.01504843970031,40.01504843970031 0 0,0 -0.20890767661302181,-0.6544003215491451 l 18.163376795357877 -5.627060560719439" fill="#ffa60f" stroke="none" /><path d="M 79.94057633289273 106.21446072829308 l -40.16346831166839 12.442745149462235 a63.04671323274694,63.04671323274694 0 0,0 -0.31140176705601763,-1.0365552045936501 l 40.37114639872804 -11.751452341277862" fill="#2fff30" stroke="none" /><path d="M 79.83685265289637 105.86919833188381 l -13.628942033288778 3.9671863955609097 a35.19459857987781,35.19459857987781 0 0,0 -0.16387528190335582,-0.5815355632682134 l 13.69503580726671 -3.7326429083897006" fill="#ff5d08" stroke="none" /><path d="M 79.73907114497094 105.5222062557868 l -27.516543301485953 7.499756237452925 a49.52028223709866,49.52028223709866 0 0,0 -0.21649918204210503,-0.8220826579435141 l 27.641231964332793 -7.026293075136609" fill="#d2ff1c" stroke="none" /><path d="M 79.64726062577567 105.17358676015961 l -28.21992547229856 7.173394701898147 a50.11737943585077,50.11737943585077 0 0,0 -0.20479506161484762,-0.8356337378747122 l 28.3389080604297 -6.687905139415335" fill="#cbff1d" stroke="none" /><path d="M 79.48165901384964 104.47187691870673 l -21.185635084936735 4.617310561727195 a42.68295853373196,42.68295853373196 0 0,0 -0.14988281290790584,-0.7172435179533841 l 21.261775608669005 -4.252950592488402" fill="#ffcd13" stroke="none" /><path d="M 79.407916724674 104.11899336999214 l -35.62338376476139 7.125674444001335 a57.329061467829845,57.329061467829845 0 0,0 -0.18474619759581798,-0.9666701721336187 l 35.74045625463936 -6.5131017068344015" fill="#70ff27" stroke="none" /><path d="M 79.34024301695615 103.76489593502545 l -33.91719547719892 6.180842857172681 a55.47577363111067,55.47577363111067 0 0,0 -0.16268979256340216,-0.938351490375742 l 34.018300087254566 -5.597698333876346" fill="#87ff25" stroke="none" /><path d="M 79.2786578344484 103.40968896794605 l -27.98837494435568 4.6054764462679625 a49.36475886241527,49.36475886241527 0 0,0 -0.13041348393528732,-0.8373481191855481 l 28.063309920429234 -4.124340145150964" fill="#d4ff1c" stroke="none" /><path d="M 79.22317932658666 103.0534771498775 l -15.27557420834874 2.2449833653393134 a36.43966054372373,36.43966054372373 0 0,0 -0.0856427172714015,-0.6196680393039891 l 15.311861442175353 -1.9824270178352388" fill="#ff700a" stroke="none" /><path d="M 79.17382384314188 102.69636545807758 l -22.412106239162345 2.90169585865825 a43.599166907911766,43.599166907911766 0 0,0 -0.0897269064084171,-0.7430675008197004 l 22.458615231830425 -2.51653468091515" fill="#ffda14" stroke="none" /><path d="M 79.13060592940153 102.33845913500099 l -15.579370602993794 1.7457009715228327 a36.676870231886305,36.676870231886305 0 0,0 -0.06473923003602032,-0.6262933239033429 l 15.607042225511481 -1.4780031253365584" fill="#ff740a" stroke="none" /><path d="M 79.0935383218832 101.97986365728391 l -31.063651537933215 2.941760097399008 a52.20263449359348,52.20263449359348 0 0,0 -0.07682830084909194,-0.8928613134114307 l 31.109573461480046 -2.408077736611915" fill="#afff20" stroke="none" /><path d="M 79.06263194458094 101.62068470465958 l -14.271177940747533 1.104679429851181 a35.31386867549145,35.31386867549145 0 0,0 -0.041596439379462516,-0.6048030994138309 l 14.288038341292062 -0.8595329062830067" fill="#ff5f08" stroke="none" /><path d="M 79.03789590574601 101.26102812881392 l -14.230712093344069 0.8560843015600869 a35.25643879147337,35.25643879147337 0 0,0 -0.031157307875779985,-0.6044434490484389 l 14.24331099067642 -0.6116690591349171" fill="#ff5e08" stroke="none" /><line stroke="#e1ed5e" stroke-width="0.3" x1="15.003131293944662" x2="10.003315487706104" y1="100.72959589197737" y2="100.7725132973878" /><path d="M 14.003168132696942 100.73817937305945 a86.0,86.0 0 0,1 10.791469493833604,-42.45332614584628" fill="none" id="id46" stroke="none" /><text fill="#e1ed5e" style="font-size:6.75px; font-family:Arial;" text-anchor="middle"><textPath startOffset="22.145653131862435" xlink:href="#id46">October</textPath></text><path d="M 79.00077361379809 99.81974689727619 l -14.428903047721255 -0.12385477900089725 a35.42943461008854,35.42943461008854 0 0,0 0.010440832357386768,-0.6081261414609147 l 14.424650783765202 0.37152783643086434" fill="#ff6008" stroke="none" /><path d="M 79.01933749520258 99.09900007780938 l -16.43536461162492 -0.7058052734446552 a37.4505127883928,37.4505127883928 0 0,0 0.033096285304236014,-0.6420590931584559 l 16.420826736864115 0.987836159979823" fill="#ff800b" stroke="none" /><path d="M 79.06263194458094 98.37931529534042 l -16.21922362137034 -1.2554704858333374 a37.267741730824724,37.267741730824724 0 0,0 0.05484813748266345,-0.6374184972167268 l 16.195281861189933 1.533710030425745" fill="#ff7d0b" stroke="none" /><path d="M 79.13060592940154 97.66154086499901 l -13.869573389578969 -1.5541146274640036 a34.95637267645912,34.95637267645912 0 0,0 0.07194007138124274,-0.5957669910821687 l 13.840851231938059 1.7919752954696084" fill="#ff5908" stroke="none" /><path d="M 79.22317932658666 96.9465228501225 l -18.740184425475253 -2.7541617568515977 a39.94148672316218,39.94148672316218 0 0,0 0.10551876596096363,-0.6775061715246882 l 18.69014416737602 3.075456110307736" fill="#ffa50f" stroke="none" /><path d="M 79.34024301695615 96.23510406497455 l -22.122667833271226 -4.031487024061298 a43.4870033505229,43.4870033505229 0 0,0 0.14013936925085946,-0.7332683971813245 l 22.050202171738206 4.410657986275937" fill="#ffd914" stroke="none" /><path d="M 79.48165901384962 95.52812308129327 l -21.727206039388847 -4.735343430597584 a43.23724262771261,43.23724262771261 0 0,0 0.16427915894702527,-0.7238442858596424 l 21.642716018884162 5.107622050396235" fill="#ffd513" stroke="none" /><path d="M 79.64726062577567 94.8264132398404 l -21.449546762966385 -5.4523909093458975 a43.13168820865231,43.13168820865231 0 0,0 0.18856869943833632,-0.7160260661357467 l 21.352788582723324 5.8197974798544285" fill="#ffd413" stroke="none" /><path d="M 79.73907114497095 94.47779374421319 l -22.243389205594053 -6.0625346399429025 a44.05477585256568,44.05477585256568 0 0,0 0.20513059115143634,-0.7279361016699605 l 22.136040122368037 6.443478665515876" fill="#ffe115" stroke="none" /><path d="M 79.83685265289637 94.1308016681162 l -13.826634989754618 -4.0247319339800915 a35.400496598392216,35.400496598392216 0 0,0 0.17485094194686812,-0.5820219185542542 l 13.755507727804119 4.261491456125069" fill="#ff6008" stroke="none" /><path d="M 79.94057633289273 93.78553927170692 l -37.556411789941706 -11.635072374831243 a60.3174131359533,60.3174131359533 0 0,0 0.31490079679718297,-0.9864222608817137 l 37.35114627736726 12.278063669404348" fill="#4dff2c" stroke="none" /><path d="M 80.16572619554312 93.10060997987247 l -35.67275382328047 -12.408835541208592 a58.76936013258807,58.76936013258807 0 0,0 0.33963045487224525,-0.950006828613064 l 35.45448319836429 13.019377326202578" fill="#5fff29" stroke="none" /><path d="M 80.5471966667186 92.08871423366112 l -25.81617818706884 -10.499214922056876 a48.869491745742884,48.869491745742884 0 0,0 0.32271121408440134,-0.7743894349100824 l 25.63214112844796 10.940836866408223" fill="#dbff1b" stroke="none" /><path d="M 80.68587082218212 91.75594674310238 l -26.445225985356494 -11.287894442808271 a49.753548274405304,49.753548274405304 0 0,0 0.34203460096461,-0.7826421027749305 l 26.247557502374907 11.740198615359068" fill="#cfff1d" stroke="none" /><path d="M 80.9802524753101 91.09779779509293 l -25.12973899128889 -11.761986722830514 a48.74613691017808,48.74613691017808 0 0,0 0.3612338094071418,-0.754839728372072 l 24.924125923921842 12.191638953267672" fill="#ddff1b" stroke="none" /><path d="M 81.29705330413844 90.45014215332179 l -19.49540313905955 -9.954491753050823 a42.88978413817756,42.88978413817756 0 0,0 0.3404467113924195,-0.652851458676479 l 19.321648358692194 10.287689454831789" fill="#ffd013" stroke="none" /><path d="M 81.63589988554816 89.8137432299009 l -23.044366774511857 -12.782321791242591 a47.35205097166255,47.35205097166255 0 0,0 0.40038782620832064,-0.7074469244895815 l 22.821545583282166 13.176025485831278" fill="#efff19" stroke="none" /><line stroke="#e1ed5e" stroke-width="0.3" x1="26.387840678322718" x2="22.05771365940052" y1="57.49999999999999" y2="54.99999999999999" /><path d="M 25.521815274538284 56.99999999999999 a86.0,86.0 0 0,1 29.574782752854787,-30.34633250058573" fill="none" id="id47" stroke="none" /><text fill="#e1ed5e" style="font-size:6.75px; font-family:Arial;" text-anchor="middle"><textPath startOffset="21.40746469413373" xlink:href="#id47">November</textPath></text><path d="M 81.81346652052679 89.5 l -24.218249709499275 -13.982412989080988 a48.96482597816197,48.96482597816197 0 0,0 0.4265216166821984,-0.7243269516583111 l 23.974654382687298 14.396091109032872" fill="#daff1c" stroke="none" /><path d="M 81.99639281039701 89.18935116829357 l -28.041133542188977 -16.8378950048773 a53.70810111464968,53.70810111464968 0 0,0 0.4814088189545755,-0.7863451264849921 l 27.747956758779008 17.316777247486836" fill="#9cff22" stroke="none" /><path d="M 82.37810715431573 88.57770195909679 l -31.358754730627577 -20.326365950666577 a58.37021074353308,58.37021074353308 0 0,0 0.5522254461803202,-0.8361397093925842 l 31.005204845526528 20.861685538398223" fill="#64ff29" stroke="none" /><path d="M 82.98947788004972 87.6856937992154 l -47.61718600011427 -34.471170531409555 a79.784844988951,79.784844988951 0 0,0 0.8126579624264141,-1.1025266015121582 l 47.01842601810404 35.28350344219058" fill="#47ffff" stroke="none" /><path d="M 83.2033758604659 87.39550010848427 l -35.648028332831664 -26.75094504236431 a65.56899129078383,65.56899129078383 0 0,0 0.683316385279082,-0.8944830830809601 l 35.183559970198274 27.358949038686156" fill="#33ff52" stroke="none" /><path d="M 83.64595745247003 86.82634096563983 l -40.36477364900052 -32.5150043792305 a72.83184794618484,72.83184794618484 0 0,0 0.7926643099442383,-0.9669215727180305 l 39.80066251981766 33.20312823364702" fill="#3dffaf" stroke="none" /><path d="M 84.10781606972428 86.27271002978789 l -29.174631734841896 -25.200352031879554 a59.55148349148577,59.55148349148577 0 0,0 0.6748854378964828,-0.767895741315114 l 28.73773523298682 25.69746005100597" fill="#56ff2a" stroke="none" /><path d="M 84.58840730492382 85.73525988315684 l -28.60200281731597 -26.473586804599336 a59.97339301962823,59.97339301962823 0 0,0 0.7058130578972822,-0.7495490082907463 l 28.143333925682416 26.960677272834594" fill="#51ff2b" stroke="none" /><path d="M 84.83555147118756 85.47280134310135 l -6.101687387931751 -5.845278491885858 a29.449726009034187,29.449726009034187 0 0,0 0.3528542745888335,-0.3620595704931138 l 6.000446312192115 5.9491607544467024" fill="#ff0000" stroke="none" /><path d="M 85.34317274990677 84.96080404539775 l -43.97048175027968 -45.11758786380673 a84.0,84.0 0 0,0 1.0413100565387983,-0.997551478777726 l 43.189499207875585 45.86575147289003" fill="#4dd2ff" stroke="none" /><path d="M 86.40962598614128 83.9905735841838 l -27.633591722444038 -32.55230156536105 a63.69973921097101,63.69973921097101 0 0,0 0.8397010819423716,-0.7005085075602053 l 27.070716306339754 33.02187225683314" fill="#30ff39" stroke="none" /><path d="M 87.83215693770416 82.88440491214696 l -12.92521461923625 -18.180933030928298 a43.30711767190952,43.30711767190952 0 0,0 0.6096093605205632,-0.42555467829218774 l 12.611210167541921 18.40013252502561" fill="#ffd614" stroke="none" /><path d="M 88.12776184653039 82.6780497279521 l -20.67174202269988 -30.16068939361401 a57.56484791368777,57.56484791368777 0 0,0 0.819898080291252,-0.5516640193086945 l 20.15094765431164 30.511103086979816" fill="#6dff28" stroke="none" /><path d="M 88.72937992617638 82.28071324371311 l -17.88984987831122 -28.12581543378901 a54.33329000389965,54.33329000389965 0 0,0 0.7912890040030767,-0.49382286197962105 l 17.404396745518447 28.42877409261017" fill="#95ff23" stroke="none" /><line stroke="#e1ed5e" stroke-width="0.3" x1="56.869717070023135" x2="54.33264160355391" y1="26.7553504044142" y2="22.446841604673864" /><path d="M 56.362301976729285 25.89364864446614 a86.0,86.0 0 0,1 42.16139366436587,-11.88097634709845" fill="none" id="id48" stroke="none" /><text fill="#e1ed5e" style="font-size:6.75px; font-family:Arial;" text-anchor="middle"><textPath startOffset="22.145653131862474" xlink:href="#id48">December</textPath></text><path d="M 89.34428304082924 81.90426304109057 l -21.90239103501007 -37.19504829748801 a64.16464236968673,64.16464236968673 0 0,0 0.953937364040949,-0.5507559939190809 l 21.26066120310872 37.565551188683266" fill="#31ff3f" stroke="none" /><path d="M 91.92203290615298 80.6158196554323 l -14.467372592119853 -34.7164275590224 a58.610307259846614,58.610307259846614 0 0,0 0.9320309827468235,-0.37904888674716425 l 13.869287148182588 34.959663702348855" fill="#61ff29" stroke="none" /><path d="M 92.25597844496254 80.48000691201159 l -16.506086809586755 -41.606121334112316 a65.76069966203042,65.76069966203042 0 0,0 1.0528843459146198,-0.4072782835316378 l 15.789430201178607 41.883339505782" fill="#33ff55" stroke="none" /><path d="M 93.61358852112211 79.99465700312896 l -7.0789164660825135 -22.17460500604342 a44.27711677823996,44.27711677823996 0 0,0 0.7260590434297265,-0.22493494761840094 l 6.697216789781171 22.292856541468463" fill="#ffe415" stroke="none" /><path d="M 94.30408787586887 79.78721728523814 l -10.203872473153133 -36.2099436673535 a58.62019449499545,58.62019449499545 0 0,0 0.9709139964850495,-0.26462692720476144 l 9.580777075733407 36.379771088702405" fill="#61ff29" stroke="none" /><path d="M 95.35216902796891 79.52079915486377 l -7.99475824886796 -35.226379976406186 a57.12220931366177,57.12220931366177 0 0,0 0.9581232840962434,-0.20881851034240906 l 7.388872548152598 35.35842994488231" fill="#73ff27" stroke="none" /><path d="M 95.70440661134978 79.44403061299748 l -7.702870520949634 -36.861023913261825 a58.657260896095124,58.657260896095124 0 0,0 0.987407041709335,-0.1975090622888836 l 7.0689669937093225 36.98782237221357" fill="#60ff29" stroke="none" /><path d="M 96.41257539226777 79.30868818359171 l -2.878134137264785 -16.600312869359694 a37.847968526582605,37.847968526582605 0 0,0 0.6411130413640321,-0.10549490698432774 l 2.59274359284768 16.647273774839693" fill="#ff860c" stroke="none" /><path d="M 97.12497278360702 79.19773525538626 l -7.001033425835563 -50.655990308446 a72.13749918757313,72.13749918757313 0 0,0 1.2281312301377247,-0.1590061757851469 l 6.1304243738070445 50.768708080431544" fill="#3cffa6" stroke="none" /><path d="M 98.1996594967304 79.07731436759882 l -4.327598691836452 -50.29325664119996 a71.47910234953855,71.47910234953855 0 0,0 1.2234193147647512,-0.09470039240729855 l 3.463610382296484 50.36013480060232" fill="#3bff9e" stroke="none" /><path d="M 98.5590905019552 79.04949213459386 l -1.6618654770689203 -24.16315930724512 a45.2202408033277,45.2202408033277 0 0,0 0.7748932881431705,-0.04661565598491009 l 1.2468278367932661 24.188126941054723" fill="#fff116" stroke="none" /></svg>