<?xml version="1.0" encoding="utf-8" ?>
<svg baseProfile="full" height="200mm" version="1.1" viewBox="0,0,200,200" width="200mm" xmlns="http://www.w3.org/2000/svg" xmlns:ev="http://www.w3.org/2001/xml-events" xmlns:xlink="http://www.w3.org/1999/xlink"><defs /><rect fill="#1a1a1a" height="200" width="200" x="0" y="0" /><text alignment-baseline="middle" fill="#e1ed5e" style="dominant-baseline: central; font-size:9.0px; font-family:Arial;" text-anchor="middle" x="100.0" y="100.0">2025</text><line stroke="#e1ed5e" stroke-width="0.3" x1="100.0" x2="100.0" y1="15.0" y2="10.0" /><path d="M 100.0 14.0 a86.0,86.0 0 0,1 42.46469731375804,11.215312516191453" fill="none" id="id97" stroke="none" /><text fill="#e1ed5e" style="font-size:6.75px; font-family:Arial;" text-anchor="middle"><textPath startOffset="22.20632615414155" xlink:href="#id97">January</textPath></text><path d="M 100.0 79.0 l 0.0 -48.93280536596578 a69.93280536596578,69.93280536596578 0 0,0 1.203778285741036,0.010361299751741241 l -0.8422978064685075 48.92555544282259" fill="#35ff62" stroke="none" /><path d="M 100.36148047927253 79.00311137660856 l 0.32409466257162245 -18.825302951757898 a39.82809253683899,39.82809253683899 0 0,0 0.685371991133699,0.01770113648665014 l -0.6480932889001892 18.816935023128888" fill="#ff0500" stroke="none" /><path d="M 100.72285384407766 79.0124445844662 l 0.855368383881588 -24.835022327807824 a45.8497482702513,45.8497482702513 0 0,0 0.7885265200210783,0.03395561066170363 l -1.2827357362919978 24.816618990621926" fill="#ff7b0b" stroke="none" /><path d="M 101.08401301168833 79.027996857942 l 2.6475125294268707 -51.22045629258754 a72.28883373029984,72.28883373029984 0 0,0 1.2421216502388261,0.07492817002949641 l -3.5287962285053087 51.167294853177744" fill="#39ff87" stroke="none" /><path d="M 101.44485096284872 79.0497635885617 l 2.2478403389949215 -32.593525372514186 a53.67094553878628,53.67094553878628 0 0,0 0.9211207294465744,0.0714966966449879 l -2.808551257803837 32.550003413680734" fill="#f8ff18" stroke="none" /><path d="M 101.80526077348638 79.07773832637324 l 1.6097689010435199 -18.656587832823305 a39.725907867941075,39.725907867941075 0 0,0 0.6807788592952363,0.06464815571557542 l -1.9306728874290005 18.62611413259255" fill="#ff0300" stroke="none" /><path d="M 102.16513564639614 79.11191278185805 l 2.1758932547948637 -20.991870952369105 a42.104339779703594,42.104339779703594 0 0,0 0.7202514655052157,0.0809286442836947 l -2.5369114238098045 20.951306354614808" fill="#ff3304" stroke="none" /><path d="M 102.88285421437855 79.19881850522331 l 2.772262816124443 -20.003211297265008 a41.19440277217171,41.19440277217171 0 0,0 0.7015426792402085,0.10338915465657718 l -3.1161744757933074 19.952527658447462" fill="#ff2003" stroke="none" /><path d="M 103.2404852339499 79.25152402106235 l 2.9788561864248737 -19.073293524441898 a40.304510096060945,40.304510096060945 0 0,0 0.6845448386736085,0.1129557637876578 l -3.306730231237357 19.019191497714615" fill="#ff0f01" stroke="none" /><path d="M 103.59715602781102 79.31037775812273 l 6.314657196440045 -36.319767886409764 a57.86462308001038,57.86462308001038 0 0,0 0.9798543944187323,0.17906212750835335 l -6.938906711961678 36.20569027755067" fill="#b3ff20" stroke="none" /><path d="M 103.95276090670814 79.375362276772 l 7.111615058294364 -37.106844473050934 a58.78217801403923,58.78217801403923 0 0,0 0.992113257755168,0.19900858618873773 l -7.749294725516657 36.97893193078499" fill="#a5ff21" stroke="none" /><path d="M 105.01212808612495 79.60689891045804 l 4.668105892219471 -18.993360449077894 a40.558603062835815,40.558603062835815 0 0,0 0.6765389590601764,0.1724648444327342 l -4.994353739964672 18.91019260847629" fill="#ff1402" stroke="none" /><path d="M 105.36241919743992 79.69619591428918 l 4.7463350536277735 -17.97111592842415 a39.587326439113184,39.587326439113184 0 0,0 0.6573421090147031,0.17967642963574293 l -5.054975051866188 17.886752957962113" fill="#ff0000" stroke="none" /><path d="M 106.0581310904928 79.89281104454417 l 9.694861718030719 -32.17764910491594 a54.606419708901385,54.606419708901385 0 0,0 0.8976635632100229,0.27890843869167775 l -10.247310653951459 32.00600053134175" fill="#e8ff1a" stroke="none" /><path d="M 106.40334571778207 80.00007090966166 l 15.426799917263708 -48.18339006424581 a71.59273894315814,71.59273894315814 0 0,0 1.1704293848524012,0.38587216624080073 l -16.253912124358525 47.91070417374578" fill="#37ff7c" stroke="none" /><path d="M 107.08798089147638 80.2323363322302 l 7.63733347068101 -21.29975259224727 a43.62760091201294,43.62760091201294 0 0,0 0.7047263482616786,0.25955666149508116 l -8.002842144715265 21.165132662945865" fill="#ff5007" stroke="none" /><path d="M 107.4271985657038 80.35727306442388 l 6.98150032452228 -18.463987903658822 a40.73981246333825,40.73981246333825 0 0,0 0.6538096502333988,0.2536679867482053 l -7.298293139755346 18.341077213020068" fill="#ff1702" stroke="none" /><path d="M 108.09893153111575 80.62456947434976 l 7.365273808156029 -17.620268849545234 a40.09767348656279,40.09767348656279 0 0,0 0.6345289606859741,0.2716721862505734 l -7.6674865266323184 17.49087713533187" fill="#ff0a01" stroke="none" /><path d="M 108.43124777332544 80.76684994638697 l 19.88960184039744 -45.371658737541935 a70.53971818617367,70.53971818617367 0 0,0 1.1078695436244828,0.49706877060223853 l -20.667653502488704 45.022569636423164" fill="#36ff6b" stroke="none" /><path d="M 108.76106565485865 80.91482961587045 l 16.759535546746378 -36.509096503705074 a61.172081838753456,61.172081838753456 0 0,0 0.9531827637049659,0.4475320883449547 l -17.38549652175094 36.21519943272011" fill="#81ff25" stroke="none" /><path d="M 109.08828744355905 81.06846463323043 l 21.90268347195039 -45.624814284483804 a71.60979373368446,71.60979373368446 0 0,0 1.1066397919065207,0.5430233398046806 l -22.684794530867343 45.241035784544295" fill="#38ff7c" stroke="none" /><path d="M 109.41281617654863 81.2277094730956 l 12.925413468329735 -25.777579446666397 a49.83660721125975,49.83660721125975 0 0,0 0.7635431287800676,0.3911164467371687 l -13.367217084698558 25.55127047461673" fill="#ffc412" stroke="none" /><path d="M 109.73455568895987 81.39251694778311 l 18.892770591866714 -36.113297805289385 a61.756681157945415,61.756681157945415 0 0,0 0.9376868427229814,0.5008798372307804 l -19.511602481118008 35.78273924155685" fill="#78ff26" stroke="none" /><path d="M 110.05341064243156 81.56283822128135 l 23.36979218445777 -42.85835469818928 a69.81583507613638,69.81583507613638 0 0,0 1.0501495477081497,0.5844070863267943 l -24.104065821237953 42.44973221430231" fill="#34ff60" stroke="none" /><path d="M 110.36928655335952 81.73862282372117 l 17.804356889105275 -31.355298636982027 a57.05759111267636,57.05759111267636 0 0,0 0.8498952827477338,0.49231420471216264 l -18.341448904318337 31.044180274879814" fill="#c0ff1e" stroke="none" /><line stroke="#e1ed5e" stroke-width="0.3" x1="143.23703022742887" x2="145.7803849466894" y1="26.81831364943548" y2="22.513508569990506" /><path d="M 143.74570117128098 25.957352633546492 a86.0,86.0 0 0,1 28.547481713284135,27.462654790039103" fill="none" id="id98" stroke="none" /><text fill="#e1ed5e" style="font-size:6.75px; font-family:Arial;" text-anchor="middle"><textPath startOffset="19.985693538727396" xlink:href="#id98">February</textPath></text><path d="M 110.68208982089419 81.91981866633111 l 23.36365526868087 -39.544614486280175 a66.93078403840151,66.93078403840151 0 0,0 0.9868718893373415,0.5945792711408115 l -24.040889224235848 39.13658860568074" fill="#2fff30" stroke="none" /><path d="M 110.99172775467656 82.1063720568725 l 32.97518326402967 -53.68088382938249 a84.0,84.0 0 0,0 1.225523390510947,0.7674226347082231 l -33.894325806912875 53.10531685335132" fill="#4dd2ff" stroke="none" /><path d="M 111.2981086023043 82.29822771554956 l 20.624549339902508 -32.31435355559471 a59.33522507029337,59.33522507029337 0 0,0 0.8562157013719116,0.5569065093614937 l -21.1777320670587 31.954548122073682" fill="#9cff22" stroke="none" /><path d="M 111.60114157652 82.49532879139004 l 21.34796878351127 -32.21141402871574 a59.6433819031295,59.6433819031295 0 0,0 0.8508989156140674,0.5745307461535321 l -21.89927239353188 31.839171370263532" fill="#98ff23" stroke="none" /><path d="M 111.90073688211348 82.69761687909136 l 21.664792024335963 -31.49826229695585 a59.2296186377207,59.2296186377207 0 0,0 0.8350497949030913,0.5850057458464272 l -22.203772958822707 31.120671708345487" fill="#9eff22" stroke="none" /><path d="M 112.19680574252982 82.90503203632743 l 22.327585566441883 -31.29420669819682 a59.44279451465841,59.44279451465841 0 0,0 0.8278249364205319,0.6014500220528467 l -22.862955819216204 30.905237441327298" fill="#9bff22" stroke="none" /><path d="M 112.48926042617603 83.11751280151076 l 23.83812390072626 -32.22343100048824 a61.08248565832218,61.08248565832218 0 0,0 0.8398953653256638,0.6325917763062893 l -24.389265419810307 31.808322634676102" fill="#82ff25" stroke="none" /><path d="M 112.77801427241765 83.33499621200491 l 22.665623215996874 -29.56035959102047 a58.249769595528676,58.249769595528676 0 0,0 0.7904422859137957,0.6169527419435026 l -23.1710980570701 29.165828459853746" fill="#adff20" stroke="none" /><path d="M 113.06298171725822 83.55741782278167 l 19.82890971296918 -24.958963006844833 a52.87688025485136,52.87688025485136 0 0,0 0.7077862540071943,0.5723139275058309 l -20.255599365540863 24.61394298207487" fill="#fff917" stroke="none" /><path d="M 113.34407831869373 83.78471172551755 l 17.42679037721273 -21.176466663090103 a48.425093676855155,48.425093676855155 0 0,0 0.6390785587899576,0.5352099140711408 l -17.7887264729618 20.873355591625142" fill="#ffaa0f" stroke="none" /><path d="M 113.6212207817346 84.01681056812373 l 17.20746234759623 -20.19129817734919 a47.52895177971732,47.52895177971732 0 0,0 0.6181167368980817,0.5360247432145466 l -17.55247288314108 19.89210844071497" fill="#ff9a0e" stroke="none" /><path d="M 113.89432698308785 84.25364557470407 l 14.301573183288445 -16.207884013200353 a42.615515254148136,42.615515254148136 0 0,0 0.5458621600619681,0.4900804369373286 l -14.578446330946404 15.959304567493726" fill="#ff3d05" stroke="none" /><line stroke="#e1ed5e" stroke-width="0.3" x1="172.23445277983987" x2="176.4835382374775" y1="55.19839476539836" y2="52.563006222186495" /><path d="M 173.08426987136738 54.67131705675599 a86.0,86.0 0 0,1 12.851231095245387,41.99856678651699" fill="none" id="id99" stroke="none" /><text fill="#e1ed5e" style="font-size:6.75px; font-family:Arial;" text-anchor="middle"><textPath startOffset="22.20632615414155" xlink:href="#id99">March</textPath></text><line stroke="#e1ed5e" stroke-width="0.3" x1="184.98032266829074" x2="189.97916517819016" y1="98.17113171792111" y2="98.06355123074" /><path d="M 185.9800911702706 98.14961562048488 a86.0,86.0 0 0,1 -9.607161424134198,41.387399972396054" fill="none" id="id100" stroke="none" /><text fill="#e1ed5e" style="font-size:6.75px; font-family:Arial;" text-anchor="middle"><textPath startOffset="21.466115282336823" xlink:href="#id100">April</textPath></text><line stroke="#e1ed5e" stroke-width="0.3" x1="174.80103733775053" x2="179.2010983576182" y1="140.37084112569926" y2="142.7455964860345" /><path d="M 175.68104954172406 140.8457921977663 a86.0,86.0 0 0,1 -30.038265399797805,32.042727171017184" fill="none" id="id101" stroke="none" /><text fill="#e1ed5e" style="font-size:6.75px; font-family:Arial;" text-anchor="middle"><textPath startOffset="22.206326154141568" xlink:href="#id101">May</textPath></text><line stroke="#e1ed5e" stroke-width="0.3" x1="143.8653032363475" x2="146.44561519142675" y1="172.8068346515853" y2="177.08958963109032" /><path d="M 144.38136562736335 173.6633856474863 a86.0,86.0 0 0,1 -40.68145358897372,12.25698825130547" fill="none" id="id102" stroke="none" /><text fill="#e1ed5e" style="font-size:6.75px; font-family:Arial;" text-anchor="middle"><textPath startOffset="21.466115282336833" xlink:href="#id102">June</textPath></text><line stroke="#e1ed5e" stroke-width="0.3" x1="102.19456741930631" x2="102.32365962044197" y1="184.97166512339345" y2="189.96999836594603" /><path d="M 102.22038585953345 185.97133177190398 a86.0,86.0 0 0,1 -42.740103519485714,-10.115201625700543" fill="none" id="id103" stroke="none" /><text fill="#e1ed5e" style="font-size:6.75px; font-family:Arial;" text-anchor="middle"><textPath startOffset="22.20632615414155" xlink:href="#id103">July</textPath></text><line stroke="#e1ed5e" stroke-width="0.3" x1="58.666819895761336" x2="56.23545636021788" y1="174.27360380694188" y2="178.64263932499728" /><path d="M 58.180547188652646 175.14741091055294 a86.0,86.0 0 0,1 -31.652253787137756,-30.449443065178592" fill="none" id="id104" stroke="none" /><text fill="#e1ed5e" style="font-size:6.75px; font-family:Arial;" text-anchor="middle"><textPath startOffset="22.20632615414155" xlink:href="#id104">August</textPath></text><line stroke="#e1ed5e" stroke-width="0.3" x1="26.63291911575756" x2="22.317208475507996" y1="142.92168965132927" y2="145.44649492493687" /><path d="M 25.769776987707644 143.4266507060508 a86.0,86.0 0 0,1 -11.730757126820373,-40.83630448921669" fill="none" id="id105" stroke="none" /><text fill="#e1ed5e" style="font-size:6.75px; font-family:Arial;" text-anchor="middle"><textPath startOffset="21.46611528233685" xlink:href="#id105">September</textPath></text><line stroke="#e1ed5e" stroke-width="0.3" x1="15.007084014347285" x2="10.007500721073583" y1="101.09737516637583" y2="101.16192664675087" /><path d="M 14.007167355692545 101.11028546245083 a86.0,86.0 0 0,1 10.666146001902534,-42.60595125391555" fill="none" id="id106" stroke="none" /><text fill="#e1ed5e" style="font-size:6.75px; font-family:Arial;" text-anchor="middle"><textPath startOffset="22.20632615414155" xlink:href="#id106">October</textPath></text><line stroke="#e1ed5e" stroke-width="0.3" x1="26.266209847984243" x2="21.928928074336255" y1="57.711370442889674" y2="55.22380399835377" /><path d="M 25.398753493254645 57.213857153982495 a86.0,86.0 0 0,1 29.58750427330803,-30.492523968695096" fill="none" id="id107" stroke="none" /><text fill="#e1ed5e" style="font-size:6.75px; font-family:Arial;" text-anchor="middle"><textPath startOffset="21.46611528233685" xlink:href="#id107">November</textPath></text><line stroke="#e1ed5e" stroke-width="0.3" x1="56.762969772571076" x2="54.21961505331055" y1="26.818313649435495" y2="22.513508569990535" /><path d="M 56.25429882871897 25.957352633546506 a86.0,86.0 0 0,1 42.265352541879196,-11.944610805530505" fill="none" id="id108" stroke="none" /><text fill="#e1ed5e" style="font-size:6.75px; font-family:Arial;" text-anchor="middle"><textPath startOffset="22.20632615414155" xlink:href="#id108">December</textPath></text></svg>