<?xml version="1.0" encoding="utf-8" ?>
<svg baseProfile="full" height="200mm" version="1.1" viewBox="0,0,200,200" width="200mm" xmlns="http://www.w3.org/2000/svg" xmlns:ev="http://www.w3.org/2001/xml-events" xmlns:xlink="http://www.w3.org/1999/xlink"><defs /><rect fill="#1a1a1a" height="200" width="200" x="0" y="0" /><text alignment-baseline="middle" fill="#e1ed5e" style="dominant-baseline: central; font-size:9.0px; font-family:Arial;" text-anchor="middle" x="100.0" y="100.0">2024</text><line stroke="#e1ed5e" stroke-width="0.3" x1="100.0" x2="100.0" y1="15.0" y2="10.0" /><path d="M 100.0 14.0 a86.0,86.0 0 0,1 42.35913384403234,11.155469271406648" fill="none" id="id85" stroke="none" /><text fill="#e1ed5e" style="font-size:6.75px; font-family:Arial;" text-anchor="middle"><textPath startOffset="22.145653131862478" xlink:href="#id85">January</textPath></text><path d="M 100.36049292484886 79.00309439819443 l 0.12002920513660655 -6.991099452977488 a27.992129759344277,27.992129759344277 0 0,0 0.4803805179081838,0.012372898114307026 l -0.24002303711553172 6.988008837513135" fill="#ff2e04" stroke="none" /><path d="M 101.08105385017728 79.02784411241856 l 0.3656097452265309 -7.092731383966083 a28.102148194096067,28.102148194096067 0 0,0 0.48155794023123777,0.02896932987045669 l -0.487312037590231 7.085410076270934" fill="#ff3004" stroke="none" /><path d="M 101.44090949804482 79.04949213459386 l 0.5241862942619139 -7.6215536754902855 a28.63955834452958,28.63955834452958 0 0,0 0.4901878688079817,0.03794364121048845 l -0.6549431578451291 7.611432267284743" fill="#ff3805" stroke="none" /><path d="M 101.80034050326958 79.07731436759882 l 0.5046813971932804 -5.865162839373651 a26.886836030079532,26.886836030079532 0 0,0 0.4595093900186243,0.0435160169848752 l -0.6052903505969176 5.855635066883592" fill="#ff1e03" stroke="none" /><path d="M 103.94208987418118 79.37332000966035 l 1.3674791790010878 -7.1552289062325665 a28.28473060624671,28.28473060624671 0 0,0 0.4761310321484914,0.09523954125696185 l -1.490106696680536 7.130699968312745" fill="#ff3304" stroke="none" /><path d="M 104.9986988182912 79.60360301121754 l 1.7358825313652577 -7.082993099336569 a28.292604432433485,28.292604432433485 0 0,0 0.4707279156933335,0.11965719540205039 l -1.8572157402839857 7.052150672099252" fill="#ff3304" stroke="none" /><path d="M 105.69591212413111 79.78721728523813 l 2.614512449026226 -9.27798232934792 a30.639327333886186,30.639327333886186 0 0,0 0.5050236373327301,0.14700502053420553 l -2.77339609874056 9.2317336145112" fill="#ff5507" stroke="none" /><path d="M 106.72888874123014 80.10723608172694 l 2.547266473528973 -7.5305407093980605 a28.949692438268677,28.949692438268677 0 0,0 0.4693906274429745,0.1632784261450365 l -2.6761628730169655 7.485703850684434" fill="#ff3d05" stroke="none" /><path d="M 107.06938296918511 80.22567764915836 l 2.078784041390239 -5.814728939062451 a27.175144996314586,27.175144996314586 0 0,0 0.4379220891488089,0.1608110569884235 l -2.1782952821931723 5.778187033065305" fill="#ff2203" stroke="none" /><path d="M 107.40779381753099 80.34994680014964 l 3.3132794042835108 -8.788867261135424 a30.392657139739924,30.392657139739924 0 0,0 0.4866121117573686,0.1882320184465155 l -3.4636637785344053 8.73069535455087" fill="#ff5207" stroke="none" /><path d="M 108.4095320186766 80.7573450057729 l 3.736803526178258 -8.550537755937496 a30.331419854929415,30.331419854929415 0 0,0 0.47531732126742154,0.21260339201066822 l -3.883034250301311 8.485130613016976" fill="#ff5107" stroke="none" /><path d="M 109.06512990194946 81.05736502329252 l 3.6056380280715294 -7.534396722677561 a29.3527097138695,29.3527097138695 0 0,0 0.4526463903439239,0.22141203191709222 l -3.7344446676775207 7.471390940663248" fill="#ff4306" stroke="none" /><path d="M 109.71004243097381 81.37971332152246 l 3.514322424849606 -6.739176630429958 a28.600458128424503,28.600458128424503 0 0,0 0.4333802690520419,0.23075058302948068 l -3.629491509688208 6.677855579677904" fill="#ff3705" stroke="none" /><path d="M 110.02825361518725 81.54914285379988 l 3.8730410711575214 -7.1259593412226385 a29.110471236101585,29.110471236101585 0 0,0 0.4370116782236046,0.2424030112106831 l -3.994796937537226 7.058423414578809" fill="#ff3f05" stroke="none" /><line stroke="#e1ed5e" stroke-width="0.3" x1="143.13028292997686" x2="145.6673583964461" y1="26.7553504044142" y2="22.446841604673864" /><path d="M 143.63769802327073 25.89364864446614 a86.0,86.0 0 0,1 29.32050498858742,28.57503671076993" fill="none" id="id86" stroke="none" /><text fill="#e1ed5e" style="font-size:6.75px; font-family:Arial;" text-anchor="middle"><textPath startOffset="20.669276256404974" xlink:href="#id86">February</textPath></text><path d="M 111.5731344415666 82.4767994020092 l 5.130621842355878 -7.768415392560249 a30.309756076322635,30.309756076322635 0 0,0 0.4317028833001228,0.29046896617186446 l -5.263221013753002 7.679196752331266" fill="#ff5107" stroke="none" /><path d="M 111.8722381534696 82.67804972795209 l 5.214145869781893 -7.607594650648973 a30.222950369591416,30.222950369591416 0 0,0 0.42543107087919163,0.2969839281156929 l -5.343972031834846 7.516965906728153" fill="#ff4f07" stroke="none" /><path d="M 112.16784306229584 82.88440491214696 l 4.227146739818517 -5.946011269644097 a28.295465686211738,28.295465686211738 0 0,0 0.39346730003264824,0.28483998189070453 l -4.328595050225133 5.872570516380317" fill="#ff3304" stroke="none" /><path d="M 113.59037401385872 83.9905735841838 l 4.0982026851104 -4.827672458275977 a27.33258925027058,27.33258925027058 0 0,0 0.35509005803270827,0.30671833484561817 l -4.180472222905969 4.7566099909656385" fill="#ff2503" stroke="none" /><path d="M 113.86319453409587 84.22622945171908 l 4.935811394057354 -5.616047312036722 a28.476778820370527,28.476778820370527 0 0,0 0.3644145901166162,0.32586177357414897 l -5.031491010997345 5.530490008579186" fill="#ff3605" stroke="none" /><path d="M 114.13192950727249 84.46653392183569 l 3.995142323416092 -4.3913612593585505 a26.936768135488,26.936768135488 0 0,0 0.3393650907461315,0.31411126156799646 l -4.0699371854761885 4.3221322516581795" fill="#ff1f03" stroke="none" /><path d="M 114.39649973595853 84.71141617570332 l 3.6956471144273304 -3.9246491668261405 a26.390795736906025,26.390795736906025 0 0,0 0.32715477382024116,0.3134068727794081 l -3.7624743741128834 3.860630163741152" fill="#ff1602" stroke="none" /><path d="M 114.65682725009322 84.96080404539774 l 4.983269162972566 -5.113273163262163 a28.13992534924353,28.13992534924353 0 0,0 0.34304991696885856,0.34011788401482285 l -5.070311000071387 5.02697526901868" fill="#ff3104" stroke="none" /><path d="M 115.16444852881244 85.47280134310134 l 4.303490396440723 -4.122646450899052 a26.95955059978251,26.95955059978251 0 0,0 0.31728074551563623,0.33694115671292557 l -4.373626975692619 4.048163834241631" fill="#ff1f03" stroke="none" /><path d="M 115.41159269507618 85.73525988315684 l 4.417865547433824 -4.089110395801764 a27.019830547802556,27.019830547802556 0 0,0 0.31214633398856056,0.34310350104275766 l -4.487409582264262 4.012669319201334" fill="#ff2003" stroke="none" /><path d="M 115.6541949942343 86.00192230759917 l 5.46751921588458 -4.889089397240536 a28.334641198468876,28.334641198468876 0 0,0 0.32111100533041453,0.36536537853178785 l -5.550641285173584 4.79451174089745" fill="#ff3304" stroke="none" /><path d="M 115.8921839302757 86.27271002978787 l 5.50905262462053 -4.758588446440928 a28.279685764058737,28.279685764058737 0 0,0 0.31418116338406804,0.3701046204691363 l -5.58992835151171 4.66331704352224" fill="#ff3304" stroke="none" /><path d="M 116.57777611688842 87.10902102172516 l 5.032549641017248 -3.9133410399593864 a27.375013253659418,27.375013253659418 0 0,0 0.28528416764109565,0.37344613318700487 l -5.0989857860126495 3.8263739935314995" fill="#ff2503" stroke="none" /><path d="M 116.7966241395341 87.39550010848427 l 6.182550700581986 -4.639501306179593 a28.729741621510318,28.729741621510318 0 0,0 0.29263017670093144,0.39700903594750925 l -6.261282896866743 4.532685960963208" fill="#ff3905" stroke="none" /><path d="M 117.01052211995028 87.68569379921539 l 6.205466727709378 -4.492279358913501 a28.660834885782908,28.660834885782908 0 0,0 0.28508646053170617,0.4010098090934157 l -6.281668286771045 4.38509232311058" fill="#ff3805" stroke="none" /><line stroke="#e1ed5e" stroke-width="0.3" x1="172.87174338648825" x2="177.1583165268699" y1="56.24261187166439" y2="53.66864786411523" /><path d="M 173.72905801456457 55.72781907015455 a86.0,86.0 0 0,1 12.242430191666344,42.057860355516425" fill="none" id="id87" stroke="none" /><text fill="#e1ed5e" style="font-size:6.75px; font-family:Arial;" text-anchor="middle"><textPath startOffset="22.145653131862474" xlink:href="#id87">March</textPath></text><path d="M 118.18653347947321 89.5 l 5.882103331185879 -3.3960339416613623 a27.792067883322723,27.792067883322723 0 0,0 0.23499733205424314,0.4152177687303923 l -5.939534028261497 3.294559402831852" fill="#ff2b04" stroke="none" /><path d="M 118.36410011445183 89.81374322990088 l 9.41380112126801 -5.221676793649157 a31.76501556376585,31.76501556376585 0 0,0 0.26040453089730253,0.47911500687746816 l -9.502051001780655 5.059306953297085" fill="#ff6609" stroke="none" /><path d="M 118.53625476483649 90.13048839642627 l 9.49974380991845 -5.058078503583559 a31.762401711630076,31.762401711630076 0 0,0 0.2521207654907211,0.4834748111974605 l -9.585172644384114 4.894257449281601" fill="#ff6609" stroke="none" /><path d="M 118.70294669586156 90.45014215332178 l 7.680984894762613 -3.921965616449974 a29.624345960719992,29.624345960719992 0 0,0 0.22737403109497034,0.4549003740150606 l -7.747178839069321 3.7895333862711627" fill="#ff4706" stroke="none" /><path d="M 119.83427380445688 93.10060997987247 l 4.209593336828634 -1.4643150812198897 a25.457005128846056,25.457005128846056 0 0,0 0.14003120073756165,0.41397736306683847 l -4.234109959138561 1.3918360436788897" fill="#ff0801" stroke="none" /><path d="M 119.94978838288452 93.4421083053983 l 5.114263160169867 -1.6811598829218266 a26.38349201015627,26.38349201015627 0 0,0 0.13774103072961652,0.43147181693540654 l -5.142368906676741 1.593119032295033" fill="#ff1602" stroke="none" /><path d="M 120.16314734710363 94.1308016681162 l 8.813276630696684 -2.565416381125927 a30.179063469534,30.179063469534 0 0,0 0.14052163494418715,0.4986617089503018 l -8.856016757715453 2.4137467482726125" fill="#ff4f07" stroke="none" /><path d="M 120.51834098615036 95.52812308129327 l 4.956290489282966 -1.0802004439048252 a26.072637224676033,26.072637224676033 0 0,0 0.09155504541873516,0.43812403562818775 l -4.974103245526068 0.994959956991233" fill="#ff1201" stroke="none" /><path d="M 120.592083275326 95.88100663000786 l 5.279362800618629 -1.056020417302192 a26.383943787068628,26.383943787068628 0 0,0 0.08502377620428973,0.44488032472886757 l -5.296712869105076 0.9652375275400099" fill="#ff1602" stroke="none" /><path d="M 120.77682067341334 96.94652285012252 l 4.256995747012471 -0.6256317771111954 a25.302723313276555,25.302723313276555 0 0,0 0.05946800674268851,0.43028087283568217 l -4.267108270310372 0.5524625960754277" fill="#ff0600" stroke="none" /><path d="M 120.9064616781168 98.02013634271609 l 5.361954408083396 -0.507782657248477 a26.385944513394776,26.385944513394776 0 0,0 0.03883304555273595,0.4512988530630968 l -5.369881076333873 0.4156627568097182" fill="#ff1602" stroke="none" /><path d="M 120.98066250479742 99.09900007780936 l 7.413258908499988 -0.31835723482088696 a28.42009157446303,28.42009157446303 0 0,0 0.016747977562486624,0.4875990930853841 l -7.417631573059323 0.19105187717138292" fill="#ff3505" stroke="none" /><line stroke="#e1ed5e" stroke-width="0.3" x1="184.99686870605535" x2="189.99668451229388" y1="99.2704041080226" y2="99.22748670261217" /><path d="M 185.99683186730306 99.26182062694052 a86.0,86.0 0 0,1 -10.086455211305974,41.156179273409016" fill="none" id="id88" stroke="none" /><text fill="#e1ed5e" style="font-size:6.75px; font-family:Arial;" text-anchor="middle"><textPath startOffset="21.40746469413373" xlink:href="#id88">April</textPath></text><path d="M 120.99922638620191 100.18025310272382 l 5.38020666051969 0.04618260339777556 a26.38040486792184,26.38040486792184 0 0,0 -0.007774139999045546,0.45280468060128376 l -5.378621088921976 -0.13853419996813032" fill="#ff1602" stroke="none" /><path d="M 120.98066250479742 100.90099992219065 l 9.31971063505538 0.40022847491608754 a30.328300442915527,30.328300442915527 0 0,0 -0.026802145271620725,0.5199544580187897 l -9.311466900327186 -0.5601547263116079" fill="#ff5107" stroke="none" /><path d="M 120.96210409425399 101.26102812881392 l 6.225708119670179 0.37452314068229836 a27.23696313715527,27.23696313715527 0 0,0 -0.032082598947920773,0.46647394754017313 l -6.2183615595571915 -0.48134051237681497" fill="#ff2303" stroke="none" /><path d="M 120.9064616781168 101.97986365728391 l 10.71136895063185 1.0143777761931445 a31.759293056209344,31.759293056209344 0 0,0 -0.05605909571749125,0.5423208983546557 l -10.692377462432693 -1.1981031968307316" fill="#ff6609" stroke="none" /><path d="M 120.77682067341334 103.0534771498775 l 10.652482465185336 1.5655480840019342 a31.766908724160487,31.766908724160487 0 0,0 -0.0839228902569655,0.5388451576690891 l -10.624038082790104 -1.748181423602474" fill="#ff6609" stroke="none" /><path d="M 120.7213421655516 103.40968896794604 l 5.3238057322494585 0.8760302072959676 a26.39539955877479,26.39539955877479 0 0,0 -0.07740788091393062,0.4464680867676973 l -5.307983033843294 -0.9672913269842529" fill="#ff1602" stroke="none" /><path d="M 120.592083275326 104.11899336999214 l 4.19202659885014 0.838522724322124 a25.27506811228449,25.27506811228449 0 0,0 -0.08875435150809367,0.42472170140314036 l -4.1770145365176825 -0.9103608770106735" fill="#ff0500" stroke="none" /><path d="M 120.43855184770803 104.8234425847677 l 5.248522451201229 1.238637007497785 a26.39269965389381,26.39269965389381 0 0,0 -0.10784870662919666,0.4400595265085116 l -5.2264862180557365 -1.3285523586143964" fill="#ff1602" stroke="none" /><path d="M 120.35273937422433 105.17358676015961 l 5.25914791267987 1.336854833665288 a26.426400060236922,26.426400060236922 0 0,0 -0.115534357618679,0.43870277429725324 l -5.235424074256461 -1.4269381123353442" fill="#ff1702" stroke="none" /><path d="M 120.26092885502905 105.52220625578681 l 5.190238144374699 1.414622486213165 a26.37956585365604,26.37956585365604 0 0,0 -0.12283017750421021,0.43588096771892454 l -5.165189474795909 -1.5035113778350981" fill="#ff1602" stroke="none" /><path d="M 119.83427380445688 106.89939002012753 l 8.749105834031381 3.0433931724181202 a30.263319863688352,30.263319863688352 0 0,0 -0.17489292155061778,0.489206628456433 l -8.69557274243682 -3.1931347572554745" fill="#ff5007" stroke="none" /><path d="M 119.58574465831526 107.57618678355244 l 5.2680107439273085 2.037779725511212 a26.648405386287187,26.648405386287187 0 0,0 -0.16869877724251836,0.42523112084882925 l -5.232253291718666 -2.1279118635736056" fill="#ff1a02" stroke="none" /><path d="M 119.31412917781788 108.2440532568976 l 9.912716061537036 4.231149040137491 a31.77796650192005,31.77796650192005 0 0,0 -0.21846007910843349,0.49987941337984815 l -9.838622100411637 -4.400690523293184" fill="#ff6609" stroke="none" /><path d="M 119.16976305983485 108.57439118712176 l 8.743634059499426 3.910916300278751 a30.578434260056518,30.578434260056518 0 0,0 -0.21844000854366027,0.477330840812874 l -8.67520958610071 -4.060436123306314" fill="#ff5407" stroke="none" /><path d="M 118.8641267826498 109.22738970284198 l 16.032542883899477 7.8423201254845285 a38.84781264678267,38.84781264678267 0 0,0 -0.29816637209251395,0.5965324779193605 l -15.895556598595233 -8.116384459567636" fill="#ffc812" stroke="none" /><path d="M 118.70294669586154 109.54985784667822 l 6.587552498144719 3.3636512437225945 a28.39662068820683,28.39662068820683 0 0,0 -0.22540416843348107,0.4322422136248434 l -6.528840260736288 -3.476239700451941" fill="#ff3405" stroke="none" /><path d="M 118.5362547648365 109.86951160357373 l 6.097927081040176 3.246802703545131 a27.908432708033793,27.908432708033793 0 0,0 -0.22878887979216175,0.4209457697889996 l -6.041292851632675 -3.3510033068087335" fill="#ff2d04" stroke="none" /><line stroke="#e1ed5e" stroke-width="0.3" x1="174.33088141563837" x2="178.70328620479359" y1="141.23008692659167" y2="143.65538615756765" /><path d="M 175.20536237346943 141.71514677278685 a86.0,86.0 0 0,1 -30.301960400862466,31.631185727798858" fill="none" id="id89" stroke="none" /><text fill="#e1ed5e" style="font-size:6.75px; font-family:Arial;" text-anchor="middle"><textPath startOffset="22.145653131862474" xlink:href="#id89">May</textPath></text><path d="M 118.36410011445183 110.18625677009912 l 9.72840877577646 5.396184356268014 a32.12478057830518,32.12478057830518 0 0,0 -0.2716328184150586,0.47994916278544947 l -9.634342592340023 -5.562390289152586" fill="#ff6b09" stroke="none" /><path d="M 118.18653347947321 110.5 l 9.707580919113862 5.60467445683046 a32.209348913660925,32.209348913660925 0 0,0 -0.2805684140910412,0.4764665052406761 l -9.609938794893056 -5.770492130364685" fill="#ff6c09" stroke="none" /><path d="M 118.00360718960297 110.81064883170644 l 9.224800180482305 5.539227458342232 a31.760110557288847,31.760110557288847 0 0,0 -0.2846795361580891,0.4650026278165205 l -9.128352679868811 -5.69676720228331" fill="#ff6609" stroke="none" /><path d="M 117.21940702142032 112.02048342749411 l 4.936673193564947 3.4461812904697338 a27.020540482950544,27.020540482950544 0 0,0 -0.2687706160213492,0.37805953050041174 l -4.876787479013637 -3.5304180476796496" fill="#ff2003" stroke="none" /><path d="M 117.01052211995028 112.31430620078461 l 4.922470303692384 3.563488889788081 a27.076937300842957,27.076937300842957 0 0,0 -0.2757953430716963,0.3741693509060391 l -4.86057294103686 -3.647464549962997" fill="#ff2103" stroke="none" /><path d="M 116.79662413953412 112.60449989151573 l 8.852222216699866 6.642872582202192 a32.067501719774356,32.067501719774356 0 0,0 -0.33418615916952665,0.43746040987274065 l -8.736884080176036 -6.793853905315809" fill="#ff6a09" stroke="none" /><path d="M 116.57777611688842 112.89097897827486 l 4.745173590457237 3.689875684865421 a27.010977871639014,27.010977871639014 0 0,0 -0.2877744043373138,0.3635935590321036 l -4.681132755478362 -3.7707891878122077" fill="#ff2003" stroke="none" /><path d="M 116.35404254752997 113.17365903436017 l 13.030704507330526 10.496613155931863 a37.73254755566665,37.73254755566665 0 0,0 -0.41066160771796956,0.5009403887725224 l -12.848596080373929 -10.718755826402878" fill="#ffb911" stroke="none" /><path d="M 115.89218393027572 113.72728997021213 l 8.398825521538098 7.254705448237993 a32.098244063000855,32.098244063000855 0 0,0 -0.3637631882548201,0.4138957331465326 l -8.273051269324693 -7.397813459195819" fill="#ff6a09" stroke="none" /><path d="M 115.16444852881244 114.52719865689866 l 8.03767635720959 7.6999121306118035 a32.13071821772471,32.13071821772471 0 0,0 -0.3849767996230358,0.3950201110182036 l -7.904312756435746 -7.836754933697745" fill="#ff6b09" stroke="none" /><path d="M 114.65682725009322 115.03919595460226 l 6.886052878803541 7.065696881800995 a30.866194640040852,30.866194640040852 0 0,0 -0.3826342724494887,0.36655497746919563 l -6.763746120488741 -7.18286398957577" fill="#ff5908" stroke="none" /><path d="M 114.39649973595853 115.28858382429668 l 6.731934008533646 7.149080629094153 a30.819790697186022,30.819790697186022 0 0,0 -0.38828567013381765,0.35939141950739206 l -6.608218567085861 -7.263589794733925" fill="#ff5808" stroke="none" /><path d="M 112.7482090630111 116.68781488649013 l 10.345614729258994 13.542741779294381 a38.042229872493394,38.042229872493394 0 0,0 -0.5223506323287157,0.39198165261219386 l -10.111611108019511 -13.718342459170591" fill="#ffbd11" stroke="none" /><path d="M 112.45986205192187 116.90419585922612 l 2.932079512894232 3.977928981416237 a25.941761755803824,25.941761755803824 0 0,0 -0.36073747890709873,0.26114611544763516 l -2.8633610236131655 -4.027675868236949" fill="#ff1001" stroke="none" /><path d="M 111.5731344415666 117.5232005979908 l 5.338427045498811 8.083058955923791 a30.686828449242455,30.686828449242455 0 0,0 -0.4420574526838186,0.2865363000430278 l -5.198883960557984 -8.173509097670713" fill="#ff5608" stroke="none" /><path d="M 110.96478420261333 117.91015095944535 l 5.622439039229475 9.183831627883604 a31.76822102852495,31.76822102852495 0 0,0 -0.46754840487429916,0.2807493833702142 l -5.463957877797739 -9.278995011789743" fill="#ff6609" stroke="none" /><line stroke="#e1ed5e" stroke-width="0.3" x1="143.1302829299769" x2="145.66735839644613" y1="173.24464959558577" y2="177.55315839532614" /><path d="M 143.63769802327073 174.10635135553383 a86.0,86.0 0 0,1 -40.68552437913181,11.842963189579606" fill="none" id="id90" stroke="none" /><text fill="#e1ed5e" style="font-size:6.75px; font-family:Arial;" text-anchor="middle"><textPath startOffset="21.407464694133747" xlink:href="#id90">June</textPath></text><path d="M 110.65571695917076 118.09573695890943 l 4.952385044060783 8.410232499600392 a30.760027065637246,30.760027065637246 0 0,0 -0.457310101843331,0.26402811040238333 l -4.807282474357054 -8.494007507278948" fill="#ff5708" stroke="none" /><path d="M 110.34350942703117 118.27599006163325 l 8.449965082360164 14.930278640514372 a38.155615120901544,38.155615120901544 0 0,0 -0.5727990200639721,0.31772196076414816 l -8.192421874140097 -15.073133516711664" fill="#ffbe11" stroke="none" /><path d="M 109.71004243097381 118.62028667847754 l 4.979076867710146 9.548036409727713 a31.768296324677006,31.768296324677006 0 0,0 -0.48571119820905895,0.2480075986348503 l -4.814438447787504 -9.6321019600354" fill="#ff6609" stroke="none" /><path d="M 109.06512990194946 118.94263497670748 l 2.794318395133701 5.839050729580142 a27.473231705724196,27.473231705724196 0 0,0 -0.42715810563533907,0.1999315619145081 l -2.6936715756268557 -5.886158523065184" fill="#ff2703" stroke="none" /><path d="M 108.4095320186766 119.2426549942271 l 11.251099409988903 25.744717276935855 a49.09586634369569,49.09586634369569 0 0,0 -0.7751651063661914,0.3308718897412673 l -10.807499228452281 -25.934063816336526" fill="#b5ff20" stroke="none" /><path d="M 108.07796709384702 119.3841803445677 l 3.759849044381852 9.02226898153152 a30.774344091121662,30.774344091121662 0 0,0 -0.4893788056676379,0.19902609990419567 l -3.6044157775237733 -9.085482338015007" fill="#ff5708" stroke="none" /><path d="M 107.74402155503746 119.51999308798841 l 8.019845334817779 20.215249194463496 a42.74797046137077,42.74797046137077 0 0,0 -0.6844311138676252,0.2647526580989343 l -7.6716419584566236 -20.349941740700473" fill="#fffb17" stroke="none" /><path d="M 107.407793817531 119.65005319985036 l 3.8000112284519414 10.079981251961588 a31.77246988281972,31.77246988281972 0 0,0 -0.5120070708137486,0.18801608843971238 l -3.626415005984066 -10.143728189410021" fill="#ff6609" stroke="none" /><path d="M 105.69591212413111 120.21278271476187 l 17.08773637239333 60.63834814428561 a84.0,84.0 0 0,0 -1.3912743962612195,0.3791980234234318 l -16.044280575197412 -60.92274666185318" fill="#4dd2ff" stroke="none" /><path d="M 105.3480935250658 120.30758222061773 l 3.0226633653070984 11.477545134266833 a32.868889422734625,32.868889422734625 0 0,0 -0.5468674277077716,0.13901156161487246 l -2.8251906443739294 -11.527741927716976" fill="#ff750a" stroke="none" /><path d="M 104.9986988182912 120.39639698878246 l 7.660234642574929 31.256371403187117 a53.18136025828117,53.18136025828117 0 0,0 -0.8885537778574618,0.20969627216786021 l -7.122548710977588 -31.3832638190012" fill="#86ff25" stroke="none" /><path d="M 104.64783097203109 120.47920084513623 l 6.664089007082553 29.36320577214731 a51.109930845350405,51.109930845350405 0 0,0 -0.8572780251299673,0.18683975551828674 l -6.15904856533345 -29.473276985799316" fill="#9dff22" stroke="none" /><path d="M 103.94208987418118 120.62667999033965 l 2.0321049054817246 10.632831551278967 a31.82527399859959,31.82527399859959 0 0,0 -0.5374913944059018,0.09794883684115165 l -1.8492787775247657 -10.666148562051482" fill="#ff6609" stroke="none" /><path d="M 103.58742460773223 120.69131181640829 l 2.968956222384832 17.12415052130218 a38.379621173277954,38.379621173277954 0 0,0 -0.6501187940778862,0.10697680016629717 l -2.6745599252538734 -17.17259331996415" fill="#ffc112" stroke="none" /><path d="M 103.2317021107853 120.74984581791261 l 1.0481271196287028 6.729727983679643 a27.810859651558093,27.810859651558093 0 0,0 -0.4723540680561411,0.06941978159857583 l -0.9324479459648761 -6.746728838577101" fill="#ff2c04" stroke="none" /><path d="M 102.875027216393 120.80226474461374 l 1.4908873362510418 10.787318080416675 a31.889856583880167,31.889856583880167 0 0,0 -0.5429205231171255,0.07029193136505461 l -1.3054889912431409 -10.811321607982125" fill="#ff6709" stroke="none" /><path d="M 102.51750503828377 120.84855314841334 l 1.355928300532827 11.229031445501324 a32.31060072499438,32.31060072499438 0 0,0 -0.5512251541655558,0.06176592826989597 l -1.1629672447664718 -11.25065313427819" fill="#ff6d0a" stroke="none" /><path d="M 102.15924093988457 120.88869738790638 l 1.1305602322977581 10.937144685915193 a31.995421789067308,31.995421789067308 0 0,0 -0.5468176595131835,0.05178420088007583 l -0.9426430093995594 -10.954940642300453" fill="#ff6909" stroke="none" /><path d="M 101.44090949804482 120.95050786540614 l 1.0361141363499338 15.064872146732576 a36.10046043340875,36.10046043340875 0 0,0 -0.6186168846466958,0.03721445561910814 l -0.7773528995707727 -15.080438580176375" fill="#ffa30f" stroke="none" /><path d="M 101.08105385017728 120.97215588758144 l 0.7902820819251397 15.331261263792262 a36.35161612689912,36.35161612689912 0 0,0 -0.6234721756874527,0.026774577859679675 l -0.5269841456368575 -15.342568410077773" fill="#ffa60f" stroke="none" /><path d="M 100.72087961077811 120.9876233191556 l 0.3014252924536399 8.775668505944937 a29.78084363447867,29.78084363447867 0 0,0 -0.511077121028912,0.013163533722349578 l -0.15073485735398404 -8.779549757017332" fill="#ff4906" stroke="none" /><line stroke="#e1ed5e" stroke-width="0.3" x1="101.45913802915013" x2="101.54496967792366" y1="184.9874750549273" y2="189.98673829345242" /><path d="M 101.47630435890484 185.9873277026323 a86.0,86.0 0 0,1 -42.54439059252881,-10.42667462771756" fill="none" id="id91" stroke="none" /><text fill="#e1ed5e" style="font-size:6.75px; font-family:Arial;" text-anchor="middle"><textPath startOffset="22.145653131862474" xlink:href="#id91">July</textPath></text><path d="M 100.36049292484886 120.99690560180557 l 0.2153175465793665 12.541167629946882 a33.54301587212152,33.54301587212152 0 0,0 -0.5758104714282172,0.004942640369075923 l -1.536076423944807e-15 -12.543015872121522" fill="#ff7f0b" stroke="none" /><path d="M 100.0 121.0 l 1.5945132906719747e-15 13.0201891009076 a34.0201891009076,34.0201891009076 0 0,0 -0.5840017844236773,-0.005012952939437272 l 0.22350885957482355 -13.018270546162599" fill="#ff860c" stroke="none" /><path d="M 99.63950707515114 120.99690560180557 l -0.2032570518137252 11.838704273110258 a32.84044899044251,32.84044899044251 0 0,0 -0.5635838369568743,-0.014515920470506514 l 0.4064542028413434 -11.833470635289704" fill="#ff750a" stroke="none" /><path d="M 98.91894614982273 120.97215588758144 l -0.9248415962365848 17.941679893571298 a38.96550053245136,38.96550053245136 0 0,0 -0.6677121637423233,-0.04016790569516632 l 1.2326981121113545 -17.92316001005144" fill="#ffc912" stroke="none" /><path d="M 98.55909050195518 120.95050786540614 l -0.980084249133291 14.250209883472483 a35.283873664325654,35.283873664325654 0 0,0 -0.603910389494864,-0.046746483543140885 l 1.2245636334033911 -14.231285632934288" fill="#ff970e" stroke="none" /><path d="M 98.19965949673042 120.92268563240118 l -0.43830742524784305 5.093796674658601 a26.11261948141952,26.11261948141952 0 0,0 -0.44627764443059154,-0.04226295692069476 l 0.5256846330634498 -5.085521962232723" fill="#ff1202" stroke="none" /><path d="M 97.84075906011543 120.88869738790638 l -1.437791451663026 13.909328035579541 a34.98344201760905,34.98344201760905 0 0,0 -0.5968243482542582,-0.06687541307835221 l 1.6763517015180833 -13.882596861994218" fill="#ff930d" stroke="none" /><path d="M 97.48249496171623 120.84855314841334 l -0.9371743590752313 7.761148095985573 a28.81752617821831,28.81752617821831 0 0,0 -0.4906145108074129,-0.06351987086871422 l 1.0702666917734383 -7.743916628916462" fill="#ff3b05" stroke="none" /><path d="M 97.12497278360702 120.80226474461374 l -1.5595979023820388 11.284473508810393 a32.39173770713485,32.39173770713485 0 0,0 -0.5501580774226617,-0.08085429164724421 l 1.7530810854123853 -11.256038143864266" fill="#ff6f0a" stroke="none" /><path d="M 96.76829788921471 120.74984581791261 l -2.3934536818458167 15.36768958527179 a36.552958037505675,36.552958037505675 0 0,0 -0.6191766430427671,-0.10188528098833945 l 2.656907827941647 -15.324338305787784" fill="#ffa90f" stroke="none" /><path d="M 96.05791012581884 120.62667999033965 l -2.1342588716807676 11.1673442685897 a32.36946080271845,32.36946080271845 0 0,0 -0.5448913407251841,-0.10899352871705133 l 2.32564669793691 -11.129061343209786" fill="#ff6e0a" stroke="none" /><path d="M 95.70440661134978 120.55596938700252 l -4.149483572555521 19.856781024640597 a41.285708431786034,41.285708431786034 0 0,0 -0.6924941983894883,-0.15092588743926888 l 4.489740187564147 -19.78262367906761" fill="#ffe815" stroke="none" /><path d="M 95.35216902796893 120.47920084513623 l -2.4512344545856624 10.800591290014346 a32.075257223436466,32.075257223436466 0 0,0 -0.535913162867917,-0.12647404722093988 l 2.636279771193467 -10.75692109914718" fill="#ff6a09" stroke="none" /><path d="M 95.00130118170881 120.39639698878247 l -2.421480419424655 9.880466443471901 a31.172865110785224,31.172865110785224 0 0,0 -0.5186492411765536,-0.13183860894500038 l 2.5907349538265874 -9.837442602691638" fill="#ff5d08" stroke="none" /><path d="M 94.6519064749342 120.30758222061772 l -2.496250528209175 9.478669848849448 a30.80185945640276,30.80185945640276 0 0,0 -0.5101647430824963,-0.13904766932897594 l 2.6585966722263663 -9.434421685376327" fill="#ff5808" stroke="none" /><path d="M 94.30408787586889 120.21278271476187 l -3.1092477168286012 11.03362326121085 a32.463344347743245,32.463344347743245 0 0,0 -0.5350886481228325,-0.15575650700304333 l 3.2981963773330407 -10.97862305990529" fill="#ff700a" stroke="none" /><path d="M 93.61358852112213 120.00534299687104 l -2.639180435787251 8.26719512564705 a29.67823649240815,29.67823649240815 0 0,0 -0.4840057707315608,-0.159102310415629 l 2.780708944166555 -8.2206718938294" fill="#ff4706" stroke="none" /><path d="M 92.93061703081489 119.77432235084164 l -3.2303459569608877 9.035852568197459 a30.59592448052058,30.59592448052058 0 0,0 -0.49304727425616585,-0.18105378852322027 l 3.3849823828711725 -8.979067930665519" fill="#ff5507" stroke="none" /><path d="M 92.59220618246901 119.65005319985036 l -3.8206376448991293 10.134695272153454 a31.830942723190347,31.830942723190347 0 0,0 -0.5096402787864944,-0.19713980815475046 l 3.9940501861791518 -10.067615575860662" fill="#ff6709" stroke="none" /><path d="M 91.92203290615298 119.3841803445677 l -3.3432999216989256 8.022702726476142 a29.69145634539113,29.69145634539113 0 0,0 -0.4687926424400017,-0.20009970292399976 l 3.4805276393093587 -7.964128373892738" fill="#ff4806" stroke="none" /><path d="M 91.59046798132341 119.24265499422711 l -3.872748849139552 8.861607259212269 a30.670897934785337,30.670897934785337 0 0,0 -0.480637211081935,-0.21498291105843229 l 4.0242994630771225 -8.79382059724398" fill="#ff5607" stroke="none" /><path d="M 91.26138138417905 119.09545874513695 l -8.698204052888357 19.007145631461878 a41.90287872043666,41.90287872043666 0 0,0 -0.6515125154046072,-0.3049407540047772 l 9.023205282164454 -18.855028645886573" fill="#fff016" stroke="none" /><path d="M 90.93487009805054 118.94263497670748 l -4.260965014904865 8.903778081382619 a30.870819975095927,30.870819975095927 0 0,0 -0.476057078371933,-0.2328633725561306 l 4.4131823425388665 -8.829320958729268" fill="#ff5908" stroke="none" /><path d="M 90.6110303473126 118.78422872680471 l -5.134370879041366 10.272181136782452 a32.483878684069126,32.483878684069126 0 0,0 -0.4966518656482388,-0.2535939813846374 l 5.309949966403186 -10.182529203724977" fill="#ff700a" stroke="none" /><path d="M 89.97174638481275 118.45085714620012 l -6.4446478825396945 11.85742622805423 a34.495630518196315,34.495630518196315 0 0,0 -0.5178546668610049,-0.2872452542386811 l 6.647246737556801 -11.7450480583824" fill="#ff8c0c" stroke="none" /><line stroke="#e1ed5e" stroke-width="0.3" x1="58.13341422392154" x2="55.67067388415222" y1="173.97424548756322" y2="178.32567169271397" /><path d="M 57.64086615596768 174.84453072859336 a86.0,86.0 0 0,1 -31.369924170532247,-30.572349798747897" fill="none" id="id92" stroke="none" /><text fill="#e1ed5e" style="font-size:6.75px; font-family:Arial;" text-anchor="middle"><textPath startOffset="22.145653131862474" xlink:href="#id92">August</textPath></text><path d="M 89.65649057296885 118.27599006163327 l -5.299437218550294 9.363597782911647 a31.759228516650438,31.759228516650438 0 0,0 -0.4721652551352882,-0.272604737154349 l 5.459394941545981 -9.271246148481127" fill="#ff6609" stroke="none" /><path d="M 89.03521579738668 117.91015095944536 l -5.618322241671877 9.177107148462623 a31.760336445745025,31.760336445745025 0 0,0 -0.4625452460388702,-0.28866244322673695 l 5.77503161650046 -9.079308908394337" fill="#ff6609" stroke="none" /><path d="M 88.72937992617639 117.7192867562869 l -11.270106274811795 17.71847897890058 a41.99904266320953,41.99904266320953 0 0,0 -0.6050149446224623,-0.3921633775210945 l 11.572606851691267 -17.522401759675592" fill="#fff116" stroke="none" /><path d="M 88.4268655584334 117.5232005979908 l -6.523210138231821 9.876971564810598 a32.83667342624639,32.83667342624639 0 0,0 -0.4676938527779386,-0.314685296662474 l 6.691800279106765 -9.763536594091002" fill="#ff750a" stroke="none" /><path d="M 87.83215693770417 117.11559508785305 l -7.920465312561163 11.141126369163096 a34.66961841241905,34.66961841241905 0 0,0 -0.4821041399769131,-0.34900621853216934 l 8.11055046291203 -11.003519379257861" fill="#ff8f0d" stroke="none" /><path d="M 87.54013794807813 116.9041958592261 l -6.388837600493 8.66768521685709 a31.76782303457835,31.76782303457835 0 0,0 -0.4361979438491608,-0.32733106904412845 l 6.536688533252927 -8.556735120548945" fill="#ff6609" stroke="none" /><path d="M 87.2517909369889 116.68781488649013 l -6.5381577543061296 8.558658378070216 a31.770243268037397,31.770243268037397 0 0,0 -0.4305473947906203,-0.3347962583318215 l 6.684115093731978 -8.445161068117601" fill="#ff6609" stroke="none" /><path d="M 86.96720088162412 116.46651593811092 l -10.019053066589919 12.658746252995368 a37.143892995460206,37.143892995460206 0 0,0 -0.4965771116420018,-0.4000073702894434 l 10.234880948587183 -12.484890588912513" fill="#ffb110" stroke="none" /><path d="M 86.13680546590413 115.77377054828092 l -7.868675568947951 8.953108364611408 a32.91948843691847,32.91948843691847 0 0,0 -0.421267516289697,-0.37670001073065795 l 8.02120811206102 -8.816712823997369" fill="#ff760a" stroke="none" /><path d="M 85.34317274990678 115.03919595460226 l -9.333175484992179 9.5766602554857 a34.37238147386839,34.37238147386839 0 0,0 -0.4190289229374045,-0.41544750067209 l 9.496196328059547 -9.41503274458495" fill="#ff8b0c" stroke="none" /><path d="M 84.83555147118756 114.52719865689866 l -3.576186949594519 3.4259062010899575 a25.952367756651032,25.952367756651032 0 0,0 -0.3054274424660795,-0.32435335963782463 l 3.6344702257968513 -3.364011381507643" fill="#ff1001" stroke="none" /><path d="M 84.58840730492382 114.26474011684316 l -7.244579239532075 6.705474388822822 a30.871540666837063,30.871540666837063 0 0,0 -0.356643178301337,-0.3920133276423157 l 7.358620118675292 -6.580123485622831" fill="#ff5908" stroke="none" /><path d="M 84.1078160697243 113.72728997021213 l -8.401967667354 7.257419558956374 a32.10239610795726,32.10239610795726 0 0,0 -0.35665064459212154,-0.42013356254422846 l 8.525312875453233 -7.1121192139625915" fill="#ff6a09" stroke="none" /><path d="M 83.8745106332314 113.45245675266167 l -9.381034089087166 7.82599228515562 a33.21678991502804,33.21678991502804 0 0,0 -0.361514428083898,-0.44098882083858343 l 9.513995336409694 -7.663801182618542" fill="#ff7a0b" stroke="none" /><path d="M 83.64595745247003 113.17365903436017 l -7.6065789511909285 6.1273215616077135 a30.767502897877414,30.767502897877414 0 0,0 -0.3277963449327719,-0.4141599735608198 l 7.710641726765262 -5.995841644132213" fill="#ff5708" stroke="none" /><path d="M 83.4222238831116 112.89097897827486 l -17.003469352318913 13.222000612928131 a42.539249527862395,42.539249527862395 0 0,0 -0.44331574495261533,-0.5803145407695599 l 17.22793707462582 -12.9281651589177" fill="#fff817" stroke="none" /><path d="M 83.20337586046588 112.60449989151573 l -17.138012818709868 12.860684320832535 a42.42682161624471,42.42682161624471 0 0,0 -0.43214340281865865,-0.5862855214670918 l 17.356258241112357 -12.564592490096564" fill="#fff717" stroke="none" /><path d="M 82.98947788004972 112.3143062007846 l -12.682059233700011 9.180832872678817 a36.656382680655696,36.656382680655696 0 0,0 -0.3646173754522296,-0.5128800008584744 l 12.8377917076822 -8.961775645110837" fill="#ffaa0f" stroke="none" /><path d="M 82.78059297857968 112.02048342749411 l -13.604179246987684 9.496773668201861 a37.59103381616777,37.59103381616777 0 0,0 -0.3648304045455796,-0.5322984633207334 l 13.765199388348588 -9.261840469811077" fill="#ffb711" stroke="none" /><path d="M 82.37810715431573 111.42229804090323 l -18.815210001612193 12.195791804126843 a43.42207539757136,43.42207539757136 0 0,0 -0.4000668277293695,-0.6289715025244227 l 19.021794520967454 -11.871006626923748" fill="#fbff18" stroke="none" /><path d="M 82.18462484594161 111.11811171558189 l -14.933392090811212 9.319541133569892 a38.60284199435432,38.60284199435432 0 0,0 -0.3460138822097,-0.5651876726367732 l 15.091173937476317 -9.06181634480856" fill="#ffc412" stroke="none" /><path d="M 81.99639281039703 110.81064883170644 l -24.615221030075013 14.780732975814542 a49.71200399940378,49.71200399940378 0 0,0 -0.4330301168392841,-0.7353798078190817 l 24.865324857044065 -14.3560019997019" fill="#aeff20" stroke="none" /><line stroke="#e1ed5e" stroke-width="0.3" x1="26.387840678322732" x2="22.057713659400548" y1="142.50000000000003" y2="145.00000000000006" /><path d="M 25.521815274538298 143.00000000000003 a86.0,86.0 0 0,1 -11.493303480769221,-40.785679425670985" fill="none" id="id93" stroke="none" /><text fill="#e1ed5e" style="font-size:6.75px; font-family:Arial;" text-anchor="middle"><textPath startOffset="21.40746469413373" xlink:href="#id93">September</textPath></text><path d="M 81.81346652052679 110.50000000000001 l -7.52015648007481 4.341764368119305 a29.683528736238603,29.683528736238603 0 0,0 -0.25099068152310033,-0.4434764847887162 l 7.593580526619289 -4.212031113231467" fill="#ff4706" stroke="none" /><path d="M 81.63589988554817 110.18625677009913 l -4.706999328210764 2.6108931815344865 a26.382620726111014,26.382620726111014 0 0,0 -0.2162805165397619,-0.3979317902508974 l 4.751125194365856 -2.529706557809002" fill="#ff1602" stroke="none" /><path d="M 81.4637452351635 109.86951160357371 l -9.506921740156422 5.061900347136747 a31.770533696052482,31.770533696052482 0 0,0 -0.2521853148329253,-0.48359859307229336 l 9.592415123964297 -4.897955510959951" fill="#ff6609" stroke="none" /><path d="M 81.29705330413844 109.54985784667822 l -8.790310510459243 4.488395180082625 a30.869916421271213,30.869916421271213 0 0,0 -0.2369340860917581,-0.47402688803559123 l 8.866064509762737 -4.3368364358832805" fill="#ff5908" stroke="none" /><path d="M 81.1358732173502 109.22738970284198 l -10.792353602363143 5.279080958651539 a33.01430780554743,33.01430780554743 0 0,0 -0.24465290850662674,-0.5112304833970692 l 10.88138576882968 -5.093037973189365" fill="#ff770b" stroke="none" /><path d="M 80.83023694016515 108.57439118712176 l -19.678569780879258 8.801973961684716 a42.55738514391553,42.55738514391553 0 0,0 -0.2925640230826592,-0.6694437392472893 l 19.826767685978886 -8.462868152661578" fill="#fff817" stroke="none" /><path d="M 80.68587082218212 108.24405325689762 l -8.680733479783774 3.7052889341996726 a30.438447956785133,30.438447956785133 0 0,0 -0.2010012411441579,-0.482329806813407 l 8.743060565464416 -3.5557266179449845" fill="#ff5207" stroke="none" /><path d="M 80.5471966667186 107.91128576633889 l -10.7361276782768 4.366289661780117 a32.59003550187958,32.59003550187958 0 0,0 -0.2063125001200437,-0.5200422736025544 l 10.80949885336297 -4.181346370963997" fill="#ff710a" stroke="none" /><path d="M 80.41425534168474 107.57618678355246 l -15.99826536727742 6.1884727259462915 a38.15347455886443,38.15347455886443 0 0,0 -0.23104529855971925,-0.6128751042624132 l 16.102141349651575 -5.9129293414897335" fill="#ffbe11" stroke="none" /><path d="M 80.16572619554312 106.89939002012753 l -13.86924313675673 4.824442711028806 a35.68438465372222,35.68438465372222 0 0,0 -0.19628888808210512,-0.5802932193650505 l 13.950017446411202 -4.585647817189594" fill="#ff9d0e" stroke="none" /><path d="M 80.05021161711548 106.5578916946017 l -9.582697099395377 3.1500228731209403 a31.08715657655544,31.08715657655544 0 0,0 -0.1622975831879827,-0.5083948677558782 l 9.635359398360613 -2.9850589716736704" fill="#ff5c08" stroke="none" /><path d="M 79.94057633289273 106.21446072829308 l -12.341015458259312 3.8232781352720733 a33.91967949450159,33.91967949450159 0 0,0 -0.1675368562603394,-0.5576757060812484 l 12.40482863452328 -3.6108648256001015" fill="#ff840c" stroke="none" /><path d="M 79.64726062577567 105.17358676015961 l -8.46248557378471 2.1511307405636546 a29.73161070762504,29.73161070762504 0 0,0 -0.12149252645123605,-0.4957309673473508 l 8.49816562675224 -2.0055439486082043" fill="#ff4806" stroke="none" /><path d="M 79.56144815229197 104.8234425847677 l -24.71581199852929 5.832864333985946 a46.39475672427932,46.39475672427932 0 0,0 -0.17627607939390047,-0.7767049309289571 l 24.812298939480854 -5.407725069117963" fill="#d6ff1c" stroke="none" /><path d="M 79.48165901384964 104.47187691870673 l -15.990969143721676 3.485157297552889 a37.36635009842283,37.36635009842283 0 0,0 -0.13121334259027836,-0.6279033440592025 l 16.048440197136323 -3.2101375022082776" fill="#ffb410" stroke="none" /><path d="M 79.407916724674 104.11899336999214 l -14.085733379416693 2.8175411698540644 a35.36476324482364,35.36476324482364 0 0,0 -0.11396498339718644,-0.5963129501521985 l 14.132024655096037 -2.5753256546685517" fill="#ff980e" stroke="none" /><path d="M 79.34024301695615 103.76489593502545 l -39.444888733335354 7.188172705591329 a61.09450179302163,61.09450179302163 0 0,0 -0.1791674306259169,-1.0333901279584108 l 39.56247098145351 -6.509989544712325" fill="#31ff2f" stroke="none" /><path d="M 79.2786578344484 103.40968896794605 l -11.148734221815506 1.8345199736088111 a32.2986609065964,32.2986609065964 0 0,0 -0.08532769109666856,-0.5478649867961098 l 11.178583405050441 -1.6428668048812514" fill="#ff6d0a" stroke="none" /><path d="M 79.17382384314188 102.69636545807758 l -8.667112969770976 1.1221312955835607 a29.73945226403236,29.73945226403236 0 0,0 -0.06120367060151763,-0.5068541909586625 l 8.685098726632155 -0.973183427701499" fill="#ff4806" stroke="none" /><path d="M 79.13060592940153 102.33845913500099 l -15.606045125740865 1.748689907434372 a36.703711690521544,36.703711690521544 0 0,0 -0.0647866085433494,-0.6267516679834347 l 15.63376412676588 -1.480533717168006" fill="#ffab0f" stroke="none" /><path d="M 79.0935383218832 101.97986365728391 l -11.96151108762118 1.1327675363339136 a33.01502849728857,33.01502849728857 0 0,0 -0.04858928225628763,-0.56468111221518 l 11.979193992575208 -0.9272653767430715" fill="#ff770b" stroke="none" /><path d="M 79.06263194458094 101.62068470465958 l -12.394393470657905 0.9594044422516945 a33.431470001142245,33.431470001142245 0 0,0 -0.03937914953605632,-0.5725641917189339 l 12.409036581359027 -0.7464968263784173" fill="#ff7d0b" stroke="none" /><path d="M 79.03789590574601 101.26102812881392 l -21.486851660725588 1.2925956393496911 a42.525696220491724,42.525696220491724 0 0,0 -0.037581396624045776,-0.7290690545556939 l 21.505874646806205 -0.9235547914172664" fill="#fff817" stroke="none" /><path d="M 79.01933749520258 100.90099992219065 l -14.369708344902104 0.6170971053797106 a35.38295264384254,35.38295264384254 0 0,0 -0.020851195902059586,-0.6070598180381371 l 14.378184227801013 -0.37033102277745356" fill="#ff990e" stroke="none" /><path d="M 79.00696218219943 100.54070618675478 l -10.759564831674066 0.2771282232599115 a31.76313315996437,31.76313315996437 0 0,0 -0.00936039629529137,-0.5451961574283245 l 10.762736659568024 -0.09238514986253457" fill="#ff6609" stroke="none" /><line stroke="#e1ed5e" stroke-width="0.3" x1="15.003131293944662" x2="10.003315487706104" y1="100.72959589197737" y2="100.7725132973878" /><path d="M 14.003168132696942 100.73817937305945 a86.0,86.0 0 0,1 10.791469493833604,-42.45332614584628" fill="none" id="id94" stroke="none" /><text fill="#e1ed5e" style="font-size:6.75px; font-family:Arial;" text-anchor="middle"><textPath startOffset="22.145653131862435" xlink:href="#id94">October</textPath></text><path d="M 79.00077361379809 100.18025310272382 l -15.752557910094627 0.13521676403264862 a36.753138236051896,36.753138236051896 0 0,0 0.0,-0.6309397335129265 l 15.752557910094627 0.13521676403264282" fill="#ffab0f" stroke="none" /><path d="M 79.00077361379809 99.81974689727619 l -16.158475268399556 -0.13870107635626228 a37.15907054839673,37.15907054839673 0 0,0 0.010950545229464181,-0.6378143608996741 l 16.153713291571425 0.41606235322498875" fill="#ffb110" stroke="none" /><path d="M 79.00696218219943 99.45929381324524 l -21.78498750268013 -0.561104001398327 a42.79221232900218,42.79221232900218 0 0,0 0.025217477222316025,-0.734179334646701 l 21.772145338460966 0.9349896006091665" fill="#fffb17" stroke="none" /><path d="M 79.01933749520258 99.09900007780938 l -6.746061522993499 -0.28970490831357015 a27.752279245255956,27.752279245255956 0 0,0 0.02452562817854106,-0.47579063458943804 l 6.7400943053583875 0.40546733627972015" fill="#ff2b04" stroke="none" /><path d="M 79.03789590574601 98.7389718711861 l -12.89605368972411 -0.7757945662474905 a33.9193675533002,33.9193675533002 0 0,0 0.039953847288329056,-0.5809201709081353 l 12.880835881270716 0.9970581613099508" fill="#ff840c" stroke="none" /><path d="M 79.06263194458094 98.37931529534042 l -28.178912396997628 -2.181226035425033 a49.2632066633509,49.2632066633509 0 0,0 0.07250225010745608,-0.8425860462979888 l 28.13731652419243 2.664633129098702" fill="#b3ff20" stroke="none" /><path d="M 79.0935383218832 98.0201363427161 l -30.360984857408454 -2.8752168321935083 a51.49682398781739,51.49682398781739 0 0,0 0.09089828857244092,-0.8793584856582922 l 30.30715417635435 3.395979840134713" fill="#99ff23" stroke="none" /><path d="M 79.13060592940154 97.66154086499901 l -15.157227618797405 -1.6983989696376316 a36.25208537046987,36.25208537046987 0 0,0 0.0746066427832432,-0.6178500275620267 l 15.125838889754494 1.9583426741230945" fill="#ffa50f" stroke="none" /><path d="M 79.2786578344484 96.59031103205396 l -11.955928842408627 -1.9673435412538272 a33.116710572348076,33.116710572348076 0 0,0 0.09711898403118617,-0.560156491526205 l 11.920395040885206 2.1722930657006247" fill="#ff790b" stroke="none" /><path d="M 79.34024301695615 96.23510406497455 l -38.19998527812029 -6.96130982613513 a59.82909617469936,59.82909617469936 0 0,0 0.19280270321662804,-1.008825213896961 l 38.074856282621504 7.616037605065405" fill="#3eff2d" stroke="none" /><path d="M 79.407916724674 95.88100663000787 l -3.84910138357875 -0.7699280770870627 a24.925349755748503,24.925349755748503 0 0,0 0.08752630235677163,-0.41884504165528064 l 3.8353173703976116 0.8358895700277524" fill="#ff0000" stroke="none" /><path d="M 79.64726062577567 94.8264132398404 l -11.013527597279579 -2.7995956471638124 a32.363781321534546,32.363781321534546 0 0,0 0.14149216982154333,-0.5372688152810889 l 10.96384594665331 2.988244966817686" fill="#ff6e0a" stroke="none" /><path d="M 79.83685265289637 94.1308016681162 l -14.052001049366927 -4.090332709413089 a35.63521626642749,35.63521626642749 0 0,0 0.17601027469620836,-0.5858809602242661 l 13.97971445466709 4.330951273228079" fill="#ff9c0e" stroke="none" /><path d="M 79.94057633289273 93.78553927170692 l -21.60659463514909 -6.693778249095887 a43.61971704013387,43.61971704013387 0 0,0 0.22772667025765217,-0.7133505511048212 l 21.48850324911418 7.0636978338921" fill="#f8ff18" stroke="none" /><path d="M 80.05021161711548 93.44210830539832 l -5.375227174101248 -1.7669439377050205 a26.658193886054896,26.658193886054896 0 0,0 0.14663857278046613,-0.43351088445861374 l 5.344103179748417 1.8589564966377958" fill="#ff1a02" stroke="none" /><path d="M 80.16572619554312 93.10060997987247 l -10.571158917029932 -3.677197816889546 a32.19246106241334,32.19246106241334 0 0,0 0.18604150478102197,-0.5203911999408396 l 10.506477242204966 3.8581239732113066" fill="#ff6c09" stroke="none" /><path d="M 80.28708602549916 92.7611449362534 l -10.372394882214888 -3.808887073388745 a32.04962426195685,32.04962426195685 0 0,0 0.19408232387606264,-0.5148264224484459 l 10.30548187452439 3.986381776031336" fill="#ff6a09" stroke="none" /><path d="M 80.41425534168474 92.42381321644754 l -21.30924395993813 -8.242873338402099 a43.84795043361876,43.84795043361876 0 0,0 0.2775811728887938,-0.6996858851226138 l 21.164604112083204 8.607460240738295" fill="#f5ff19" stroke="none" /><path d="M 80.68587082218212 91.75594674310238 l -20.303791183344813 -8.666481118116561 a43.07604655248628,43.07604655248628 0 0,0 0.29612960089706725,-0.6776024790660345 l 20.152027700430768 9.013745666958462" fill="#ffff18" stroke="none" /><path d="M 80.83023694016515 91.42560881287825 l -31.101476068645756 -13.911294650700357 a55.07089568102296,55.07089568102296 0 0,0 0.3934042803095502,-0.8596593506450378 l 30.858087323481158 14.443142983560067" fill="#71ff27" stroke="none" /><path d="M 80.9802524753101 91.09779779509293 l -14.904826685540675 -6.976211477651634 a37.45665169792822,37.45665169792822 0 0,0 0.27757294912233216,-0.5800207069842277 l 14.782874478458439 7.231044686700949" fill="#ffb510" stroke="none" /><path d="M 81.1358732173502 90.77261029715801 l -10.528961909235296 -5.150242882816657 a32.72109383283537,32.72109383283537 0 0,0 0.2511423211325273,-0.5024528758364536 l 10.438999674891026 5.330227614816881" fill="#ff730a" stroke="none" /><path d="M 81.46374523516351 90.13048839642627 l -12.40727079251537 -6.606172854707848 a35.05638247576822,35.05638247576822 0 0,0 0.2873866318507822,-0.5287590335745062 l 12.292038811049236 6.818186721756974" fill="#ff940d" stroke="none" /><line stroke="#e1ed5e" stroke-width="0.3" x1="26.387840678322718" x2="22.05771365940052" y1="57.49999999999999" y2="54.99999999999999" /><path d="M 25.521815274538284 56.99999999999999 a86.0,86.0 0 0,1 29.574782752854787,-30.34633250058573" fill="none" id="id95" stroke="none" /><text fill="#e1ed5e" style="font-size:6.75px; font-family:Arial;" text-anchor="middle"><textPath startOffset="21.40746469413373" xlink:href="#id95">November</textPath></text><line stroke="#e1ed5e" stroke-width="0.3" x1="56.869717070023135" x2="54.33264160355391" y1="26.7553504044142" y2="22.446841604673864" /><path d="M 56.362301976729285 25.89364864446614 a86.0,86.0 0 0,1 42.16139366436587,-11.88097634709845" fill="none" id="id96" stroke="none" /><text fill="#e1ed5e" style="font-size:6.75px; font-family:Arial;" text-anchor="middle"><textPath startOffset="22.145653131862474" xlink:href="#id96">December</textPath></text></svg>